<svg width="32" height="30" viewBox="0 0 32 30" xmlns="http://www.w3.org/2000/svg"><g fill="#3E3832" fill-rule="evenodd"><path d="M26.667.667c0-.368-.3-.667-.667-.667H.667A.668.668 0 0 0 0 .667v16c0 .368.3.666.667.666H4V22a.669.669 0 0 0 1.139.472l5.137-5.139h3.057v-6c0-.368.3-.666.667-.666h12.667v-10z"/><path d="M31.333 12H14.667v11.333c0 .368.3.667.666.667h7.08l.188.168 5.623 4.999a.675.675 0 0 0 .716.108.664.664 0 0 0 .393-.608V24h2a.668.668 0 0 0 .667-.667V12.667c0-.368-.3-.667-.667-.667z"/></g></svg>