<svg width="80" height="77" viewBox="0 0 80 77" xmlns="http://www.w3.org/2000/svg" xmlns:xlink="http://www.w3.org/1999/xlink"><defs><ellipse id="a" cx="39.937" cy="38.13" rx="39.937" ry="38.13"/><path id="c" d="M43.042 27.795V.218H0V55.371h43.042z"/><path id="e" d="M0 55.411h43.042V.258H0z"/></defs><g fill="none" fill-rule="evenodd"><g><mask id="b" fill="#fff"><use xlink:href="#a"/></mask><use fill="#B7B1A9" xlink:href="#a"/><g mask="url(#b)"><g transform="translate(16.954 21.761)"><mask id="d" fill="#fff"><use xlink:href="#c"/></mask><path d="M0 9.402v43.183a2.791 2.791 0 0 0 2.797 2.786h37.45a2.79 2.79 0 0 0 2.795-2.786V3.005A2.791 2.791 0 0 0 40.246.218H9.734L0 9.402z" fill="#E4E4DB" mask="url(#d)"/></g><path d="M26.688 21.98v6.396a2.792 2.792 0 0 1-2.797 2.788h-6.937l9.734-9.185z" fill="#FFF"/></g></g><path d="M35.933 55.35l-4.474-5.128a1.855 1.855 0 0 1 .2-2.64 1.912 1.912 0 0 1 2.675.197l2.909 3.333 8.325-11.339a1.912 1.912 0 0 1 2.648-.417 1.857 1.857 0 0 1 .423 2.615l-9.733 13.255c-.34.464-.878.748-1.456.772l-.076.002a1.907 1.907 0 0 1-1.441-.65z" fill="#403832"/></g></svg>