<svg width="24" height="24" viewBox="0 0 24 24" xmlns="http://www.w3.org/2000/svg"><g fill="none" fill-rule="evenodd"><path d="M0 12c0 6.616 5.383 12 12 12 6.616 0 12-5.384 12-12S18.616 0 12 0C5.383 0 0 5.384 0 12zm17.341-3.134l-7.5 7a.502.502 0 0 1-.695-.012l-2.5-2.5a.5.5 0 0 1 .707-.707l2.158 2.158 7.147-6.67a.5.5 0 1 1 .683.731z" fill="#3E3832"/><path d="M17.341 8.866l-7.5 7a.502.502 0 0 1-.695-.012l-2.5-2.5a.5.5 0 0 1 .707-.707l2.158 2.158 7.147-6.67a.5.5 0 1 1 .683.731z" fill="#9DCFB1"/></g></svg>