<svg width="151" height="144" viewBox="0 0 151 144" xmlns="http://www.w3.org/2000/svg" xmlns:xlink="http://www.w3.org/1999/xlink"><defs><ellipse id="a" cx="75.382" cy="71.971" rx="75.382" ry="71.971"/><path id="c" d="M0 112.883h125.448V.007H0z"/><path id="e" d="M.065 8.628L2.04 10.39l4.825-2.072 4.508-.18L9.3 5.011 6.726 3.588V2.62L3.891.514H.065z"/><path id="g" d="M.446 6.96L3.04 9.273 7.866 7.2l4.508-.18L10.3 3.895 7.726 2.472v-.97l-.862-.64H.446V6.96z"/><path id="i" d="M.941 4.174l3.215 2.867L8.98 4.968l4.508-.18-2.074-3.126L8.84.24V.095h-7.9v4.08z"/><path id="k" d="M14.273 3.815L3.748.322.628.114l6.105 6.474h7.54V3.815z"/><path id="m" d="M7.75 8.055l.185-.193L.628.114l3.12.208 9.904 3.287v4.446H7.75z"/><path id="o" d="M8.555 9.52l-1.496-.744.876-.914L.628.114l3.12.208 9.285 3.081V9.52H8.555z"/></defs><g fill="none" fill-rule="evenodd"><mask id="b" fill="#fff"><use xlink:href="#a"/></mask><use fill="#C2EAF7" xlink:href="#a"/><g mask="url(#b)"><g transform="translate(11 20.11)"><path d="M90.438 7.756a4.143 4.143 0 0 1 4.14 4.146v70.015a4.143 4.143 0 0 1-4.14 4.145H35.005a4.117 4.117 0 0 1-2.927-1.214 4.132 4.132 0 0 1-1.212-2.931V11.902a4.142 4.142 0 0 1 4.139-4.146h55.433z" fill="#585B5C"/><path d="M35.996 23.06v53.87a3.476 3.476 0 0 0 3.473 3.479h46.506a3.475 3.475 0 0 0 3.473-3.478V15.079a3.475 3.475 0 0 0-3.473-3.478h-37.89l-12.09 11.458z" fill="#FFF"/><path d="M48.084 11.601v7.981a3.476 3.476 0 0 1-3.474 3.478h-8.615L48.084 11.6z" fill="#CCCAC8"/><mask id="d" fill="#fff"><use xlink:href="#c"/></mask><path fill="#CCCAC8" mask="url(#d)" d="M53.726 41.075h25.811V38.19h-25.81zM53.726 47.607h25.811v-2.886h-25.81zM53.726 54.139h25.811v-2.887h-25.81zM53.726 60.669h25.811v-2.886h-25.81zM46.671 41.075h3.047V38.19H46.67zM46.671 47.607h3.047v-2.886H46.67zM46.671 54.139h3.047v-2.887H46.67zM46.671 60.669h3.047v-2.886H46.67z"/><path stroke="#8DC63F" stroke-width=".423" mask="url(#d)" d="M46.284 37.442l1.957 2.24 2.76-3.563"/><path d="M62.722 9.703c-.74 0-1.338-.6-1.338-1.34a1.339 1.339 0 1 1 1.338 1.34m8.276-5.482H66.01v-.92a3.291 3.291 0 0 0-3.29-3.294 3.291 3.291 0 0 0-3.289 3.294v.92h-4.986a4.454 4.454 0 0 0-4.451 4.457v5.362h25.454V8.678a4.454 4.454 0 0 0-4.451-4.457" fill="#37363A" mask="url(#d)"/><path fill="#8D9638" mask="url(#d)" d="M8.193 90.784l19.976 7.065-5.305 15.035H0z"/><path fill="#8FA14D" mask="url(#d)" d="M8.193 90.784l19.976 7.065-2.131 6.039-19.976-7.065z"/><path d="M9.196 94.584a1.343 1.343 0 1 1 2.535.897 1.343 1.343 0 0 1-1.715.82 1.346 1.346 0 0 1-.82-1.717" fill="#37363A" mask="url(#d)"/><path fill="#8D9638" mask="url(#d)" d="M117.255 90.784l-19.976 7.065 5.304 15.035h22.864z"/><path fill="#8FA14D" mask="url(#d)" d="M117.255 90.784l-19.976 7.065 2.13 6.039 19.977-7.065z"/><path d="M116.251 94.584a1.343 1.343 0 1 0-2.534.897 1.343 1.343 0 0 0 1.715.82 1.346 1.346 0 0 0 .82-1.717" fill="#37363A" mask="url(#d)"/><path d="M23.858 85.15l.316.228a3.34 3.34 0 0 0 4.665-.751l11.098-15.368a3.348 3.348 0 0 0-.75-4.671l-.315-.229a3.34 3.34 0 0 0-4.666.75L23.109 80.48a3.348 3.348 0 0 0 .749 4.67" fill="#E7E6E2" mask="url(#d)"/><path d="M30.23 70.616V58.884h-1.01a.813.813 0 0 0-.593.252C26.95 60.89 17.054 71.24 15.28 73.2c-.19.21-.33.46-.409.734L9.819 91.36l15.354 5.43s.246-1.153.493-2.468c.246-1.316 3.708-5.427 4.564-7.482.855-2.056 1.16-5.745 2.487-7.581 1.326-1.837-2.487-8.642-2.487-8.642" fill="#E7E6E2" mask="url(#d)"/></g><path d="M113.357 92.469l1.314-3.11a.698.698 0 0 1 .916-.372l1.698.72a.7.7 0 0 1 .37.917l-1.314 3.11a.698.698 0 0 1-.916.37l-1.697-.719a.7.7 0 0 1-.371-.916" fill="#C5232A"/><path fill="#E9D8BD" d="M85.836 76.377l-6.113.001 4.254 4.397 1.575-2.029z"/><g transform="translate(85.593 76.051)"><mask id="f" fill="#fff"><use xlink:href="#e"/></mask><path fill="#EEC85D" mask="url(#f)" d="M29.378 14.404l.62-1.466L.685.514l-.62 1.464z"/></g><g transform="translate(84.593 77.168)"><mask id="h" fill="#fff"><use xlink:href="#g"/></mask><path fill="#E2B954" mask="url(#h)" d="M.446 2.328l29.313 12.426.619-1.466L1.066.862z"/></g><g transform="translate(83.478 79.4)"><mask id="j" fill="#fff"><use xlink:href="#i"/></mask><path fill="#EEC85D" mask="url(#j)" d="M30.874 12.52L1.56.095.941 1.56l29.313 12.425z"/></g><path d="M85.32 76.724c-.117.276.155.61 0 .978a.455.455 0 0 1-.096.144l.434.184.62-1.466-.405-.172s-.436.055-.553.332" fill="#EEC85D"/><path d="M85.224 77.846c-.194.2-.52.183-.686.574-.165.39.076.613.066.892l.435.184.619-1.466-.434-.184z" fill="#E2B954"/><path d="M84.604 79.312a.485.485 0 0 1-.037.168c-.156.37-.584.406-.701.682-.117.276.147.628.147.628l.406.172.619-1.466-.434-.184z" fill="#EEC85D"/><path fill="#5C5B5A" d="M79.723 76.378l1.505 1.556.658-1.556zM113.732 93.387l1.858-4.398.598.253-1.86 4.398z"/><g fill="#E7E6E2"><path d="M95.493 95.868l.02.335a2.874 2.874 0 0 0 3.032 2.707l10.269-.59a2.875 2.875 0 0 0 2.704-3.036l-.02-.335a2.874 2.874 0 0 0-3.032-2.707l-10.27.59a2.876 2.876 0 0 0-2.703 3.036"/><path d="M93.358 91.45l.02.334a2.874 2.874 0 0 0 3.032 2.707l10.269-.59a2.875 2.875 0 0 0 2.704-3.037l-.02-.333a2.874 2.874 0 0 0-3.032-2.708l-10.27.59a2.876 2.876 0 0 0-2.703 3.036"/><path d="M90.73 87.12l.02.334a2.874 2.874 0 0 0 3.033 2.706l10.268-.59a2.875 2.875 0 0 0 2.704-3.035l-.02-.335a2.874 2.874 0 0 0-3.032-2.707l-10.27.59a2.875 2.875 0 0 0-2.702 3.036"/><path d="M92.376 79.272l-.061.33a2.876 2.876 0 0 0 2.293 3.357l10.11 1.896a2.873 2.873 0 0 0 3.353-2.296l.062-.33a2.876 2.876 0 0 0-2.295-3.357l-10.109-1.898a2.874 2.874 0 0 0-3.353 2.298"/><path d="M98.754 86.882l-3.861-5.819-2.575-1.422 14.313-.447c.22.047 16.017 11.545 17.345 13.83.144.246.228.52.25.804l1.328 18.095-15.093 5.216s-.209-1.209-.49-2.517c-.362-1.676-3.035-9.174-3.446-11.364-.41-2.188-1.744-5.134-3.348-6.732-2.097-2.092-4.423-9.644-4.423-9.644"/><path d="M111.746 100.347l.275-.277a3.35 3.35 0 0 0-.01-4.732l-13.422-13.38a3.338 3.338 0 0 0-4.725.01l-.276.277a3.348 3.348 0 0 0 .01 4.73l13.422 13.382a3.338 3.338 0 0 0 4.726-.01"/></g><g><path d="M113.357 92.469l1.314-3.11a.698.698 0 0 1 .916-.372l1.698.72a.7.7 0 0 1 .37.917l-1.314 3.11a.698.698 0 0 1-.916.37l-1.697-.719a.7.7 0 0 1-.371-.916" fill="#C5232A"/><path d="M85.836 76.377l-6.113.001 4.254 4.397 1.575-2.029z" fill="#E9D8BD"/><g transform="translate(101.319 83.867)"><mask id="l" fill="#fff"><use xlink:href="#k"/></mask><path fill="#EEC85D" mask="url(#l)" d="M13.653 6.588l.62-1.465-29.314-12.425-.62 1.465z"/></g><g transform="translate(101.319 83.867)"><mask id="n" fill="#fff"><use xlink:href="#m"/></mask><path fill="#E2B954" mask="url(#n)" d="M-16.28-4.37L13.033 8.054l.62-1.466L-15.66-5.837z"/></g><g transform="translate(101.319 83.867)"><mask id="p" fill="#fff"><use xlink:href="#o"/></mask><path fill="#EEC85D" mask="url(#p)" d="M13.033 8.054L-16.281-4.37l-.618 1.466L12.413 9.52z"/></g><path d="M85.32 76.724c-.117.276.155.61 0 .978a.455.455 0 0 1-.096.144l.434.184.62-1.466-.405-.172s-.436.055-.553.332" fill="#EEC85D"/><path d="M85.224 77.846c-.194.2-.52.183-.686.574-.165.39.076.613.066.892l.435.184.619-1.466-.434-.184z" fill="#E2B954"/><path d="M84.604 79.312a.485.485 0 0 1-.037.168c-.156.37-.584.406-.701.682-.117.276.147.628.147.628l.406.172.619-1.466-.434-.184z" fill="#EEC85D"/><path d="M79.723 76.378l1.505 1.556.658-1.556zM113.732 93.387l1.858-4.398.598.253-1.86 4.398z" fill="#5C5B5A"/></g></g></g></svg>