<svg width="30" height="30" viewBox="0 0 30 30" xmlns="http://www.w3.org/2000/svg"><g fill-rule="nonzero" fill="#0067C5"><path d="M26.25 21l-6.75-1.875c1.125-1.125 2.125-2.5 2.25-4.25.875-.25 1.375-1.25 1.375-2.375 0-.375 0-.75-.125-1l.75-4.625c0-.125.25-2.5-1.5-4.375C20.75.875 18.375 0 15 0c-3.25 0-5.75.875-7.25 2.5C6 4.5 6.25 6.875 6.25 7l.625 4.5c-.125.25-.125.625-.125 1 0 1.25.625 2.125 1.375 2.375.125 1.75 1.125 3.125 2.375 4.25L3.625 21C1.5 21.75 0 23.875 0 26.25V30h10.75L14 24.125c-.875-.375-1.5-1.25-1.5-2.25V20.5c1 .5 1.875.75 2.5.75s1.5-.25 2.5-.75v1.375c0 1-.625 1.875-1.5 2.25L19.25 30H30v-3.75c0-2.375-1.5-4.5-3.75-5.25zM15 20c-1.625 0-5.625-2.375-5.625-5.625 0-.375-.25-.625-.625-.625-.625 0-.75-.875-.75-1.25s.125-1.25.75-1.25c.25 0 .5-.25.625-.5l.5-2.625c3.25-.125 4.5-1 5.125-2 .625 1 1.875 1.875 5.125 2l.5 2.625c.125.25.375.5.625.5.625 0 .75.875.75 1.25s-.125 1.25-.75 1.25c-.375 0-.625.25-.625.625 0 3.25-4 5.625-5.625 5.625zm11.25 6.25h-4.375V25h4.375v1.25z"/><path d="M12.625 10.625h-.25c-.5 0-1 0-1.375.375-.25.25-.375.5-.375.875s.25.625.625.625.625-.25.625-.625h1.25c0 .375.25.625.625.625s.625-.25.625-.625S14.25 11.25 14 11c-.375-.375-.875-.375-1.375-.375zM17.625 10.625h-.25c-.5 0-1 0-1.375.375-.25.25-.375.5-.375.875s.25.625.625.625.625-.25.625-.625h1.25c0 .375.25.625.625.625s.625-.25.625-.625S19.25 11.25 19 11c-.375-.375-.875-.375-1.375-.375z"/></g></svg>