<svg width="30" height="31" viewBox="0 0 30 31" xmlns="http://www.w3.org/2000/svg"><g stroke="#3E3832" fill="none" fill-rule="evenodd" stroke-linejoin="round"><path d="M15.001 20.891c1.875 0 6.25-2.523 6.25-6.307 1.875 0 1.875-3.784 0-3.784l-.625-3.153c-5 0-5-1.892-5.625-2.523-.625.63-.625 2.523-5.625 2.523L8.751 10.8c-1.875 0-1.875 3.784 0 3.784 0 3.784 4.375 6.307 6.25 6.307h0z" stroke-linecap="round"/><path d="M22.487 11.748l.64-4.732S23.752.71 15.002.71 6.877 7.016 6.877 7.016l.638 4.732M11.821 19.648l-7.95 2.196a5.04 5.04 0 0 0-3.245 4.723v3.153h28.75v-3.153a5.04 5.04 0 0 0-3.245-4.723l-7.926-2.215" stroke-linecap="round"/><path d="M11.251 12.065c0-.698.559-.631 1.25-.631.692 0 1.25-.067 1.25.63M16.251 12.065c0-.698.559-.631 1.25-.631s1.25-.067 1.25.63" stroke-linecap="round"/><path d="M15.001 24.045l-3.75 5.676h7.5zM13.126 20.26v1.893c0 1.045.84 1.892 1.875 1.892a1.883 1.883 0 0 0 1.875-1.892V20.26M21.876 25.937h4.375"/></g></svg>