<svg xmlns="http://www.w3.org/2000/svg" width="24" height="24" viewBox="0 0 24 24"><path d="M17 10.026V5.5a.504.504 0 0 0-.146-.354l-5-5A.505.505 0 0 0 11.5 0H.5a.5.5 0 0 0-.5.5v21a.5.5 0 0 0 .5.5h11.014A7.454 7.454 0 0 1 10 17.5c0-3.967 3.098-7.216 7-7.474zM11.5.5l5 5h-5v-5z"/><path d="M17.5 11a6.507 6.507 0 0 0-6.5 6.5c0 3.584 2.916 6.5 6.5 6.5s6.5-2.916 6.5-6.5c0-3.585-2.916-6.5-6.5-6.5zm3.053 8.846a.5.5 0 0 1-.707.707L17.5 18.206l-2.347 2.347a.498.498 0 0 1-.708 0 .5.5 0 0 1 0-.707l2.347-2.346-2.347-2.347a.5.5 0 0 1 .707-.707l2.347 2.347 2.347-2.347a.5.5 0 0 1 .707.707L18.207 17.5l2.346 2.346z"/></svg>