<svg width="46" height="46" viewBox="0 0 46 46" xmlns="http://www.w3.org/2000/svg"><g fill="#BA3A26" fill-rule="evenodd"><path d="M1.917 1.917h19.166v8.625c0 .529.43.958.959.958h8.625v6.708h1.916V10.542c0-.104-.028-.196-.057-.288-.008-.025-.006-.052-.016-.075a.963.963 0 0 0-.22-.324L22.72.284a.948.948 0 0 0-.31-.207.924.924 0 0 0-.368-.077H.958A.959.959 0 0 0 0 .958v40.25c0 .53.43.959.958.959h19.167V40.25H1.917V1.917zM23 3.272l6.31 6.311H23V3.272z"/><path d="M33.542 21.083c-6.87 0-12.459 5.59-12.459 12.459S26.673 46 33.542 46 46 40.411 46 33.542c0-6.87-5.589-12.459-12.458-12.459zm0 23C27.728 44.083 23 39.353 23 33.542 23 27.73 27.728 23 33.542 23c5.813 0 10.541 4.73 10.541 10.542 0 5.811-4.728 10.541-10.541 10.541z"/><path d="M39.393 27.69a.959.959 0 0 0-1.355 0l-4.498 4.497-4.497-4.497a.959.959 0 0 0-1.355 1.355l4.497 4.497-4.497 4.496a.959.959 0 0 0 1.357 1.355l4.497-4.496 4.498 4.496a.963.963 0 0 0 1.357 0 .959.959 0 0 0 0-1.355l-4.5-4.496 4.496-4.497a.959.959 0 0 0 0-1.355z"/></g></svg>