<svg width="102" height="101" viewBox="0 0 102 101" xmlns="http://www.w3.org/2000/svg"><g fill="none" fill-rule="evenodd"><path d="M50.996 1C23.478 1 1.052 23.275 1 50.66.974 63.952 6.148 76.457 15.574 85.877c9.426 9.415 21.974 14.616 35.33 14.642H51c27.513 0 49.943-22.28 50-49.669C101.052 23.418 78.665 1.052 50.996 1z" fill="#EFEFEF" fill-rule="nonzero"/><path d="M75.774 70.25L51.961 22.554c-.369-.737-1.577-.737-1.944 0L26.115 70.425A1.087 1.087 0 0 0 27.089 72h47.825a1.089 1.089 0 0 0 .86-1.75zm-25.87-30.559a1.088 1.088 0 1 1 2.173 0v16.653a1.09 1.09 0 0 1-1.087 1.088c-.6 0-1.086-.49-1.086-1.088V39.69zm1.086 26.016a2.082 2.082 0 0 1 0-4.163c1.145 0 2.077.936 2.077 2.083 0 1.151-.932 2.08-2.077 2.08z" fill="#A13A28"/></g></svg>