<svg width="24" height="24" viewBox="0 0 24 24" xmlns="http://www.w3.org/2000/svg"><path d="M12 .876C5.383.876 0 5.31 0 10.759c0 2.573 1.177 4.985 3.325 6.831l-2.41 4.812a.499.499 0 0 0 .658.676l6.437-2.996a14.31 14.31 0 0 0 3.99.561c6.617 0 12-4.434 12-9.884C24 5.31 18.617.876 12 .876zm0 18.767a13.27 13.27 0 0 1-3.883-.572.5.5 0 0 0-.357.025l-5.308 2.471 1.946-3.884a.5.5 0 0 0-.135-.614C2.159 15.386 1 13.145 1 10.759c0-4.898 4.935-8.883 11-8.883s11 3.985 11 8.883-4.935 8.884-11 8.884z" fill-rule="nonzero" fill="#3E3832"/></svg>