<svg width="32" height="32" viewBox="0 0 32 32" xmlns="http://www.w3.org/2000/svg"><g fill="#3E3832" fill-rule="evenodd"><path d="M16 21.333h5.333v4H16zM9.333 21.333h5.333v4H9.333zM16 16h5.333v4H16zM9.333 16h5.333v4H9.333z"/><path d="M0 31.333c0 .368.299.667.667.667h30.666a.667.667 0 0 0 .667-.667V10.667H0v20.666zM31.333 2.667h-4.666v-2A.667.667 0 0 0 26 0h-4a.667.667 0 0 0-.667.667v2H10.667v-2A.667.667 0 0 0 10 0H6a.667.667 0 0 0-.667.667v2H.667A.667.667 0 0 0 0 3.333v6h32v-6a.667.667 0 0 0-.667-.666zm-22 2.666H6.667v-4h2.666v4zm16 0h-2.666v-4h2.666v4z"/></g></svg>