<svg width="176" height="136" viewBox="0 0 176 136" xmlns="http://www.w3.org/2000/svg" xmlns:xlink="http://www.w3.org/1999/xlink"><defs><path d="M.44 66.33c0 36.529 29.712 66.141 66.363 66.141 36.65 0 66.363-29.612 66.363-66.14 0-36.528-29.712-66.14-66.363-66.14C30.152.19.44 29.802.44 66.33z" id="a"/><path id="c" d="M0 135.227h175.99V.525H0z"/></defs><g fill="none" fill-rule="evenodd"><path d="M-248-39h640v458h-640V-39z" fill="#FFF"/><path d="M50.126 31.35l-.577 1.263a1.422 1.422 0 0 1-1.88.701l-.033-.015a1.413 1.413 0 0 1-.703-1.873l.577-1.264a1.422 1.422 0 0 1 1.88-.7l.033.015a1.413 1.413 0 0 1 .703 1.874" fill="#C3232A"/><path fill="#E8D7BC" d="M84.93 50.234l5.422.145-3.668-3.982-1.445 1.753z"/><path fill="#EDC55C" d="M48.978 32.364l-.585 1.279 36.15 16.415.584-1.279z"/><path fill="#E1B754" d="M85.712 47.5L49.563 31.085l-.585 1.28 36.15 16.413z"/><path fill="#EDC55C" d="M49.563 31.085L85.712 47.5l.585-1.28-36.15-16.414zM85.396 49.94c.11-.24-.123-.541.024-.863a.407.407 0 0 1 .088-.125l-.38-.173-.585 1.279.355.161s.388-.038.498-.279"/><path d="M85.508 48.952c.177-.173.466-.15.622-.49.156-.341-.052-.543-.037-.79l-.381-.172-.585 1.279.38.173z" fill="#E1B754"/><path d="M86.093 47.672a.41.41 0 0 1 .037-.148c.146-.321.527-.343.637-.585.111-.241-.115-.557-.115-.557l-.355-.162-.585 1.28.38.172z" fill="#EDC55C"/><path fill="#5D5C5A" d="M90.352 50.379l-1.298-1.41-.621 1.359zM50.148 29.806l-1.755 3.837-.523-.237 1.754-3.838z"/><g transform="translate(1.775 1.794)"><path d="M30.712 55.458h72.183c3.866 0 7.001 3.067 7.001 6.844v35.191c0 3.781-3.135 6.844-7.001 6.844H30.712c-3.868 0-7.002-3.063-7.002-6.844V62.302c0-3.777 3.134-6.844 7.002-6.844z" fill="#585B5C"/><path d="M30.389 65.245h3.034c.63 0 1.14.508 1.14 1.138v1.69a1.14 1.14 0 0 1-1.14 1.14h-3.034a1.14 1.14 0 0 1-1.142-1.14v-1.69c0-.63.511-1.138 1.142-1.138M36.677 65.245h3.035c.631 0 1.141.508 1.141 1.138v1.69c0 .63-.51 1.14-1.141 1.14h-3.035a1.14 1.14 0 0 1-1.139-1.14v-1.69c0-.63.512-1.138 1.14-1.138M42.97 65.245h3.032c.63 0 1.142.508 1.142 1.138v1.69c0 .63-.511 1.14-1.142 1.14H42.97a1.14 1.14 0 0 1-1.143-1.14v-1.69c0-.63.511-1.138 1.143-1.138M49.259 65.245h3.035c.628 0 1.14.508 1.14 1.138v1.69c0 .63-.512 1.14-1.14 1.14h-3.035a1.14 1.14 0 0 1-1.142-1.14v-1.69c0-.63.512-1.138 1.142-1.138M55.55 65.245h3.033c.63 0 1.142.508 1.142 1.138v1.69a1.14 1.14 0 0 1-1.142 1.14H55.55a1.14 1.14 0 0 1-1.142-1.14v-1.69c0-.63.511-1.138 1.142-1.138M61.84 65.245h3.032c.63 0 1.142.508 1.142 1.138v1.69a1.14 1.14 0 0 1-1.142 1.14H61.84a1.14 1.14 0 0 1-1.141-1.14v-1.69c0-.63.512-1.138 1.141-1.138M68.13 65.245h3.033c.63 0 1.141.508 1.141 1.138v1.69a1.14 1.14 0 0 1-1.141 1.14h-3.034a1.14 1.14 0 0 1-1.141-1.14v-1.69c0-.63.511-1.138 1.141-1.138M74.419 65.245h3.034c.63 0 1.14.508 1.14 1.138v1.69c0 .63-.51 1.14-1.14 1.14h-3.034a1.14 1.14 0 0 1-1.142-1.14v-1.69c0-.63.512-1.138 1.142-1.138M80.708 65.245h3.034c.63 0 1.142.508 1.142 1.138v1.69a1.14 1.14 0 0 1-1.142 1.14h-3.034a1.14 1.14 0 0 1-1.14-1.14v-1.69c0-.63.512-1.138 1.14-1.138M86.998 65.245h3.034c.63 0 1.141.508 1.141 1.138v1.69c0 .63-.51 1.14-1.141 1.14h-3.034a1.14 1.14 0 0 1-1.141-1.14v-1.69c0-.63.512-1.138 1.141-1.138M93.288 65.245h9.323c.63 0 1.14.508 1.14 1.138v1.69c0 .63-.51 1.14-1.14 1.14h-9.323a1.14 1.14 0 0 1-1.14-1.14v-1.69c0-.63.511-1.138 1.14-1.138M30.389 71.455h3.034c.63 0 1.14.508 1.14 1.136v1.692a1.14 1.14 0 0 1-1.14 1.138h-3.034a1.14 1.14 0 0 1-1.142-1.138v-1.692a1.14 1.14 0 0 1 1.142-1.136M36.677 71.455h3.035c.631 0 1.141.508 1.141 1.136v1.692c0 .63-.51 1.138-1.141 1.138h-3.035a1.139 1.139 0 0 1-1.139-1.138v-1.692c0-.628.512-1.136 1.14-1.136M42.97 71.455h3.032c.63 0 1.142.508 1.142 1.136v1.692c0 .63-.511 1.138-1.142 1.138H42.97a1.14 1.14 0 0 1-1.143-1.138v-1.692c0-.628.511-1.136 1.143-1.136M49.259 71.455h3.035c.628 0 1.14.508 1.14 1.136v1.692c0 .63-.512 1.138-1.14 1.138h-3.035a1.14 1.14 0 0 1-1.142-1.138v-1.692a1.14 1.14 0 0 1 1.142-1.136M55.55 71.455h3.033c.63 0 1.142.508 1.142 1.136v1.692a1.14 1.14 0 0 1-1.142 1.138H55.55c-.63 0-1.142-.508-1.142-1.138v-1.692c0-.628.511-1.136 1.142-1.136M61.84 71.455h3.032c.63 0 1.142.508 1.142 1.136v1.692a1.14 1.14 0 0 1-1.142 1.138H61.84a1.14 1.14 0 0 1-1.141-1.138v-1.692c0-.628.512-1.136 1.141-1.136M68.13 71.455h3.033c.63 0 1.141.508 1.141 1.136v1.692a1.14 1.14 0 0 1-1.141 1.138h-3.034a1.14 1.14 0 0 1-1.141-1.138v-1.692c0-.628.511-1.136 1.141-1.136M74.419 71.455h3.034c.63 0 1.14.508 1.14 1.136v1.692c0 .63-.51 1.138-1.14 1.138h-3.034a1.14 1.14 0 0 1-1.142-1.138v-1.692c0-.628.512-1.136 1.142-1.136M80.708 71.455h3.034c.63 0 1.142.508 1.142 1.136v1.692a1.14 1.14 0 0 1-1.142 1.138h-3.034a1.14 1.14 0 0 1-1.14-1.138v-1.692a1.14 1.14 0 0 1 1.14-1.136M86.998 71.455h3.034c.63 0 1.141.508 1.141 1.136v1.692c0 .63-.51 1.138-1.141 1.138h-3.034a1.14 1.14 0 0 1-1.141-1.138v-1.692c0-.628.512-1.136 1.141-1.136M93.288 71.455h3.034c.63 0 1.142.508 1.142 1.136v1.692a1.14 1.14 0 0 1-1.142 1.138h-3.034c-.629 0-1.14-.508-1.14-1.138v-1.692c0-.628.511-1.136 1.14-1.136M99.579 71.455h3.033c.63 0 1.142.508 1.142 1.136v1.692a1.14 1.14 0 0 1-1.142 1.138h-3.033a1.14 1.14 0 0 1-1.143-1.138v-1.692a1.14 1.14 0 0 1 1.143-1.136M30.389 77.666h3.034c.63 0 1.14.507 1.14 1.135v1.692c0 .628-.51 1.139-1.14 1.139h-3.034c-.63 0-1.142-.51-1.142-1.139v-1.692c0-.628.511-1.135 1.142-1.135M36.677 77.666h3.035c.631 0 1.141.507 1.141 1.135v1.692a1.14 1.14 0 0 1-1.141 1.139h-3.035a1.14 1.14 0 0 1-1.139-1.139v-1.692c0-.628.512-1.135 1.14-1.135M42.97 77.666h3.032c.63 0 1.142.507 1.142 1.135v1.692a1.14 1.14 0 0 1-1.142 1.139H42.97c-.632 0-1.143-.51-1.143-1.139v-1.692c0-.628.511-1.135 1.143-1.135M49.259 77.666h3.035c.628 0 1.14.507 1.14 1.135v1.692a1.14 1.14 0 0 1-1.14 1.139h-3.035c-.63 0-1.142-.51-1.142-1.139v-1.692c0-.628.512-1.135 1.142-1.135M55.55 77.666h3.033c.63 0 1.142.507 1.142 1.135v1.692c0 .628-.512 1.139-1.142 1.139H55.55a1.14 1.14 0 0 1-1.142-1.139v-1.692c0-.628.511-1.135 1.142-1.135M61.84 77.666h3.032c.63 0 1.142.507 1.142 1.135v1.692c0 .628-.512 1.139-1.142 1.139H61.84c-.63 0-1.141-.51-1.141-1.139v-1.692c0-.628.512-1.135 1.141-1.135M68.13 77.666h3.033c.63 0 1.141.507 1.141 1.135v1.692c0 .628-.512 1.139-1.141 1.139h-3.034c-.63 0-1.141-.51-1.141-1.139v-1.692c0-.628.511-1.135 1.141-1.135M74.419 77.666h3.034c.63 0 1.14.507 1.14 1.135v1.692a1.14 1.14 0 0 1-1.14 1.139h-3.034c-.63 0-1.142-.51-1.142-1.139v-1.692c0-.628.512-1.135 1.142-1.135M80.708 77.666h3.034c.63 0 1.142.507 1.142 1.135v1.692c0 .628-.512 1.139-1.142 1.139h-3.034c-.628 0-1.14-.51-1.14-1.139v-1.692c0-.628.512-1.135 1.14-1.135M86.998 77.666h3.034c.63 0 1.141.507 1.141 1.135v1.692a1.14 1.14 0 0 1-1.141 1.139h-3.034c-.63 0-1.141-.51-1.141-1.139v-1.692c0-.628.512-1.135 1.141-1.135M93.288 77.666h3.034c.63 0 1.142.507 1.142 1.135v1.692c0 .628-.512 1.139-1.142 1.139h-3.034a1.14 1.14 0 0 1-1.14-1.139v-1.692c0-.628.511-1.135 1.14-1.135M99.579 77.666h3.033c.63 0 1.142.507 1.142 1.135v1.692c0 .628-.513 1.139-1.142 1.139h-3.033c-.63 0-1.143-.51-1.143-1.139v-1.692c0-.628.513-1.135 1.143-1.135M30.389 83.875h3.034c.63 0 1.14.506 1.14 1.136v1.692c0 .628-.51 1.139-1.14 1.139h-3.034c-.63 0-1.142-.511-1.142-1.139v-1.692c0-.63.511-1.136 1.142-1.136M36.677 83.875h3.035c.631 0 1.141.506 1.141 1.136v1.692a1.14 1.14 0 0 1-1.141 1.139h-3.035a1.14 1.14 0 0 1-1.139-1.139v-1.692c0-.63.512-1.136 1.14-1.136M42.97 83.875h3.032c.63 0 1.142.506 1.142 1.136v1.692a1.14 1.14 0 0 1-1.142 1.139H42.97a1.14 1.14 0 0 1-1.143-1.139v-1.692c0-.63.511-1.136 1.143-1.136M49.259 83.875h3.035c.628 0 1.14.506 1.14 1.136v1.692a1.14 1.14 0 0 1-1.14 1.139h-3.035c-.63 0-1.142-.511-1.142-1.139v-1.692c0-.63.512-1.136 1.142-1.136M55.55 83.875h3.033c.63 0 1.142.506 1.142 1.136v1.692c0 .628-.512 1.139-1.142 1.139H55.55a1.14 1.14 0 0 1-1.142-1.139v-1.692c0-.63.511-1.136 1.142-1.136M61.84 83.875h3.032c.63 0 1.142.506 1.142 1.136v1.692c0 .628-.512 1.139-1.142 1.139H61.84c-.63 0-1.141-.511-1.141-1.139v-1.692c0-.63.512-1.136 1.141-1.136M68.13 83.875h3.033c.63 0 1.141.506 1.141 1.136v1.692c0 .628-.512 1.139-1.141 1.139h-3.034c-.63 0-1.141-.511-1.141-1.139v-1.692c0-.63.511-1.136 1.141-1.136M74.419 83.875h3.034c.63 0 1.14.506 1.14 1.136v1.692a1.14 1.14 0 0 1-1.14 1.139h-3.034c-.63 0-1.142-.511-1.142-1.139v-1.692c0-.63.512-1.136 1.142-1.136M80.708 83.875h3.034c.63 0 1.142.506 1.142 1.136v1.692c0 .628-.512 1.139-1.142 1.139h-3.034c-.628 0-1.14-.511-1.14-1.139v-1.692c0-.63.512-1.136 1.14-1.136M86.998 83.875h3.034c.63 0 1.141.506 1.141 1.136v1.692a1.14 1.14 0 0 1-1.141 1.139h-3.034c-.63 0-1.141-.511-1.141-1.139v-1.692c0-.63.512-1.136 1.141-1.136M93.288 83.875h3.034c.63 0 1.142.506 1.142 1.136v1.692c0 .628-.512 1.139-1.142 1.139h-3.034a1.14 1.14 0 0 1-1.14-1.139v-1.692c0-.63.511-1.136 1.14-1.136M99.579 83.875h3.033c.63 0 1.142.506 1.142 1.136v1.692c0 .628-.513 1.139-1.142 1.139h-3.033c-.63 0-1.143-.511-1.143-1.139v-1.692c0-.63.513-1.136 1.143-1.136M30.389 90.083h3.034c.63 0 1.14.508 1.14 1.138v1.691a1.14 1.14 0 0 1-1.14 1.14h-3.034a1.14 1.14 0 0 1-1.142-1.14v-1.691c0-.63.511-1.138 1.142-1.138M36.677 90.083h3.035c.631 0 1.141.508 1.141 1.138v1.691a1.14 1.14 0 0 1-1.141 1.14h-3.035a1.14 1.14 0 0 1-1.139-1.14v-1.691c0-.63.512-1.138 1.14-1.138M42.97 90.083h3.032a1.14 1.14 0 0 1 1.142 1.138v1.691a1.14 1.14 0 0 1-1.142 1.14H42.97a1.14 1.14 0 0 1-1.143-1.14v-1.691c0-.63.511-1.138 1.143-1.138M49.259 90.083h3.035c.628 0 1.14.508 1.14 1.138v1.691a1.14 1.14 0 0 1-1.14 1.14h-3.035a1.14 1.14 0 0 1-1.142-1.14v-1.691c0-.63.512-1.138 1.142-1.138M80.708 90.083h3.034c.63 0 1.142.508 1.142 1.138v1.691c0 .63-.512 1.14-1.142 1.14h-3.034c-.628 0-1.14-.51-1.14-1.14v-1.691c0-.63.512-1.138 1.14-1.138M86.998 90.083h3.034c.63 0 1.141.508 1.141 1.138v1.691a1.14 1.14 0 0 1-1.141 1.14h-3.034a1.14 1.14 0 0 1-1.141-1.14v-1.691c0-.63.512-1.138 1.141-1.138M93.288 90.083h3.034c.63 0 1.142.508 1.142 1.138v1.691a1.14 1.14 0 0 1-1.142 1.14h-3.034a1.14 1.14 0 0 1-1.14-1.14v-1.691c0-.63.511-1.138 1.14-1.138M99.579 90.083h3.033c.63 0 1.142.508 1.142 1.138v1.691c0 .63-.513 1.14-1.142 1.14h-3.033c-.63 0-1.143-.51-1.143-1.14v-1.691c0-.63.513-1.138 1.143-1.138M55.55 90.083h21.91a1.14 1.14 0 0 1 1.142 1.138v1.691a1.14 1.14 0 0 1-1.142 1.14H55.55a1.14 1.14 0 0 1-1.142-1.14v-1.691c0-.63.511-1.138 1.142-1.138" fill="#37363A"/><path d="M39.265 83.884c-1.04 0-1.882.84-1.882 1.874v27.029c0 1.035.842 1.875 1.882 1.875 1.038 0 1.88-.84 1.88-1.876V85.758a1.878 1.878 0 0 0-1.88-1.874M43.394 81.557a1.877 1.877 0 0 0-1.88 1.874v27.026c0 1.037.842 1.876 1.88 1.876 1.04 0 1.882-.84 1.882-1.876V83.431a1.877 1.877 0 0 0-1.882-1.874M47.526 79.863a1.88 1.88 0 0 0-1.882 1.876v27.027c0 1.035.843 1.875 1.882 1.875 1.04 0 1.881-.84 1.881-1.875V81.739a1.879 1.879 0 0 0-1.88-1.876M51.657 82.077c-1.038 0-1.88.841-1.88 1.877v19.524c0 1.036.842 1.875 1.88 1.875 1.04 0 1.882-.839 1.882-1.875V83.954a1.88 1.88 0 0 0-1.882-1.877" fill="#E6E5E2"/><path d="M39.513 117.948v-2.329c0-.637-1.113-1.168-1.113-1.168l2.317-18.708h10.94l1.883 6.143s.461.14.92-.564c.461-.708 1.844-4.026 1.844-4.026s1.84-3.917 3.542-3.211c1.699.705.92 3.282.92 3.282s-.866 4.063-1.347 6c-.606 2.452-2.018 4.944-3.187 6.781-1.169 1.834-3.4 4.514-4.18 4.514l-.178 3.286h-12.36z" fill="#E6E5E2"/><mask id="b" fill="#fff"><use xlink:href="#a"/></mask><path fill="#0B546F" mask="url(#b)" d="M37.275 131.568h16.74v-13.62h-16.74z"/><path fill="#6F9BA9" mask="url(#b)" d="M37.275 122.986h16.74v-5.038h-16.74z"/><path d="M39.02 120.504a1.062 1.062 0 0 1 2.125 0 1.063 1.063 0 0 1-2.125 0" fill="#37363A" mask="url(#b)"/><path d="M94.729 83.884c1.04 0 1.882.84 1.882 1.874v27.029a1.878 1.878 0 0 1-1.882 1.875c-1.038 0-1.88-.84-1.88-1.876V85.758c0-1.035.842-1.874 1.88-1.874M90.6 81.557c1.038 0 1.88.838 1.88 1.874v27.026a1.878 1.878 0 0 1-1.88 1.876c-1.04 0-1.883-.84-1.883-1.876V83.431c0-1.036.843-1.874 1.883-1.874M86.468 79.863a1.88 1.88 0 0 1 1.881 1.876v27.027a1.878 1.878 0 0 1-1.881 1.875 1.878 1.878 0 0 1-1.881-1.875V81.739c0-1.035.842-1.876 1.88-1.876M82.336 82.077c1.04 0 1.881.841 1.881 1.877v19.524a1.878 1.878 0 0 1-1.88 1.875c-1.04 0-1.882-.839-1.882-1.875V83.954a1.88 1.88 0 0 1 1.881-1.877" fill="#E6E5E2" mask="url(#b)"/><path d="M94.48 117.948v-2.329c0-.637 1.114-1.168 1.114-1.168l-2.317-18.708h-10.94l-1.883 6.143s-.461.14-.92-.564c-.461-.708-1.844-4.026-1.844-4.026s-1.84-3.917-3.542-3.211c-1.7.705-.92 3.282-.92 3.282s.866 4.063 1.347 6c.605 2.452 2.018 4.944 3.187 6.781 1.169 1.834 3.4 4.514 4.18 4.514l.178 3.286h12.36z" fill="#E6E5E2" mask="url(#b)"/><path fill="#0B546F" mask="url(#b)" d="M79.98 131.568h16.739v-13.62h-16.74z"/><path fill="#6F9BA9" mask="url(#b)" d="M79.98 122.986h16.739v-5.038h-16.74z"/><path d="M94.974 120.504a1.062 1.062 0 0 0-2.125 0 1.063 1.063 0 0 0 2.125 0" fill="#37363A" mask="url(#b)"/></g><g transform="translate(1 .248)"><path d="M133.942 67.876c0 36.528-29.713 66.14-66.363 66.14-36.652 0-66.364-29.612-66.364-66.14 0-36.528 29.712-66.14 66.364-66.14 36.65 0 66.363 29.612 66.363 66.14h0z" stroke="#BCCFCF" stroke-width="3.134"/><path d="M36.132 46.364l-6.005-2.368a1.944 1.944 0 0 1-1.095-2.518l.718-1.806a1.955 1.955 0 0 1 2.526-1.09l6.005 2.367a1.944 1.944 0 0 1 1.094 2.519l-.716 1.806a1.955 1.955 0 0 1-2.527 1.09" fill="#C0BFB8"/><path d="M31.796 40.785c-3.027 8.212-12.16 12.424-20.4 9.407-8.24-3.017-12.466-12.12-9.439-20.331 3.027-8.213 12.16-12.424 20.4-9.407 8.24 3.017 12.466 12.12 9.439 20.331" fill="#C0BFB8"/><path d="M28.343 39.521c-2.326 6.312-9.346 9.55-15.68 7.23-6.332-2.318-9.58-9.315-7.254-15.626 2.327-6.312 9.347-9.55 15.68-7.23 6.333 2.318 9.581 9.314 7.254 15.626" fill="#2D2622"/><path d="M16.464 21.905l.04 1.245-.04-1.245c-5.523.17-10.322 3.62-12.228 8.79-2.56 6.946 1.027 14.674 7.997 17.225 1.632.598 3.333.873 5.056.82 5.523-.17 10.322-3.62 12.227-8.79 2.561-6.946-1.026-14.673-7.997-17.225a13.432 13.432 0 0 0-5.055-.82m.038 1.245c1.52-.047 3.072.19 4.587.744 6.333 2.319 9.58 9.315 7.254 15.627-1.77 4.802-6.258 7.825-11.093 7.974-1.52.047-3.071-.189-4.586-.744-6.333-2.318-9.581-9.314-7.255-15.627 1.77-4.802 6.258-7.824 11.093-7.974" fill="#A4A49E"/><path d="M19.483 26.303c1.85-.057 3.606.326 5.187 1.035a11.113 11.113 0 0 0-8.092-3.133c-6.146.19-10.974 5.31-10.783 11.435a11.036 11.036 0 0 0 3.609 7.832 11.638 11.638 0 0 1-1.34-5.062c-.2-6.485 4.912-11.906 11.42-12.107" fill="#6B625E"/><path d="M5.409 31.124c1.77-4.802 6.258-7.824 11.093-7.974a12.22 12.22 0 0 1 4.586.744c.644.236 1.246.53 1.823.858.91.024 1.8.134 2.66.322a13.415 13.415 0 0 0-4.052-2.35 13.432 13.432 0 0 0-5.055-.819l.04 1.245-.04-1.245h-.001c-5.523.17-10.322 3.621-12.227 8.79-2.418 6.56.649 13.815 6.868 16.751a14.168 14.168 0 0 1-1.396-2.275c-4.317-3.118-6.228-8.813-4.3-14.047" fill="#FFF"/><path d="M124.71 87.26c-.702-.7-4.022-3.104-3.32-3.803l-1.126-3.551 26.59-22.707c.704-.7 1.841-.7 2.544 0l26.59 22.707-6.024 12.991c.701.7-22.02 12.291-22.723 12.992L124.71 87.26z" fill="#08566F"/><path d="M170.548 104.112h-44.844a.558.558 0 0 1-.558-.557v-30.14c0-.306.25-.555.558-.555h44.844c.308 0 .557.25.557.555v30.14a.558.558 0 0 1-.557.557" fill="#DBDBD1"/><mask id="d" fill="#fff"><use xlink:href="#c"/></mask><path fill="#8E9294" mask="url(#d)" d="M134.076 86.719h28.1v-2.204h-28.1zM134.076 91.704h28.1V89.5h-28.1zM134.076 96.691h28.1v-2.205h-28.1zM134.076 101.677h28.1v-2.202h-28.1z"/><path d="M122.367 116.919h45.364c1.162 0-47.468-37.014-47.468-37.014v34.917c0 1.157.942 2.097 2.104 2.097" fill="#D84B55" mask="url(#d)"/><path d="M173.885 116.919h-45.363c-1.163 0 47.467-37.014 47.467-37.014v34.917a2.1 2.1 0 0 1-2.104 2.097" fill="#C42B34" mask="url(#d)"/></g></g></svg>