<svg width="72" height="72" viewBox="0 0 72 72" xmlns="http://www.w3.org/2000/svg" xmlns:xlink="http://www.w3.org/1999/xlink"><defs><circle id="a" cx="36" cy="36" r="36"/></defs><g fill="none" fill-rule="evenodd"><mask id="b" fill="#fff"><use xlink:href="#a"/></mask><use fill="#AFE3F7" xlink:href="#a"/><g mask="url(#b)"><path d="M53.697 32.827h-.034c0-10.533-7.633-19.071-17.048-19.071s-17.048 8.538-17.048 19.07v.01c-.003 8.995-4.662 14.137-4.662 14.137s4.6 5.62 21.71 5.62l.017-.001h.017c17.11 0 21.71-5.619 21.71-5.619s-4.662-5.146-4.662-14.146" fill="#E57F68"/><path d="M41.84 46.532H31.425c-2.808 0-12.041 5.786-12.041 11.174v14.175H53.88V57.706c0-5.388-9.233-11.174-12.04-11.174" fill="#624B7F"/><path d="M51.655 30.604a1.12 1.12 0 0 0-1.508-.85 1.22 1.22 0 0 1-.048.004c-4.166-5.643-12.288-.437-18.487-5.825-.795-.844-1.209-1.43-1.318-1.43 0 0-6.012 5.186-7.013 7.173 0 0-.071.142-.162.077a1.12 1.12 0 0 0-1.51.85 1.104 1.104 0 0 0-.04.278v4.521a1.123 1.123 0 0 0 1.79.9c.983 4.474 3.599 8.18 7.058 10.234-.962.4-2.446 1.181-2.446 1.181.706 1.032 2.712 5.831 8.658 5.831s7.957-4.799 8.664-5.83c0 0-1.294-.707-2.386-1.216 3.43-2.063 6.02-5.752 6.999-10.2a1.123 1.123 0 0 0 1.789-.9v-4.52c0-.097-.017-.189-.04-.278" fill="#E7E5E2"/><path d="M49.95 66.955H39.266a.86.86 0 0 1-.863-.859v-5.714a.86.86 0 0 1 .863-.86H49.95c.477 0 .863.385.863.86v5.714a.86.86 0 0 1-.863.859" fill="#D2242A"/><path d="M47.422 63.366a2.716 2.716 0 0 1-2.722 2.71 2.717 2.717 0 0 1-2.724-2.71 2.717 2.717 0 0 1 2.724-2.71 2.716 2.716 0 0 1 2.722 2.71M41.173 64.56h-.532l.568-1.384h.532zM47.866 64.56h-.329l.568-1.384h.329zM48.775 64.56h-.14l.567-1.384h.139z" fill="#FFF"/><path d="M42.632 64.554h.418a.037.037 0 0 0 .038-.038v-1.295a.037.037 0 0 0-.038-.038h-.423a.048.048 0 0 0-.048.05l-.166.407a.033.033 0 0 0 .028.046h.12c.018 0 .033.014.033.033v.797c0 .021.017.038.038.038" fill="#C52D35"/><path d="M43.54 64.554h.42c.021 0 .04-.017.04-.038v-1.295c0-.021-.019-.038-.04-.038h-.653a.049.049 0 0 0-.049.05l-.167.407-.057.046h.333c.075 0 .135.059.135.134v.696c0 .021.017.038.038.038M45.415 63.183h-.42a.038.038 0 0 0-.038.038v1.295c0 .021.018.038.039.038h.423a.048.048 0 0 0 .049-.05l.166-.407c.01-.022-.006-.046-.031-.046h-.116a.032.032 0 0 1-.032-.033v-.797c0-.021-.02-.038-.04-.038" fill="#C52D35"/><path d="M43.69 64.554h.276a.049.049 0 0 0 .048-.049l.167-.409a.033.033 0 0 0-.031-.046h-.116l-.344.504zM46.537 63.183h.498c.025 0 .042.023.032.046l-.528 1.304c-.004.013-.016.02-.03.02h-.452l.447-1.347a.035.035 0 0 1 .033-.023" fill="#C52D35"/><path d="M45.912 63.183h-.705c-.05 0 .202.049.22.094l.499 1.233c.01.028.036.044.064.044h.427l-.44-1.324a.068.068 0 0 0-.065-.047M44.559 63.183c.233 0 .432.16.432.44 0 .276-.035.292-.035.292s-.04-.264-.245-.264c-.201 0-.247.117-.247.204 0 .101.103.196.16.196h.367l-.216.477a.044.044 0 0 1-.04.026h-.167c-.175 0-.63-.228-.63-.669 0-.44.338-.702.62-.702" fill="#C52D35"/><path d="M45.31 60.297h-1.156a.154.154 0 0 1-.154-.154v-.194c0-.084.069-.154.154-.154h1.156c.086 0 .155.07.155.154v.194a.154.154 0 0 1-.155.154" fill="#5A1F57"/><path fill="#835184" d="M44.398 60.095h.67V58.1h-.67z"/></g><g><path d="M31.172 32.742c-1.042.079-1.334-1.457-1.02-2.46.06-.19.404-1.055 1.015-1.055.61 0 .879.473.916.554.449.978.228 2.875-.911 2.961M42.8 32.742c1.041.079 1.333-1.457 1.019-2.46-.06-.19-.404-1.055-1.015-1.055-.61 0-.879.473-.916.554-.449.978-.228 2.875.911 2.961" fill="#635E59"/><path d="M37.261 34.152c.622-.095 1.23-.072 1.515.277.695.854.495 1.84-.675 2.568-.584.364-1.412.513-1.92.288" stroke="#D1BFA3" stroke-width=".506" stroke-linecap="round"/><path d="M41.75 39.901s-1.317 3.015-4.979 2.903c-3.661-.113-5.035-2.903-5.035-2.903" stroke="#D19E9C" stroke-width=".8" stroke-linecap="round"/></g></g></svg>