<svg version="1.1" id="Filled_Version" xmlns="http://www.w3.org/2000/svg" x="0" y="0" viewBox="0 0 24 24" xml:space="preserve"><style>.st0{fill:#0ca9e1}</style><circle class="st0" cx="7.5" cy="20" r="1"/><path class="st0" d="M17.5 15.4V17c1.7.1 2 .7 2 2v1.6c0 .7-.7 1.4-1.5 1.4-.3 0-.5-.2-.5-.5s.2-.5.5-.5c.2 0 .5-.3.5-.4V19c0-.9 0-1-1.5-1s-1.5.1-1.5 1v1.6c0 .1.3.4.5.4.3 0 .5.2.5.5s-.2.5-.5.5c-.8 0-1.5-.7-1.5-1.4V19c0-1.3.3-1.9 2-2v-1.7-.1c-.3 0-.5-.1-.8-.1.9-.8 1.6-1.9 1.7-3.3.7-.2 1.1-1 1.1-1.9 0-.3 0-.5-.1-.8l.6-3.6c0-.1.2-2-1.2-3.5C16.6.7 14.7 0 12 0S7.5.7 6.3 2C4.8 3.6 5 5.5 5 5.6l.5 3.7c-.1.2-.1.4-.1.7 0 1 .5 1.7 1.1 1.9.1 1.3.8 2.4 1.7 3.2h-.3v2.8c.9.2 1.5 1 1.5 1.9 0 1.1-.9 2-2 2s-2-.9-2-2c0-.9.6-1.7 1.5-1.9v-2.7c-3.5.5-7 1.1-7 4.9V24h11.5v-6c0-.3.2-.5.5-.5s.5.2.5.5v6H24v-3.8c0-3.6-3.1-4.3-6.5-4.8zM12 16c-1.3 0-4.5-1.9-4.5-4.5 0-.3-.2-.5-.5-.5-.5 0-.6-.7-.6-1s.1-1 .6-1c.2 0 .4-.2.5-.4l.4-2.1c2.6-.1 3.6-.8 4.1-1.6.5.8 1.5 1.5 4.1 1.6l.4 2.1c.1.2.3.4.5.4.5 0 .6.7.6 1s-.1 1-.6 1c-.3 0-.5.2-.5.5 0 2.6-3.2 4.5-4.5 4.5z"/><path class="st0" d="M10.1 8.5h-.2c-.4 0-.8 0-1.1.3-.2.2-.3.4-.3.7 0 .3.2.5.5.5s.5-.2.5-.5h1c0 .3.2.5.5.5s.5-.2.5-.5-.1-.5-.3-.7c-.3-.3-.7-.3-1.1-.3zM15.5 9.5c0-.3-.1-.5-.3-.7-.3-.3-.7-.3-1.1-.3h-.2c-.4 0-.8 0-1.1.3-.2.2-.3.4-.3.7 0 .3.2.5.5.5s.5-.2.5-.5h1c0 .3.2.5.5.5s.5-.2.5-.5z"/></svg>