<svg version="1.1" id="Outline_Icons" xmlns="http://www.w3.org/2000/svg" x="0" y="0" viewBox="0 0 24 24" xml:space="preserve"><style>.st0{fill:none;stroke:#3e3832;stroke-linecap:round;stroke-linejoin:round;stroke-miterlimit:10}</style><path class="st0" d="M9 9.5c0-.6.4-.5 1-.5s1-.1 1 .5M13 9.5c0-.6.4-.5 1-.5s1-.1 1 .5M9.4 15.5c-4.3.7-8.9.6-8.9 4.7v3.3h23v-3.3c0-4.2-4.5-4-8.9-4.7"/><path class="st0" d="M12 16.5c1.5 0 5-2 5-5 1.5 0 1.5-3 0-3L16.5 6c-4 0-4-1.5-4.5-2-.5.5-.5 2-4.5 2L7 8.5c-1.5 0-1.5 3 0 3 0 3 3.5 5 5 5z"/><path class="st0" d="M18 9.3l.5-3.8s.5-5-6.5-5-6.5 5-6.5 5L6 9.3"/><circle class="st0" cx="7.5" cy="20" r="1.5"/><path class="st0" d="M7.5 15.8v2.7M17 15.9v1.6M15.5 21.5c-.5 0-1-.5-1-.9V19c0-1 .5-1.5 2.5-1.5M18.5 21.5c.5 0 1-.5 1-.9V19c0-1-.5-1.5-2.5-1.5M11.5 16.5v7"/></svg>