<svg xmlns="http://www.w3.org/2000/svg" width="50" height="50" viewBox="0 0 50 50"><g fill="none"><path fill="#A59D96" d="M17.31 18.582h23.07v-2.578H17.31zm0 5.831h23.07v-2.577H17.31zm0 5.831h23.07v-2.576H17.31zm0 5.833h23.07V33.5H17.31zm-2.585-21.072H10v4.578h4.725v-4.578zM11 18.583h2.725v-2.578H11v2.578zm3.725 2.253H10v4.577h4.725v-4.577zM11 24.413h2.725v-2.577H11v2.577zm3.725 2.255H10v4.576h4.725v-4.576zM11 30.244h2.725v-2.576H11v2.576zm3.725 2.256H10v4.577h4.725V32.5zM11 36.077h2.725V33.5H11v2.577z"/><path stroke="#2F3237" d="M10.036 14.717l2.55 2.915L16.174 13m-6.138 7.693l2.55 2.915 3.588-4.632"/></g></svg>