<svg width="90" height="90" viewBox="0 0 90 90" xmlns="http://www.w3.org/2000/svg" xmlns:xlink="http://www.w3.org/1999/xlink"><defs><circle id="a" cx="45" cy="45" r="45"/></defs><g fill="none" fill-rule="evenodd"><mask id="b" fill="#fff"><use xlink:href="#a"/></mask><use fill="#C2EAF7" xlink:href="#a"/><g mask="url(#b)"><path d="M40.059 19.83c4.528 6.405 3.007 15.269-3.398 19.797-6.407 4.528-15.27 3.006-19.798-3.4-4.529-6.405-3.006-15.269 3.4-19.797 6.405-4.528 15.268-3.006 19.796 3.4z" fill="#B1CAC9"/><path d="M53.61 62.557a3.198 3.198 0 0 1-4.458-.766L38.254 46.374a3.198 3.198 0 1 1 5.222-3.692L54.375 58.1a3.199 3.199 0 0 1-.765 4.458" fill="#C52C35"/><path d="M21.29 16.838c-5.924 4.188-7.336 12.414-3.15 18.337 4.188 5.923 12.415 7.335 18.338 3.149 5.924-4.188 7.336-12.415 3.15-18.338-4.187-5.923-12.414-7.336-18.338-3.148m16.419 23.226c-6.884 4.866-16.442 3.226-21.31-3.658-4.865-6.884-3.223-16.442 3.66-21.309 6.884-4.866 16.443-3.225 21.31 3.658 4.865 6.884 3.224 16.443-3.66 21.31" fill="#2F3238"/><path d="M40.89 44.564c-.96.68-2 .865-2.68-.097l-2.272-3.215a2.132 2.132 0 1 1 3.482-2.461l2.272 3.215c.68.962.16 1.879-.801 2.558" fill="#2F3238"/><path d="M39.527 46.817l10.286 14.55a1.064 1.064 0 1 0 1.74-1.23L41.71 46.212c-.817.555-1.585.702-2.183.605" fill="#D94C56"/><path d="M62.763 52.295c1.094 0 1.979.772 1.979 1.725v18.353c0 .953-.885 1.726-1.98 1.726-1.09 0-1.976-.773-1.976-1.726V54.02c0-.953.885-1.725 1.977-1.725M58.42 49.32c1.093 0 1.978.884 1.978 1.979v23.796a1.978 1.978 0 1 1-3.957 0V51.299c0-1.095.886-1.979 1.98-1.979M54.075 45.962a1.98 1.98 0 0 1 1.98 1.98v28.52a1.978 1.978 0 0 1-3.958 0v-28.52a1.98 1.98 0 0 1 1.978-1.98M49.73 43.008a1.98 1.98 0 0 1 1.979 1.979v19.03a1.978 1.978 0 1 1-3.958 0v-19.03a1.98 1.98 0 0 1 1.979-1.98" fill="#CCC8C4"/><path d="M62.502 77.566v-2.458c0-.672 1.172-1.233 1.172-1.233l-2.438-19.74H49.73l-1.98 6.483s-.484.148-.968-.596c-.485-.747-1.938-4.248-1.938-4.248s-1.936-4.133-3.726-3.389c-1.787.745-.968 3.463-.968 3.463s.912 4.288 1.417 6.333c.637 2.586 2.123 5.215 3.353 7.155 1.228 1.935 3.575 4.763 4.395 4.763l.187 3.467h13z" fill="#CCC8C4"/><path fill="#561D5B" d="M47.25 91.94h17.606V77.567H47.25z"/><path fill="#7C7086" d="M47.25 82.883h17.606v-5.316H47.25z"/><path d="M63.02 80.263a1.118 1.118 0 1 0-2.237.002 1.118 1.118 0 0 0 2.237-.002" fill="#2F3237"/></g></g></svg>