<svg version="1.1" id="Layer_1" xmlns="http://www.w3.org/2000/svg" xmlns:xlink="http://www.w3.org/1999/xlink" x="0" y="0" viewBox="0 0 314.4 314.9" xml:space="preserve"><style>.st0{fill:#bccfcf}.st2{fill:#fff}.st3{fill:none;stroke:#bccfcf;stroke-width:3.1342;stroke-miterlimit:10}.st4{fill:#3e3a3c}.st8{fill:#f2efee}.st10{fill:#78accd}.st16{fill:#ebeae8}.st18{fill:none;stroke:#d2c1a4;stroke-width:.5063;stroke-linecap:round;stroke-miterlimit:10}.st20{fill:#5f224e}.st38{fill:none;stroke:#697686;stroke-width:.7985;stroke-miterlimit:10}.st41{fill:#c42229}</style><path class="st0" d="M311.3 172.1c0-76-61.6-137.6-137.6-137.6S36.2 96.1 36.2 172.1s61.6 137.6 137.6 137.6S311.3 248 311.3 172.1"/><circle cx="173.8" cy="172.1" r="137.6" fill="none" stroke="#bccfcf" stroke-width="6.268" stroke-miterlimit="10"/><path class="st2" d="M89.2 221.6c0 24.2-19.6 43.8-43.8 43.8S1.6 245.8 1.6 221.6s19.6-43.8 43.8-43.8 43.8 19.6 43.8 43.8"/><circle class="st3" cx="45.4" cy="221.6" r="43.8"/><path class="st4" d="M67.4 207.3c-1.1 7.1-10.5 10.8-20.9 10.8-10.2 0-19.8-5.7-20.7-10.8-1.1-6.7-.3-10.4 3-14.9 4.2-5.7 10.6-9.4 17.7-9.4s13.6 3.8 17.9 9.6c3.4 4.5 4.1 6.8 3 14.7"/><path d="M53.9 227.6H39.3c-4 0-17 8.2-17 15.8v13.3s9.5 6.8 23.8 6.8 24.8-8.5 24.8-8.5v-11.6c0-7.6-13-15.8-17-15.8" fill="#558192"/><path d="M52.3 243.6h11.2v6.2s-4.3 4.8-5.6 4.8-5.6-4.8-5.6-4.8v-6.2z" fill="#7c9faf"/><path d="M53.5 227.6l-6.9 2.6-7.7-2.1-3.1 1.3c1 1.5 6.4 4.9 9.2 4.9h-.6v4l1 .5-3.6 15.1 4.8 6.7 4.8-6.7-3.6-15.1 1-.5v-4h-.7c2.8 0 8.3-3.4 9.3-4.9l-3.9-1.8z" fill="#184d6c"/><path class="st8" d="M64.9 215.1h1c.9 0 1.6-.7 1.6-1.6v-6.3c0-.9-.7-1.6-1.6-1.6s-1.6.7-1.6 1.6v7.2c0 .4.3.7.6.7M28.3 215.1h-1c-.9 0-1.6-.7-1.6-1.6v-6.3c0-.9.7-1.6 1.6-1.6s1.6.7 1.6 1.6v7.2c0 .4-.3.7-.6.7"/><path class="st8" d="M65.5 209.3c0 12.2-8.5 22.1-18.9 22.1-10.5 0-18.9-9.9-18.9-22.1 0-12.2 8.5-22.1 18.9-22.1 10.5-.1 18.9 9.9 18.9 22.1"/><path d="M64.3 208.1c1.6.4 1.1-.7 1.1-2.4 0-12.2-8.5-22.1-18.9-22.1-10.5 0-18.9 9.9-18.9 22.1 0 1.6.1 3.2.4 4.7 0 0 5.3-4.8 6.5-6.7 1.7-2.6 3.3-8 3.3-8 .6 0 8 7.5 26.5 12.4" fill="#453e3e"/><path class="st10" d="M38.1 206.7c-1.4-.1-1.8 2-1.4 3.3.1.3.2.6.4.8.2 0 .4-.1.8-.1s1 0 1.5.2c.1-.1.2-1.5.1-2.2 0-.9-.5-1.9-1.4-2M54.9 206.7c1.4-.1 1.8 2 1.4 3.3-.1.3-.2.6-.4.8-.2 0-.4-.1-.8-.1s-1 0-1.5.2c-.1-.1-.2-1.5-.1-2.2 0-.9.4-1.9 1.4-2"/><path class="st8" d="M48 211.8c.8-.1 1.6-.1 2 .4.9 1.1.6 2.4-.9 3.4-.8.5-1.9.7-2.5.4"/><path d="M48 211.8c.8-.1 1.6-.1 2 .4.9 1.1.6 2.4-.9 3.4-.8.5-1.9.7-2.5.4" fill="none" stroke="#d2c1a4" stroke-width=".518" stroke-linecap="round" stroke-miterlimit="10"/><path d="M53.9 219.5s-1.9-1.9-7.4-1.9-7.8 2.1-7.8 2.1H30c3.2 7 9.4 11.7 16.6 11.7 7.3 0 13.7-4.8 16.8-11.9h-9.5z" fill="#dad6d5"/><path d="M41 221.1s2 2.4 5.5 2.4 5.6-2.4 5.6-2.4" fill="none" stroke="#ccb7a0" stroke-width="1.032" stroke-miterlimit="10"/><path class="st2" d="M161.3 45.4c0 24.2-19.6 43.8-43.8 43.8S73.7 69.6 73.7 45.4 93.3 1.6 117.5 1.6s43.8 19.6 43.8 43.8"/><circle class="st3" cx="117.5" cy="45.4" r="43.8"/><path class="st4" d="M140 35.4c0 11.9.1 26.2-22.5 26.2s.6-26.2.6-26.2H140z"/><path class="st4" d="M95 35.4c0 11.9-.1 26.2 22.5 26.2s-.6-26.2-.6-26.2H95z"/><path class="st4" d="M95 35.4c0 14 10.1 25.3 22.5 25.3S140 49.4 140 35.4s-10.1-25.3-22.5-25.3S95 21.5 95 35.4"/><path class="st0" d="M110.4 53h14.2c3.8 0 16.3 7.9 16.3 15.2v12.4s-9.9 7-23.7 7-23.1-7-23.1-7V68.3c0-7.4 12.5-15.3 16.3-15.3"/><path class="st2" d="M128.3 64.2c3.2-5.6 1.5-9.1.4-10l-1.4-.6c2 2.2 2.4 6 0 10l1 .6z"/><path class="st2" d="M130.3 64.3c1.1.8 1.9 1.8 2.4 3.1.3.6.4 1.2.2 1.9-.7 2.8-1.4 5.5-2.1 8.3-.4 1.5-1.4 2.4-2.9 2.8-.2.1-.4.1-.5.3-.5.6-1.3.7-2 .4-.7-.4-1-1.1-.8-1.9.2-.7.9-1.2 1.7-1.2.6 0 1 .3 1.4.8.9-.3 1.4-.9 1.7-1.8.7-2.6 1.3-5.2 2-7.8.1-.5.1-.9-.1-1.4-.4-.8-.9-1.4-1.5-1.9-2.1-1.9-5.3-2-7.5-.2-.3.3-.5.6-.6 1-.2.9-.4 1.8-.7 2.7-.4 1.7-.9 3.5-1.3 5.2-.2.9 0 1.6.6 2.2.5-.3 1-.3 1.5-.2.8.3 1.2 1.1 1 1.8-.2.8-.8 1.4-1.6 1.3-.8 0-1.4-.6-1.6-1.4 0-.1-.1-.2-.2-.3-1.2-1.1-1.7-2.5-1.3-4.1.6-2.6 1.3-5.1 1.9-7.7.2-.9.7-1.6 1.4-2.1 1.4-1 3.1-1.7 4.8-1.5 1.5.4 2.4.7 4.1 1.7M106.3 66.4h.9V53.9l-.9.5z"/><path class="st2" d="M102.3 68.6c0 2.4 2 4.4 4.4 4.4s4.4-2 4.4-4.4-2-4.4-4.4-4.4-4.4 2-4.4 4.4"/><path d="M103.4 68.6c0 1.8 1.5 3.3 3.3 3.3s3.3-1.5 3.3-3.3-1.5-3.3-3.3-3.3c-1.8 0-3.3 1.5-3.3 3.3" fill="#eaeae7"/><path d="M114 53.7c.4 0 3.5 1.3 3.5 1.3s3.6-1 3.9-1.1 2.3 1 2.3 1c-.5.7-5.7 10.1-5.7 10.1h-1s-5.2-9.2-5.7-10c0 0 2.2-1.3 2.7-1.3" fill="#759dac"/><path class="st16" d="M108.7 21s-8.4 7.2-9.7 10c0 0-.1.2-.2.1-.3-.1-.5-.1-.7-.1-.9 0-1.6.7-1.6 1.6v6.3c0 .9.7 1.6 1.6 1.6.3 0 .7-.1.9-.3 2.1 9.6 9.5 16.7 18.4 16.7s16.3-7.1 18.4-16.7c.3.2.6.3.9.3.9 0 1.6-.7 1.6-1.6v-6.3c0-.9-.7-1.6-1.6-1.6-.2 0-.4 0-.6.1-6-8.6-18.6.5-27.4-10.1"/><path class="st16" d="M114.9 54.9c.3 0 2.5 1 2.5 1s2.6-.7 2.8-.8c.2 0 1.7.7 1.7.7-.4.5-4.1 7.3-4.1 7.3h-.7s-3.8-6.7-4.1-7.2c0-.1 1.6-1 1.9-1"/><path class="st4" d="M103.7 35.5c0 3.4 2.8 6.2 6.2 6.2 3.2 0 5.8-2.4 6.1-5.5h2.9c.4 3.1 3 5.5 6.1 5.5 3.4 0 6.2-2.8 6.2-6.2s-2.8-6.2-6.2-6.2c-3.2 0-5.8 2.4-6.1 5.5H116c-.4-3.1-3-5.5-6.1-5.5-3.4 0-6.2 2.8-6.2 6.2m16.7 0c0-2.6 2.1-4.7 4.7-4.7s4.7 2.1 4.7 4.7-2.1 4.7-4.7 4.7-4.7-2.1-4.7-4.7m-15.2 0c0-2.6 2.1-4.7 4.7-4.7s4.7 2.1 4.7 4.7-2.1 4.7-4.7 4.7-4.7-2.1-4.7-4.7"/><path d="M112.1 46.2s2 2.3 5.4 2.3 5.5-2.3 5.5-2.3" fill="none" stroke="#ccb7a0" stroke-width="1.01" stroke-miterlimit="10"/><path class="st8" d="M118.5 38.5c.8-.1 1.6-.1 1.9.4.9 1.1.6 2.4-.9 3.3-.7.5-1.8.7-2.5.4"/><path class="st18" d="M118.5 38.5c.8-.1 1.6-.1 1.9.4.9 1.1.6 2.4-.9 3.3-.7.5-1.8.7-2.5.4"/><path class="st2" d="M89.2 121c0 24.2-19.6 43.8-43.8 43.8S1.6 145.1 1.6 121c0-24.2 19.6-43.8 43.8-43.8S89.2 96.8 89.2 121"/><circle class="st3" cx="45.4" cy="121" r="43.8"/><path d="M68.4 111.2c0-14-10.1-25.4-22.6-25.4s-22.6 11.4-22.6 25.4c0 12-6.2 18.8-6.2 18.8s6.1 7.5 28.7 7.5 28.7-7.5 28.7-7.5-6-6.8-6-18.8" fill="#e57d61"/><path class="st20" d="M47.5 126.8c12.2 0 21.8 9.1 21.8 19.9v9.3c0 .4-10 7.3-23.3 7.3-12.3 0-19.2-3.9-23.5-6.6-.6-2.7-1.1-6.8-1.1-10 0-10.9 13.9-19.9 26.1-19.9"/><path class="st8" d="M65.7 108.3c-.1-.7-.7-1.2-1.5-1.2-.2 0-.4 0-.5.1h-.1c-5.5-7.5-16.3-.6-24.5-7.7-1.1-1.1-1.6-1.9-1.7-1.9 0 0-8 6.9-9.3 9.5 0 0-.1.2-.2.1-.2-.1-.3-.1-.5-.1-.7 0-1.3.5-1.5 1.2 0 .1-.1.2-.1.4v6c0 .8.7 1.5 1.5 1.5.3 0 .6-.1.9-.3 1.2 5.6 4.3 10.2 8.4 13-1.1.4-2.9 1.3-2.9 1.3.9 1.4 4.2 8.6 12 8.6 7.9 0 12-7.4 12.8-9.2 0 0-1.2-.8-2.9-1.3 3.7-2.9 6.5-7.3 7.6-12.4.2.2.5.3.9.3.8 0 1.5-.7 1.5-1.5v-6c.2-.2.2-.3.1-.4"/><path class="st20" d="M57.2 147.8h-1.3c-.2 0-.3-.1-.3-.3 0-.2.1-.3.3-.3h1.3c.2 0 .3.1.3.3 0 .1-.1.3-.3.3"/><path class="st10" d="M38.9 113.2c-1.3.1-1.7-1.9-1.3-3.2.1-.2.5-1.4 1.3-1.4s1.1.6 1.2.7c.6 1.3.3 3.7-1.2 3.9M53.8 113.2c1.3.1 1.7-1.9 1.3-3.2-.1-.2-.5-1.4-1.3-1.4s-1.1.6-1.2.7c-.5 1.3-.2 3.7 1.2 3.9"/><path d="M41 122.3s2 2.3 5.4 2.3 5.5-2.3 5.5-2.3" fill="none" stroke="#d19e9d" stroke-width="1.013" stroke-miterlimit="10"/><path class="st8" d="M46.7 114.7c.8-.1 1.6-.1 1.9.4.9 1.1.6 2.4-.9 3.3-.7.5-1.8.7-2.5.4"/><path class="st18" d="M46.7 114.7c.8-.1 1.6-.1 1.9.4.9 1.1.6 2.4-.9 3.3-.7.5-1.8.7-2.5.4"/><path class="st8" d="M44.3 143.4h3.9l7.1-8.9H36.8z"/><g><defs><path id="SVGID_1_" d="M36.2 172.1c0 76 61.6 137.6 137.6 137.6s137.6-61.6 137.6-137.6S249.7 34.5 173.8 34.5c-76 0-137.6 61.6-137.6 137.6"/></defs><clipPath id="SVGID_2_"><use xlink:href="#SVGID_1_" overflow="visible"/></clipPath><path d="M193.7 214.8l-20.3-.4H153c-11 0-47.6 23.3-47.6 44.6v55.9h136.7V259c0-21.3-37.4-44.2-48.4-44.2" clip-path="url(#SVGID_2_)" fill="#9ba936"/><defs><path id="SVGID_3_" d="M36.2 172.1c0 76 61.6 137.6 137.6 137.6s137.6-61.6 137.6-137.6S249.7 34.5 173.8 34.5c-76 0-137.6 61.6-137.6 137.6"/></defs><clipPath id="SVGID_4_"><use xlink:href="#SVGID_3_" overflow="visible"/></clipPath><path d="M192.7 212.4c-2.4 0-19.2 7.2-19.2 7.2s-20.2-5.6-21.7-5.9c-1.5-.3-12.3 5.5-12.3 5.5 2.8 4.1 10.6 23 34 23 23.3 0 31.2-18.9 34-23-.1 0-12.5-6.8-14.8-6.8" clip-path="url(#SVGID_4_)" fill="#eceae9"/><defs><path id="SVGID_5_" d="M36.2 172.1c0 76 61.6 137.6 137.6 137.6s137.6-61.6 137.6-137.6S249.7 34.5 173.8 34.5c-76 0-137.6 61.6-137.6 137.6"/></defs><clipPath id="SVGID_6_"><use xlink:href="#SVGID_5_" overflow="visible"/></clipPath><path clip-path="url(#SVGID_6_)" fill="#fff" d="M207 218.9l-57.1 96h64.3v-92.4"/><defs><path id="SVGID_7_" d="M36.2 172.1c0 76 61.6 137.6 137.6 137.6s137.6-61.6 137.6-137.6S249.7 34.5 173.8 34.5c-76 0-137.6 61.6-137.6 137.6"/></defs><clipPath id="SVGID_8_"><use xlink:href="#SVGID_7_" overflow="visible"/></clipPath><path clip-path="url(#SVGID_8_)" fill="#fff" d="M139.5 219.2l28.6 92.6-9.7.3"/><defs><path id="SVGID_9_" d="M36.2 172.1c0 76 61.6 137.6 137.6 137.6s137.6-61.6 137.6-137.6S249.7 34.5 173.8 34.5c-76 0-137.6 61.6-137.6 137.6"/></defs><clipPath id="SVGID_10_"><use xlink:href="#SVGID_9_" overflow="visible"/></clipPath><path d="M229.7 177.6h-4.5c-1.1 0-2.1-.9-2.1-2.1v-22c0-1.1.9-2.1 2.1-2.1h4.5c1.1 0 2.1.9 2.1 2.1v22c0 1.1-.9 2.1-2.1 2.1" clip-path="url(#SVGID_10_)" fill="#eceae9"/><g><defs><path id="SVGID_11_" d="M36.2 172.1c0 76 61.6 137.6 137.6 137.6s137.6-61.6 137.6-137.6S249.7 34.5 173.8 34.5c-76 0-137.6 61.6-137.6 137.6"/></defs><clipPath id="SVGID_12_"><use xlink:href="#SVGID_11_" overflow="visible"/></clipPath><path d="M122.3 177.6h-4.5c-1.1 0-2.1-.9-2.1-2.1v-22c0-1.1.9-2.1 2.1-2.1h4.5c1.1 0 2.1.9 2.1 2.1v22c0 1.1-.9 2.1-2.1 2.1" clip-path="url(#SVGID_12_)" fill="#eceae9"/></g><g><defs><path id="SVGID_13_" d="M36.2 172.1c0 76 61.6 137.6 137.6 137.6s137.6-61.6 137.6-137.6S249.7 34.5 173.8 34.5c-76 0-137.6 61.6-137.6 137.6"/></defs><clipPath id="SVGID_14_"><use xlink:href="#SVGID_13_" overflow="visible"/></clipPath><path d="M226.5 161.4c0 34.1-23.6 61.7-52.8 61.7s-52.8-27.6-52.8-61.7 23.6-61.7 52.8-61.7c29.2-.1 52.8 27.6 52.8 61.7" clip-path="url(#SVGID_14_)" fill="#eceae9"/></g><g><defs><path id="SVGID_15_" d="M36.2 172.1c0 76 61.6 137.6 137.6 137.6s137.6-61.6 137.6-137.6S249.7 34.5 173.8 34.5c-76 0-137.6 61.6-137.6 137.6"/></defs><clipPath id="SVGID_16_"><use xlink:href="#SVGID_15_" overflow="visible"/></clipPath><path d="M124 159.4c.1-.2.2-.4.2-.7v-4.9c-.4-13.5 4.4-19.8 8.3-24.6 0 0-2.4 10.4-.7 8.2 9.4-12.2 52.9-3.8 62-19.6 1.1 8.7-10.3 11.3-10.3 11.3 9.1 1.7 17-1.9 19.1-6.2.7 3.5-1.5 5.8-4.6 8.2 11.2-2.1 11.3-9.6 11.3-9.6 1.6 10 13 6.2 13 22.6v14.6c0 .7.6 1.3 1.3 1.3h1.3c.7 0 1.3-.6 1.3-1.3V148c.7-37.9-21-63.2-50.9-63.2-28.5 0-55.5 25.3-55.4 58.7V158.8c0 .7.6 1.3 1.3 1.3h1.4c.4 0 .8-.2 1-.5" clip-path="url(#SVGID_16_)" fill="#f6bb71"/></g><g><defs><path id="SVGID_17_" d="M36.2 172.1c0 76 61.6 137.6 137.6 137.6s137.6-61.6 137.6-137.6S249.7 34.5 173.8 34.5c-76 0-137.6 61.6-137.6 137.6"/></defs><clipPath id="SVGID_18_"><use xlink:href="#SVGID_17_" overflow="visible"/></clipPath><path d="M151.8 166.8c-3.9.3-5-5.6-3.9-9.5.2-.7 1.5-4.1 3.8-4.1s3.3 1.8 3.5 2.1c1.7 3.9.9 11.2-3.4 11.5" clip-path="url(#SVGID_18_)" fill="#78accd"/></g><g><defs><path id="SVGID_19_" d="M36.2 172.1c0 76 61.6 137.6 137.6 137.6s137.6-61.6 137.6-137.6S249.7 34.5 173.8 34.5c-76 0-137.6 61.6-137.6 137.6"/></defs><clipPath id="SVGID_20_"><use xlink:href="#SVGID_19_" overflow="visible"/></clipPath><path d="M195.7 166.8c3.9.3 5-5.6 3.9-9.5-.2-.7-1.5-4.1-3.8-4.1s-3.3 1.8-3.5 2.1c-1.7 3.9-.9 11.2 3.4 11.5" clip-path="url(#SVGID_20_)" fill="#78accd"/></g><g><defs><path id="SVGID_21_" d="M36.2 172.1c0 76 61.6 137.6 137.6 137.6s137.6-61.6 137.6-137.6S249.7 34.5 173.8 34.5c-76 0-137.6 61.6-137.6 137.6"/></defs><clipPath id="SVGID_22_"><use xlink:href="#SVGID_21_" overflow="visible"/></clipPath><path d="M157.9 193.8s5.8 6.9 15.9 6.9c10.1 0 16.2-6.9 16.2-6.9" clip-path="url(#SVGID_22_)" fill="none" stroke="#d19e9d" stroke-width="2.991" stroke-miterlimit="10"/></g><g><defs><path id="SVGID_23_" d="M36.2 172.1c0 76 61.6 137.6 137.6 137.6s137.6-61.6 137.6-137.6S249.7 34.5 173.8 34.5c-76 0-137.6 61.6-137.6 137.6"/></defs><clipPath id="SVGID_24_"><use xlink:href="#SVGID_23_" overflow="visible"/></clipPath><path d="M174.8 171.3c2.4-.4 4.7-.3 5.7 1.1 2.6 3.3 1.9 7.1-2.6 9.9-2.2 1.4-5.3 2-7.3 1.1" clip-path="url(#SVGID_24_)" fill="#eceae9"/></g><g><defs><path id="SVGID_25_" d="M36.2 172.1c0 76 61.6 137.6 137.6 137.6s137.6-61.6 137.6-137.6S249.7 34.5 173.8 34.5c-76 0-137.6 61.6-137.6 137.6"/></defs><clipPath id="SVGID_26_"><use xlink:href="#SVGID_25_" overflow="visible"/></clipPath><path d="M174.8 171.3c2.4-.4 4.7-.3 5.7 1.1 2.6 3.3 1.9 7.1-2.6 9.9-2.2 1.4-5.3 2-7.3 1.1" clip-path="url(#SVGID_26_)" fill="none" stroke="#d2c1a4" stroke-width="1.496" stroke-linecap="round" stroke-miterlimit="10"/></g></g><g><path d="M290.9 179.4h-34.6c-3.3 0-5.9-2.7-5.9-5.9v-71.6c0-3.3 2.7-5.9 5.9-5.9h34.6c3.3 0 5.9 2.7 5.9 5.9v71.6c.1 3.2-2.6 5.9-5.9 5.9" fill="#697686"/><path class="st2" d="M278.8 172.9c0 2-1.6 3.6-3.6 3.6s-3.6-1.6-3.6-3.6 1.6-3.6 3.6-3.6 3.6 1.6 3.6 3.6M258.8 108.8h29.6v5.4h-29.6z"/><path fill="#c11718" d="M254.1 115.9v-7.1z"/><path d="M291.7 106.4c-.3-.1-.6-.2-1-.2h-34.1c-1.4 0-2.5 1.1-2.5 2.6v7l39.2-.1v-7c0-1-.6-1.9-1.6-2.3m-29.4 6.4c-.7 0-1.3-.6-1.3-1.3 0-.7.6-1.3 1.3-1.3.7 0 1.3.6 1.3 1.3 0 .7-.6 1.3-1.3 1.3m22.8 0c-.7 0-1.3-.6-1.3-1.3 0-.7.6-1.3 1.3-1.3.7 0 1.3.6 1.3 1.3 0 .7-.6 1.3-1.3 1.3" fill="#bfc0c7"/><path class="st2" d="M254.1 115.9v48c0 1.4 1.1 2.5 2.6 2.5h34.1c1.4 0 2.5-1.1 2.5-2.6v-48l-39.2.1z"/><path class="st38" d="M267.2 115.9l.1 51.4M280 115.8l.1 51.5M254.1 124.5l39.3-.1M254.1 133l39.3-.1M254.1 141.3l39.3-.1M254.1 149.8h39.3M254.1 158.4l39.3-.1"/><path d="M259.8 148c-.3 0-.5-.1-.7-.3l-2.2-2.6c-.3-.4-.3-1 .1-1.3s1-.3 1.3.1l1.5 1.7 4.2-5.8c.3-.4.9-.5 1.3-.2s.5.9.2 1.3l-4.9 6.7c-.2.2-.4.4-.8.4.1 0 0 0 0 0" fill="#2ea359"/></g><g><path d="M64.6 154.5h-13c-.7 0-1.4-.6-1.4-1.4v-6.7c0-.7.6-1.4 1.4-1.4h12.9c.7 0 1.4.6 1.4 1.4v6.7c0 .8-.6 1.4-1.3 1.4z" fill="#cd1719"/><path class="st2" d="M61.6 150c0 1.9-1.5 3.4-3.4 3.4s-3.4-1.5-3.4-3.4 1.5-3.4 3.4-3.4 3.4 1.5 3.4 3.4M53.8 151.5h-.7l.7-1.7h.7zM62.2 151.5h-.4l.7-1.7h.4zM63.4 151.5h-.2l.7-1.7h.2z"/><path class="st41" d="M55.6 151.5h.5v-1.6h-.5s-.1 0-.1.1l-.2.5v.1h.2l.1.9"/><path class="st41" d="M56.8 151.5h.6v-1.6h-.9s-.1 0-.1.1l-.2.5-.1.1h.4c.1 0 .2.1.2.2l.1.7c-.1 0-.1 0 0 0M59.1 149.8h-.5v1.6h.5s.1 0 .1-.1l.2-.5v-.1h-.1l-.2-.9c.1 0 0 0 0 0"/><path class="st41" d="M56.9 151.5h.3s.1 0 .1-.1l.2-.5v-.1h-.1l-.5.7zM60.5 149.8h.6s.1 0 0 .1l-.7 1.7h-.6l.7-1.8"/><path class="st41" d="M59.7 149.8h-.9c-.1 0 .3.1.3.1l.6 1.6s0 .1.1.1h.5l-.6-1.8c.1 0 .1 0 0 0M58 149.8c.3 0 .5.2.5.6v.4s0-.3-.3-.3-.3.1-.3.3c0 .1.1.2.2.2h.5l-.3.6H58c-.2 0-.8-.3-.8-.8.1-.7.5-1 .8-1"/><path d="M58.9 146.1h-1.4c-.1 0-.2-.1-.2-.2v-.2c0-.1.1-.2.2-.2h1.4c.1 0 .2.1.2.2v.2c.1.1 0 .2-.2.2z" fill="#5b2052"/><path fill="#86497e" d="M57.8 143.3h.8v2.5h-.8z"/></g></svg>