<svg version="1.1" id="Layer_1" xmlns="http://www.w3.org/2000/svg" x="0" y="0" viewBox="0 0 16 16" xml:space="preserve"><style>.st0{fill:#0067c5}</style><g id="Page-1"><g id="Dialogmøter-hover"><g id="Group"><path id="Rectangle-path" class="st0" d="M8 10.7h2.7v2H8z"/><path id="Rectangle-path_1_" class="st0" d="M4.7 10.7h2.7v2H4.7z"/><path id="Rectangle-path_2_" class="st0" d="M8 8h2.7v2H8z"/><path id="Rectangle-path_3_" class="st0" d="M4.7 8h2.7v2H4.7z"/><path id="Shape" class="st0" d="M0 15.7c0 .2.1.3.3.3h15.3c.2 0 .3-.1.3-.3V5.3H0v10.4z"/><path id="Shape_1_" class="st0" d="M15.7 1.3h-2.3v-1c-.1-.2-.2-.3-.4-.3h-2c-.2 0-.3.1-.3.3v1H5.3v-1C5.3.1 5.2 0 5 0H3c-.2 0-.3.1-.3.3v1H.3c-.2 0-.3.2-.3.4v3h16v-3c0-.2-.1-.4-.3-.4zm-11 1.4H3.3v-2h1.3v2zm8 0h-1.3v-2h1.3v2z"/></g></g></g></svg>