<svg xmlns="http://www.w3.org/2000/svg" xmlns:xlink="http://www.w3.org/1999/xlink" width="120" height="120" viewBox="0 0 120 120">
    <defs>
        <ellipse id="a" cx="9.643" cy="9.6" rx="9.643" ry="9.6"/>
    </defs>
    <g fill="none" fill-rule="evenodd">
        <circle cx="60" cy="60" r="60" fill="#9BD0B0"/>
        <path fill="#0C576F" d="M32.285 60.883c-.834-.844-4.781-3.743-3.946-4.588L27.17 52.05l31.443-27.417a2.122 2.122 0 0 1 3.024 0L93.421 52.05l-7.333 15.63c.833.843-26.18 14.821-27.015 15.667L32.285 60.883z"/>
        <path fill="#DCDCD2" d="M86.953 80.382H33.64a.664.664 0 0 1-.664-.66V43.928c0-.365.296-.661.664-.661h53.313c.365 0 .662.296.662.66v35.795c0 .36-.297.66-.662.66"/>
        <g transform="translate(51.107 49.2)">
            <use fill="#0C5EA8" xlink:href="#a"/>
            <path fill="#FFF" d="M7.91 11.382l5.663-5.445a1.21 1.21 0 0 1 1.704.03c.463.476.45 1.236-.03 1.696l-6.576 6.323a1.21 1.21 0 0 1-1.704-.029 1.208 1.208 0 0 1-.178-.172l-2.49-2.952a1.196 1.196 0 0 1 .15-1.691 1.21 1.21 0 0 1 1.698.148l1.763 2.092z"/>
        </g>
        <path fill="#4C92D9" d="M29.672 96.006h53.93c1.383 0-56.432-43.956-56.432-43.956v41.466c0 1.374 1.12 2.49 2.502 2.49"/>
        <path fill="#2C79C5" d="M90.92 96.006H36.989c-1.382 0 56.432-43.956 56.432-43.956v41.466c0 1.374-1.12 2.49-2.501 2.49"/>
    </g>
</svg>
