<svg width="70" height="70" viewBox="0 0 70 70" xmlns="http://www.w3.org/2000/svg"><g fill="none" fill-rule="evenodd"><circle cx="35" cy="35" r="35" fill="#EAE8E2"/><circle cx="16.625" cy="16.625" r="16.625" transform="translate(18.375 18.375)" fill="#FFF"/><path d="M34.999 14.876c-11.096 0-20.122 9.028-20.122 20.122 0 11.093 9.026 20.121 20.122 20.121 11.093 0 20.121-9.028 20.121-20.121 0-11.094-9.028-20.122-20.121-20.122" fill="#EAE8E2"/><path d="M43.954 29.743L31.378 41.48a.841.841 0 0 1-1.163-.02l-4.192-4.192a.836.836 0 0 1 0-1.185.836.836 0 0 1 1.185 0l3.619 3.618L42.81 28.517a.839.839 0 1 1 1.143 1.226M35 14.876c-11.096 0-20.122 9.028-20.122 20.122 0 11.093 9.026 20.121 20.122 20.121 11.093 0 20.121-9.028 20.121-20.121 0-11.094-9.028-20.122-20.121-20.122" fill="#EAE8E2"/><g><path d="M16.942 35.386c-.556-.557-3.188-2.468-2.631-3.025l-.893-2.824L34.493 11.48a1.425 1.425 0 0 1 2.017 0l21.073 18.057L52.81 39.87c.555.556-17.454 9.774-18.01 10.332L16.942 35.386z" fill="#0C576F"/><path d="M53.273 48.787H17.73a.443.443 0 0 1-.443-.442V24.376c0-.244.198-.442.443-.442h35.542c.243 0 .44.198.44.442v23.97a.443.443 0 0 1-.44.441" fill="#DCDCD2"/><path fill="#8F9395" d="M24.365 34.955h22.272v-1.752H24.365zM24.365 38.92h22.272v-1.753H24.365zM24.365 42.886h22.272v-1.754H24.365zM24.365 46.85h22.272V45.1H24.365z"/><path d="M15.085 58.972h35.954c.922 0-37.621-29.435-37.621-29.435v27.768c0 .92.746 1.667 1.667 1.667" fill="#D94C56"/><path d="M55.917 58.972H19.963c-.92 0 37.622-29.435 37.622-29.435v27.768c0 .92-.747 1.667-1.668 1.667" fill="#C52C35"/></g></g></svg>