<svg width="70" height="70" viewBox="0 0 70 70" xmlns="http://www.w3.org/2000/svg" xmlns:xlink="http://www.w3.org/1999/xlink"><defs><path id="a" d="M69.409 69.086V.358H0v68.728z"/><ellipse id="c" cx="34.653" cy="34.314" rx="34.653" ry="34.314"/></defs><g fill="none" fill-rule="evenodd"><g transform="translate(0 .328)"><mask id="b" fill="#fff"><use xlink:href="#a"/></mask><path d="M69.409 34.722c0 18.98-15.538 34.364-34.704 34.364C15.537 69.086 0 53.701 0 34.722 0 15.744 15.537.358 34.705.358c19.166 0 34.704 15.386 34.704 34.364" fill="#EBE8E2" mask="url(#b)"/></g><path d="M56.597 26.84l-3.529 3.783a1.828 1.828 0 0 1-2.684-.018l-3.423-3.769c-.3-.33-.466-.758-.466-1.203v-7.905c0-.993.813-1.798 1.816-1.798h6.952c1.002 0 1.815.805 1.815 1.798v7.892c0 .452-.172.888-.481 1.22" fill="#BACECD"/><path d="M56.597 34.519l-3.529-3.784a1.829 1.829 0 0 0-2.684.019l-3.423 3.768c-.3.33-.466.759-.466 1.203v7.383c0 .994.813 1.799 1.816 1.799h6.952a1.807 1.807 0 0 0 1.815-1.799v-7.37c0-.451-.172-.888-.481-1.22" fill="#BACECD"/><path d="M55.427 26.202l-2.671 2.864a1.383 1.383 0 0 1-2.03-.015L48.134 26.2a1.349 1.349 0 0 1-.353-.91v-4.174c0-.273.222-.493.497-.493h6.95a.56.56 0 0 1 .563.558v4.098c0 .342-.13.673-.365.924M55.792 42.576v.267c0 .436-.357.79-.799.79H48.58c-.441 0-.8-.354-.8-.79v-.328c0-.295.144-.572.385-.745l2.865-2.051a1.3 1.3 0 0 1 1.513.001l2.823 2.03c.268.192.426.5.426.826M52.37 32.506c0 .306-.251.555-.562.555-.31 0-.56-.249-.56-.555 0-.307.25-.556.56-.556.311 0 .561.25.561.556M52.37 34.366c0 .307-.251.556-.562.556-.31 0-.56-.25-.56-.556 0-.306.25-.555.56-.555.311 0 .561.249.561.555M52.37 36.227c0 .306-.251.555-.562.555-.31 0-.56-.249-.56-.555 0-.307.25-.556.56-.556.311 0 .561.25.561.556M52.37 38.088c0 .306-.251.555-.562.555a.558.558 0 0 1-.56-.555c0-.307.25-.556.56-.556.311 0 .561.249.561.556M52.348 30.646c0 .306-.251.555-.561.555-.31 0-.56-.25-.56-.555 0-.307.25-.556.56-.556.31 0 .56.249.56.556" fill="#52808D"/><g transform="translate(0 .686)"><mask id="d" fill="#fff"><use xlink:href="#c"/></mask><g mask="url(#d)"><path d="M28.89 43.126H17.473c-3.077 0-13.309 6.418-13.309 12.263v15.377h38.216V55.389c0-5.845-10.411-12.263-13.488-12.263" fill="#52808D"/><path d="M32.636 44.35c.462.098 1.784 1.079 1.784 1.079v25.81H16.601L32.49 44.603" fill="#FFF"/><path fill="#FFF" d="M13.599 44.247l8.152 25.75h-2.77M28.554 42.568c-.66 0-5.373 1.985-5.373 1.985l-5.975-1.636c-.605-.167-3.372 1.434-3.372 1.434.774 1.119 2.829 6.418 9.347 6.418 6.518 0 8.802-5.26 9.577-6.378 0 0-3.011-1.823-4.204-1.823"/><path d="M37.319 30.811c0 8.932-6.29 16.173-14.05 16.173-7.757 0-14.047-7.241-14.047-16.173 0-8.933 6.29-16.174 14.048-16.174 7.76 0 14.049 7.241 14.049 16.174" fill="#FFF"/><path d="M37.563 35.053c-.64 0-1.156-.509-1.156-1.136V29.33c0-.626.517-1.137 1.156-1.137.637 0 1.153.511 1.153 1.137v4.587c0 .627-.516 1.136-1.153 1.136M8.98 35.053c-.638 0-1.155-.509-1.155-1.136V29.33c0-.626.517-1.137 1.154-1.137.64 0 1.154.511 1.154 1.137v4.587c0 .627-.515 1.136-1.154 1.136" fill="#FFF"/><path d="M10.264 33.012a.341.341 0 0 0 .053-.174V31.57c-.094-3.53 1.17-5.168 2.21-6.414 0 0-.631 2.712-.192 2.15 2.49-3.184 14.025-1.003 16.417-5.114.3 2.262-2.719 2.944-2.719 2.944 2.407.443 4.492-.498 5.057-1.612.187.91-.384 1.512-1.22 2.134 2.958-.541 3.004-2.513 3.004-2.513.422 2.616 3.455 1.61 3.455 5.895v3.798c0 .194.16.351.356.351h.355a.355.355 0 0 0 .358-.35v-2.82c.184-9.882-5.568-16.491-13.482-16.491-7.553 0-14.694 6.588-14.689 15.312-.001.009-.005.015-.005.022v3.976c0 .194.16.351.357.351h.38c.11 0 .205-.05.268-.125" fill="#36363A"/><path d="M17.617 32.953c-.959.073-1.227-1.341-.938-2.264.054-.175.372-.971.934-.971a.94.94 0 0 1 .843.51c.413.9.21 2.646-.839 2.725M28.317 32.953c.96.073 1.227-1.341.938-2.264-.054-.175-.372-.971-.933-.971a.939.939 0 0 0-.843.51c-.414.9-.212 2.646.838 2.725" fill="#78ACCD"/><path d="M22.985 41.438c-2.594 0-4.087-1.713-4.149-1.786l.557-.461-.279.23.278-.23c.013.014 1.348 1.531 3.593 1.531 2.263 0 3.648-1.522 3.66-1.537l.547.473c-.064.072-1.617 1.78-4.207 1.78" fill="#D19E9D"/><path d="M22.758 37.175a1.51 1.51 0 0 1-.606-.113c-.091-.042-.132-.147-.091-.237.041-.09.149-.13.24-.09.39.172 1.09.06 1.596-.254.514-.319.821-.701.89-1.104.056-.33-.052-.675-.314-.995-.18-.22-.603-.287-1.224-.191a.181.181 0 0 1-.208-.15.18.18 0 0 1 .151-.204c.77-.117 1.295-.01 1.565.32.328.404.463.846.389 1.28-.087.505-.45.972-1.054 1.347-.408.254-.901.39-1.334.39" fill="#D2C1A4"/></g></g></g></svg>