<svg width="70" height="70" viewBox="0 0 70 70" xmlns="http://www.w3.org/2000/svg" xmlns:xlink="http://www.w3.org/1999/xlink"><defs><path id="a" d="M0 69.96h69.98V.587H0z"/><path d="M.283 7.69A35.318 35.318 0 0 0 10.47 9.183c8.32 0 15.962-2.875 21.968-7.675V.28H.282v7.41z" id="c"/></defs><g fill="none" fill-rule="evenodd"><g transform="translate(0 .125)"><path d="M69.935 35.269c0 19.104-15.646 34.592-34.946 34.592C15.69 69.86.045 54.373.045 35.269.045 16.164 15.69.677 34.989.677c19.3 0 34.946 15.487 34.946 34.592z" fill="#EBE8E2"/><path d="M69.935 35.269c0 19.104-15.646 34.592-34.946 34.592C15.69 69.86.045 54.373.045 35.269.045 16.164 15.69.677 34.989.677c19.3 0 34.946 15.487 34.946 34.592" fill="#EBE8E2"/><path d="M55.877 28.16v3.47c0 .73-.598 1.322-1.337 1.322H15.641a1.329 1.329 0 0 1-1.335-1.323V28.16h41.57z" fill="#424552"/><path d="M14.306 28.16V6.58c0-.73.597-1.322 1.336-1.322H54.54a1.33 1.33 0 0 1 1.336 1.323v21.58H14.306z" fill="#2D2F3C"/><path d="M15.645 26.847V7.212a.68.68 0 0 1 .683-.676h37.526a.68.68 0 0 1 .684.676v19.635H15.645z" fill="#FFF"/><mask id="b" fill="#fff"><use xlink:href="#a"/></mask><path fill="#424552" mask="url(#b)" d="M30.218 36.539h9.747v-4.393h-9.747z"/><path fill="#424552" mask="url(#b)" d="M26.46 37.195h17.263v-1.162H26.459z"/><path d="M35.406 30.868a.313.313 0 0 1-.315.311.313.313 0 0 1-.315-.311c0-.172.14-.312.315-.312.174 0 .315.14.315.312" fill="#2D2F3C" mask="url(#b)"/><path fill="#C9C7C5" mask="url(#b)" d="M29.889 13.336h11.055v-2.381H29.89zM27.539 11.588l.495-.633h-1.053z"/><path fill="#C9C7C5" mask="url(#b)" d="M26.981 10.955h-.115v1.223h1.304v-1.223h-.136l-.496.633zM26.866 15.654h1.307v-1.22h-1.307zM26.866 19.02h1.307V17.8h-1.307zM26.866 22.529h1.307v-1.222h-1.307z"/><path fill="#8ABF43" mask="url(#b)" d="M27.507 12.377l-1.205-1.364.692-.598.47.533.841-1.073.726.557z"/><path fill="#C9C7C5" mask="url(#b)" d="M29.889 16.814h11.055v-2.38H29.89zM29.889 20.179h11.055v-2.38H29.89zM29.889 23.688h11.055v-2.381H29.89z"/><path d="M56.672 51.284c0 4.336-3.551 7.852-7.932 7.852-4.38 0-7.933-3.516-7.933-7.852 0-4.337 3.552-7.852 7.933-7.852 4.38 0 7.932 3.515 7.932 7.852M15.251 42.424h21.09c1.13 0 2.045.89 2.045 1.986v10.212c0 1.097-.915 1.986-2.046 1.986H15.251c-1.13 0-2.046-.889-2.046-1.986V44.41c0-1.096.916-1.986 2.046-1.986" fill="#585B5C" mask="url(#b)"/><path d="M15.157 45.264h.886c.183 0 .332.147.332.33v.49c0 .183-.149.33-.332.33h-.886a.332.332 0 0 1-.334-.33v-.49c0-.183.149-.33.334-.33M16.994 45.264h.886c.184 0 .334.147.334.33v.49c0 .183-.15.33-.334.33h-.886a.332.332 0 0 1-.333-.33v-.49c0-.183.15-.33.333-.33M18.832 45.264h.886c.184 0 .334.147.334.33v.49c0 .183-.15.33-.334.33h-.886a.332.332 0 0 1-.334-.33v-.49c0-.183.15-.33.334-.33M20.67 45.264h.887a.33.33 0 0 1 .332.33v.49c0 .183-.149.33-.332.33h-.887a.333.333 0 0 1-.334-.33v-.49c0-.183.15-.33.334-.33M22.508 45.264h.887c.183 0 .332.147.332.33v.49c0 .183-.15.33-.332.33h-.887a.331.331 0 0 1-.334-.33v-.49a.33.33 0 0 1 .334-.33M24.346 45.264h.885c.184 0 .333.147.333.33v.49c0 .183-.149.33-.333.33h-.885a.332.332 0 0 1-.334-.33v-.49c0-.183.15-.33.334-.33M26.183 45.264h.886c.184 0 .334.147.334.33v.49c0 .183-.15.33-.334.33h-.886a.332.332 0 0 1-.333-.33v-.49c0-.183.15-.33.333-.33M28.021 45.264h.887a.33.33 0 0 1 .332.33v.49c0 .183-.149.33-.332.33h-.887a.333.333 0 0 1-.334-.33v-.49c0-.183.15-.33.334-.33M29.859 45.264h.886c.184 0 .333.147.333.33v.49c0 .183-.15.33-.333.33h-.886a.332.332 0 0 1-.334-.33v-.49c0-.183.15-.33.334-.33M31.696 45.264h.886a.33.33 0 0 1 .333.33v.49c0 .183-.149.33-.333.33h-.886a.332.332 0 0 1-.333-.33v-.49c0-.183.15-.33.333-.33M33.534 45.264h2.724c.184 0 .333.147.333.33v.49c0 .183-.15.33-.333.33h-2.724a.332.332 0 0 1-.333-.33v-.49c0-.183.15-.33.333-.33M15.157 47.065h.886c.183 0 .332.148.332.33v.491c0 .183-.149.33-.332.33h-.886a.331.331 0 0 1-.334-.33v-.49c0-.183.149-.33.334-.33M16.994 47.065h.886c.184 0 .334.148.334.33v.491c0 .183-.15.33-.334.33h-.886a.332.332 0 0 1-.333-.33v-.49c0-.183.15-.33.333-.33M18.832 47.065h.886c.184 0 .334.148.334.33v.491c0 .183-.15.33-.334.33h-.886a.332.332 0 0 1-.334-.33v-.49c0-.183.15-.33.334-.33M20.67 47.065h.887c.183 0 .332.148.332.33v.491a.33.33 0 0 1-.332.33h-.887a.332.332 0 0 1-.334-.33v-.49c0-.183.15-.33.334-.33M22.508 47.065h.887c.183 0 .332.148.332.33v.491c0 .183-.15.33-.332.33h-.887a.331.331 0 0 1-.334-.33v-.49c0-.183.149-.33.334-.33M24.346 47.065h.885c.184 0 .333.148.333.33v.491c0 .183-.149.33-.333.33h-.885a.332.332 0 0 1-.334-.33v-.49c0-.183.15-.33.334-.33M26.183 47.065h.886c.184 0 .334.148.334.33v.491c0 .183-.15.33-.334.33h-.886a.331.331 0 0 1-.333-.33v-.49c0-.183.15-.33.333-.33M28.021 47.065h.887c.183 0 .332.148.332.33v.491a.33.33 0 0 1-.332.33h-.887a.332.332 0 0 1-.334-.33v-.49c0-.183.15-.33.334-.33M29.859 47.065h.886c.184 0 .333.148.333.33v.491c0 .183-.15.33-.333.33h-.886a.331.331 0 0 1-.334-.33v-.49c0-.183.15-.33.334-.33M31.696 47.065h.886c.184 0 .333.148.333.33v.491a.33.33 0 0 1-.333.33h-.886a.331.331 0 0 1-.333-.33v-.49c0-.183.15-.33.333-.33M33.534 47.065h.886c.184 0 .334.148.334.33v.491c0 .183-.15.33-.334.33h-.886a.331.331 0 0 1-.333-.33v-.49c0-.183.15-.33.333-.33M35.372 47.065h.886c.184 0 .334.148.334.33v.491c0 .183-.15.33-.334.33h-.886a.331.331 0 0 1-.334-.33v-.49c0-.183.15-.33.334-.33M15.157 48.868h.886c.183 0 .332.147.332.33v.49c0 .183-.149.33-.332.33h-.886a.332.332 0 0 1-.334-.33v-.49c0-.183.149-.33.334-.33M16.994 48.868h.886c.184 0 .334.147.334.33v.49c0 .183-.15.33-.334.33h-.886a.332.332 0 0 1-.333-.33v-.49c0-.183.15-.33.333-.33M18.832 48.868h.886c.184 0 .334.147.334.33v.49c0 .183-.15.33-.334.33h-.886a.332.332 0 0 1-.334-.33v-.49c0-.183.15-.33.334-.33M20.67 48.868h.887a.33.33 0 0 1 .332.33v.49c0 .183-.149.33-.332.33h-.887a.333.333 0 0 1-.334-.33v-.49c0-.183.15-.33.334-.33M22.508 48.868h.887c.183 0 .332.147.332.33v.49c0 .183-.15.33-.332.33h-.887a.331.331 0 0 1-.334-.33v-.49a.33.33 0 0 1 .334-.33M24.346 48.868h.885c.184 0 .333.147.333.33v.49c0 .183-.149.33-.333.33h-.885a.332.332 0 0 1-.334-.33v-.49c0-.183.15-.33.334-.33M26.183 48.868h.886c.184 0 .334.147.334.33v.49c0 .183-.15.33-.334.33h-.886a.332.332 0 0 1-.333-.33v-.49c0-.183.15-.33.333-.33M28.021 48.868h.887a.33.33 0 0 1 .332.33v.49c0 .183-.149.33-.332.33h-.887a.333.333 0 0 1-.334-.33v-.49c0-.183.15-.33.334-.33M29.859 48.868h.886c.184 0 .333.147.333.33v.49c0 .183-.15.33-.333.33h-.886a.332.332 0 0 1-.334-.33v-.49c0-.183.15-.33.334-.33M31.696 48.868h.886a.33.33 0 0 1 .333.33v.49c0 .183-.149.33-.333.33h-.886a.332.332 0 0 1-.333-.33v-.49c0-.183.15-.33.333-.33M33.534 48.868h.886c.184 0 .334.147.334.33v.49c0 .183-.15.33-.334.33h-.886a.332.332 0 0 1-.333-.33v-.49c0-.183.15-.33.333-.33M35.372 48.868h.886c.184 0 .334.147.334.33v.49c0 .183-.15.33-.334.33h-.886a.332.332 0 0 1-.334-.33v-.49c0-.183.15-.33.334-.33M15.157 50.67h.886c.183 0 .332.147.332.33v.49c0 .182-.149.33-.332.33h-.886a.332.332 0 0 1-.334-.33V51c0-.183.149-.33.334-.33M16.994 50.67h.886c.184 0 .334.147.334.33v.49c0 .182-.15.33-.334.33h-.886a.333.333 0 0 1-.333-.33V51c0-.183.15-.33.333-.33M18.832 50.67h.886c.184 0 .334.147.334.33v.49c0 .182-.15.33-.334.33h-.886a.333.333 0 0 1-.334-.33V51c0-.183.15-.33.334-.33M20.67 50.67h.887a.33.33 0 0 1 .332.33v.49c0 .182-.149.33-.332.33h-.887a.333.333 0 0 1-.334-.33V51c0-.183.15-.33.334-.33M22.508 50.67h.887c.183 0 .332.147.332.33v.49c0 .182-.15.33-.332.33h-.887a.332.332 0 0 1-.334-.33V51a.33.33 0 0 1 .334-.33M24.346 50.67h.885c.184 0 .333.147.333.33v.49c0 .182-.149.33-.333.33h-.885a.333.333 0 0 1-.334-.33V51c0-.183.15-.33.334-.33M26.183 50.67h.886c.184 0 .334.147.334.33v.49c0 .182-.15.33-.334.33h-.886a.332.332 0 0 1-.333-.33V51c0-.183.15-.33.333-.33M28.021 50.67h.887a.33.33 0 0 1 .332.33v.49c0 .182-.149.33-.332.33h-.887a.333.333 0 0 1-.334-.33V51c0-.183.15-.33.334-.33M29.859 50.67h.886c.184 0 .333.147.333.33v.49c0 .182-.15.33-.333.33h-.886a.332.332 0 0 1-.334-.33V51c0-.183.15-.33.334-.33M31.696 50.67h.886a.33.33 0 0 1 .333.33v.49c0 .182-.149.33-.333.33h-.886a.332.332 0 0 1-.333-.33V51c0-.183.15-.33.333-.33M33.534 50.67h.886c.184 0 .334.147.334.33v.49c0 .182-.15.33-.334.33h-.886a.332.332 0 0 1-.333-.33V51c0-.183.15-.33.333-.33M35.372 50.67h.886c.184 0 .334.147.334.33v.49c0 .182-.15.33-.334.33h-.886a.332.332 0 0 1-.334-.33V51c0-.183.15-.33.334-.33M15.157 52.471h.886c.183 0 .332.147.332.33v.491c0 .182-.149.33-.332.33h-.886a.332.332 0 0 1-.334-.33v-.49c0-.184.149-.33.334-.33M16.994 52.471h.886c.184 0 .334.147.334.33v.491c0 .182-.15.33-.334.33h-.886a.333.333 0 0 1-.333-.33v-.49c0-.184.15-.33.333-.33M18.832 52.471h.886c.184 0 .334.147.334.33v.491c0 .182-.15.33-.334.33h-.886a.333.333 0 0 1-.334-.33v-.49c0-.184.15-.33.334-.33M20.67 52.471h.887a.33.33 0 0 1 .332.33v.491c0 .182-.149.33-.332.33h-.887a.333.333 0 0 1-.334-.33v-.49c0-.184.15-.33.334-.33M29.859 52.471h.886c.184 0 .333.147.333.33v.491c0 .182-.15.33-.333.33h-.886a.332.332 0 0 1-.334-.33v-.49c0-.184.15-.33.334-.33M31.696 52.471h.886a.33.33 0 0 1 .333.33v.491c0 .182-.149.33-.333.33h-.886a.332.332 0 0 1-.333-.33v-.49c0-.184.15-.33.333-.33M33.534 52.471h.886c.184 0 .334.147.334.33v.491c0 .182-.15.33-.334.33h-.886a.332.332 0 0 1-.333-.33v-.49c0-.184.15-.33.333-.33M35.372 52.471h.886c.184 0 .334.147.334.33v.491c0 .182-.15.33-.334.33h-.886a.332.332 0 0 1-.334-.33v-.49c0-.184.15-.33.334-.33M22.508 52.471h6.401c.185 0 .335.147.335.33v.491c0 .182-.15.33-.335.33h-6.4a.332.332 0 0 1-.335-.33v-.49c0-.184.149-.33.334-.33" fill="#37363A" mask="url(#b)"/><path d="M25.578 48.692a.73.73 0 0 0-.734.725v10.46c0 .401.328.727.734.727a.73.73 0 0 0 .733-.726v-10.46a.73.73 0 0 0-.733-.726M27.186 47.791a.73.73 0 0 0-.733.726v10.46c0 .4.33.725.733.725a.73.73 0 0 0 .733-.725v-10.46a.729.729 0 0 0-.733-.726M28.797 47.136a.73.73 0 0 0-.734.725v10.46c0 .401.329.727.734.727a.73.73 0 0 0 .733-.726v-10.46a.73.73 0 0 0-.733-.726M30.407 47.993a.731.731 0 0 0-.735.727v7.556c0 .4.33.725.735.725a.729.729 0 0 0 .733-.725V48.72a.73.73 0 0 0-.733-.727" fill="#FFF" mask="url(#b)"/><path d="M25.675 61.876v-.902c0-.246-.434-.452-.434-.452l.902-7.24h4.264l.733 2.377s.18.055.36-.219c.178-.272.716-1.557.716-1.557s.718-1.515 1.38-1.243c.663.272.36 1.27.36 1.27s-.338 1.573-.525 2.323c-.236.948-.786 1.912-1.242 2.624-.456.71-1.326 1.747-1.629 1.747l-.07 1.272h-4.815z" fill="#FFF" mask="url(#b)"/><path d="M54.8 50.465c0 3.055-1.667 5.532-3.722 5.532-2.055 0-3.722-2.477-3.722-5.532 0-3.056 1.667-5.533 3.722-5.533 2.055 0 3.722 2.477 3.722 5.533" fill="#37363A" mask="url(#b)"/><path fill="#585B5C" mask="url(#b)" d="M51.005 48.43h.145v-3.423h-.145zM47.619 48.634h6.917v-.144h-6.917z"/><path d="M56.181 50.518c.407 0 .734.325.734.726v7.718a.729.729 0 0 1-.734.726.73.73 0 0 1-.733-.726v-7.718a.73.73 0 0 1 .733-.726M54.573 48.607a.73.73 0 0 1 .733.726v8.727a.73.73 0 0 1-.733.726.73.73 0 0 1-.734-.726v-8.727a.73.73 0 0 1 .734-.726M52.962 46.22a.73.73 0 0 1 .734.725v10.46a.73.73 0 0 1-.734.726.73.73 0 0 1-.732-.726v-10.46c0-.4.328-.726.732-.726M51.352 47.653a.73.73 0 0 1 .734.727v6.98a.73.73 0 0 1-.734.725.73.73 0 0 1-.732-.725v-6.98a.73.73 0 0 1 .732-.727" fill="#FFF" mask="url(#b)"/><path d="M56.086 60.959v-.902c0-.246.432-.451.432-.451l-.902-7.24h-4.263l-.733 2.377s-.18.054-.36-.219-.717-1.557-.717-1.557-.717-1.516-1.38-1.243c-.663.272-.36 1.27-.36 1.27s.338 1.572.525 2.323c.236.948.787 1.912 1.242 2.623.455.71 1.326 1.747 1.63 1.747l.068 1.272h4.818z" fill="#FFF" mask="url(#b)"/></g><g transform="translate(24.52 60.804)"><mask id="d" fill="#fff"><use xlink:href="#c"/></mask><path fill="#52818D" mask="url(#d)" d="M.283 9.28h6.523V1.197H.283zM25.915 5.551h6.523V.28h-6.523z"/><path fill="#0D546F" mask="url(#d)" d="M25.915 2.229h6.523V.279h-6.523z"/></g><path fill="#0D546F" d="M24.802 63.95h6.523v-1.949h-6.523z"/><path d="M25.482 62.99c0-.226.186-.41.414-.41.229 0 .414.184.414.41 0 .226-.185.41-.414.41a.413.413 0 0 1-.414-.41M56.277 62.074a.412.412 0 0 0-.414-.41.412.412 0 0 0-.414.41c0 .225.186.41.414.41a.412.412 0 0 0 .414-.41" fill="#37363A"/></g></svg>