<svg width="143" height="143" viewBox="0 0 143 143" xmlns="http://www.w3.org/2000/svg" xmlns:xlink="http://www.w3.org/1999/xlink"><defs><circle id="a" cx="71.5" cy="71.5" r="71.5"/><path id="c" d="M71.438.157v77.215H.441V.157z"/><path id="e" d="M78.57.365v57.763H0V.365h78.57z"/></defs><g fill="none" fill-rule="evenodd"><mask id="b" fill="#fff"><use xlink:href="#a"/></mask><use fill="#C2EAF7" xlink:href="#a"/><g mask="url(#b)"><g transform="translate(37.502 25.149)"><mask id="d" fill="#fff"><use xlink:href="#c"/></mask><path d="M70.474 33.087c2.47 10.03.127 30.875-6.276 44.285-9.887-6.818-44.675-5.3-55.324-.383 0 0-9.312-15.329-8.366-38.416 0 0 3.35-38.793 35.233-38.414 31.88.38 34.733 32.928 34.733 32.928" fill="#38383A" mask="url(#d)"/></g><g transform="translate(34.582 99.59)"><mask id="f" fill="#fff"><use xlink:href="#e"/></mask><path d="M51.145.365H27.424C21.027.365.001 13.55.001 25.827v32.302h78.57V25.827C78.571 13.55 57.54.365 51.145.365" fill="#105573" mask="url(#f)"/></g><path d="M44.082 79.806h-2.626a1.195 1.195 0 0 1-1.199-1.19v-12.71c0-.656.536-1.19 1.199-1.19h2.626c.661 0 1.196.534 1.196 1.19v12.71c0 .655-.535 1.19-1.196 1.19M84.385 98.08c-1.251 0-10.193 3.401-10.193 3.401s-10.525-2.665-11.337-2.805c-.813-.144-6.671 2.618-6.671 2.618 1.47 1.913 16.682 26.058 16.682 26.058h2.651s15.232-23.914 16.698-25.83c0 0-6.579-3.441-7.83-3.441" fill="#E7E5E2"/><path d="M62.202 98.868c-3.365 1.061-8.33 3.934-8.33 3.934-.254 9.292 9.286 18.67 9.286 18.67l1.938-5.944 7.288 12.468 3.883.11 6.707-11.267 2.733 6.327c9.205-14.446 7.794-20.525 7.794-20.525-3.674-2.85-8.31-4.354-8.31-4.354L74.2 124.682 62.202 98.868z" fill="#9ABDCD"/><path d="M104.437 70.47c0 19.655-13.687 35.588-30.57 35.588-16.885 0-30.569-15.933-30.569-35.587 0-19.655 13.684-35.59 30.568-35.59s30.571 15.935 30.571 35.59" fill="#E7E5E2"/><path d="M102.454 68.588c2.505.66 1.727-1.168 1.727-3.874 0-19.652-13.687-35.585-30.57-35.585-16.882 0-30.568 15.933-30.568 35.585 0 2.591.236 5.112.688 7.547 0 0 8.514-7.646 10.574-10.756 2.747-4.149 5.4-12.828 5.4-12.828.948 0 26.408-7.854 42.749 19.911" fill="#38383A"/><path d="M58.924 41.962c.571 5.674 1.707 19.685 26.237 18.736 21.864-.849 16.091 27.128 16.091 27.128l5.773-18.046-4.052-14.985L65.58 35.527" fill="#38383A"/><g><path d="M61.587 73.824c-2.223.168-2.846-3.106-2.176-5.244.126-.406.862-2.249 2.165-2.249 1.302 0 1.876 1.007 1.956 1.18.958 2.085.489 6.13-1.945 6.313M86.402 73.824c2.223.168 2.845-3.106 2.175-5.244-.126-.406-.862-2.249-2.165-2.249-1.301 0-1.876 1.007-1.956 1.18-.957 2.085-.488 6.13 1.946 6.313" fill="#625D58"/><path d="M74.582 76.83c1.33-.204 2.626-.155 3.233.59 1.483 1.821 1.057 3.923-1.438 5.474-1.25.775-3.016 1.093-4.1.614" stroke="#D0BEA3" stroke-width=".506" stroke-linecap="round"/><path d="M84.161 89.086s-2.809 6.426-10.624 6.187c-7.814-.24-10.745-6.187-10.745-6.187" stroke="#583931" stroke-width="1.013" stroke-linecap="round"/></g></g></g></svg>