<svg width="144" height="144" viewBox="0 0 144 144" xmlns="http://www.w3.org/2000/svg" xmlns:xlink="http://www.w3.org/1999/xlink"><defs><path id="a" d="M0 21.374V.484h84.6v20.89H0z"/><path id="c" d="M.031 56.035h84.672V.072H.031v55.963z"/></defs><g fill="none" fill-rule="evenodd"><ellipse cx="72" cy="72" rx="72" ry="72" fill="#9BCEAF"/><path d="M29.031 53.809l-.03-15.205.03 15.205z" fill="#C32026"/><g transform="translate(29 32.436)"><mask id="b" fill="#fff"><use xlink:href="#a"/></mask><path d="M66.865 14.624a2.874 2.874 0 0 1-2.874-2.876 2.876 2.876 0 0 1 2.862-2.89 2.875 2.875 0 0 1 2.873 2.878 2.875 2.875 0 0 1-2.861 2.888m-49.125.1a2.874 2.874 0 0 1-2.873-2.875 2.876 2.876 0 0 1 2.861-2.89 2.875 2.875 0 0 1 2.874 2.878 2.875 2.875 0 0 1-2.862 2.888M81.203.913a5.461 5.461 0 0 0-2.14-.43L5.484.634C2.45.641-.006 3.118 0 6.17L.03 21.374l84.57-.175-.032-15.205A5.525 5.525 0 0 0 81.203.913" fill="#CC2026" mask="url(#b)"/></g><g transform="translate(29 53.564)"><mask id="d" fill="#fff"><use xlink:href="#c"/></mask><path d="M.031.245l.036 17.456.067 32.822c.005 3.05 2.47 5.518 5.505 5.512l73.58-.152c3.035-.006 5.49-2.484 5.484-5.533l-.046-22.357L84.601.072.03.245z" fill="#FFF" mask="url(#d)"/></g><path d="M50.166 53.766l.114 55.8M72.103 53.72l.113 55.801M93.816 53.676l.113 55.8M29.057 66.767l84.57-.173M29.086 80.597l84.57-.173M29.114 94.427l84.57-.173" stroke="#878686" stroke-width="1.883"/><path d="M58.816 92.446c-.5.001-.977-.216-1.305-.599l-4.049-4.725a1.73 1.73 0 0 1 .182-2.432 1.709 1.709 0 0 1 2.42.18l2.633 3.072 7.535-10.449a1.71 1.71 0 0 1 2.396-.384 1.73 1.73 0 0 1 .383 2.41l-8.809 12.215a1.715 1.715 0 0 1-1.386.712" fill="#31AC65"/></g></svg>