<svg width="144" height="145" viewBox="0 0 144 145" xmlns="http://www.w3.org/2000/svg" xmlns:xlink="http://www.w3.org/1999/xlink"><defs><path id="a" d="M0 21.374V.484h84.6v20.89H0z"/><path id="c" d="M.031 56.035h84.672V.072H.031v55.963z"/></defs><g fill="none" fill-rule="evenodd"><ellipse cx="72" cy="72" rx="72" ry="72" transform="translate(0 .523)" fill="#E2AFA7"/><path d="M29.031 54.332l-.03-15.204.03 15.204z" fill="#C32026"/><g transform="translate(29 32.959)"><mask id="b" fill="#fff"><use xlink:href="#a"/></mask><path d="M66.865 14.624a2.874 2.874 0 0 1-2.874-2.876 2.876 2.876 0 0 1 2.862-2.89 2.875 2.875 0 0 1 2.873 2.878 2.875 2.875 0 0 1-2.861 2.888m-49.125.1a2.874 2.874 0 0 1-2.873-2.875 2.876 2.876 0 0 1 2.861-2.89 2.875 2.875 0 0 1 2.874 2.878 2.875 2.875 0 0 1-2.862 2.888M81.203.913a5.461 5.461 0 0 0-2.14-.43L5.484.634C2.45.641-.006 3.118 0 6.17L.03 21.374l84.57-.175-.032-15.205A5.525 5.525 0 0 0 81.203.913" fill="#CC2026" mask="url(#b)"/></g><g transform="translate(29 54.087)"><mask id="d" fill="#fff"><use xlink:href="#c"/></mask><path d="M.031.245l.036 17.456.067 32.822c.005 3.05 2.47 5.518 5.505 5.512l73.58-.152c3.035-.006 5.49-2.484 5.484-5.533l-.046-22.357L84.601.072.03.245z" fill="#FFF" mask="url(#d)"/></g><path d="M50.166 54.289l.114 55.8M72.103 54.244l.113 55.8M93.816 54.2l.113 55.8M29.057 67.29l84.57-.173M29.086 81.12l84.57-.173M29.114 94.95l84.57-.173" stroke="#878686" stroke-width="1.883"/><g fill="#C30000"><path d="M62.805 85.143l1.343-1.825a.98.98 0 0 1 1.354-.213c.435.31.53.907.217 1.335l-4.98 6.765a.046.046 0 0 1-.012.012l-1.343 1.825a.98.98 0 0 1-1.355.213.946.946 0 0 1-.216-1.335l4.979-6.765a.046.046 0 0 1 .013-.012z"/><path d="M64.285 89.99l1.415 1.77a.98.98 0 0 1-.145 1.363.946.946 0 0 1-1.345-.137l-5.246-6.56a.046.046 0 0 1-.009-.016l-1.415-1.77a.98.98 0 0 1 .145-1.363.946.946 0 0 1 1.345.136l5.246 6.56.009.016z"/></g></g></svg>