<svg width="100" height="100" viewBox="0 0 100 100" xmlns="http://www.w3.org/2000/svg" xmlns:xlink="http://www.w3.org/1999/xlink"><defs><circle id="a" cx="50" cy="50" r="50"/></defs><g fill="none" fill-rule="evenodd"><mask id="b" fill="#fff"><use xlink:href="#a"/></mask><use fill="#A4DFF7" xlink:href="#a"/><g mask="url(#b)"><path d="M50.75 62h-7.774C38.784 62 25 70.675 25 78.75V100h51.5V78.75C76.5 70.676 62.716 62 58.524 62H50.75z" fill="#624B7F"/><path d="M71.82 36.615c-.216 0-.418.044-.607.117-.115.013-.224.02-.34.032C69.104 25.801 60.89 17.5 51 17.5c-9.754 0-17.875 8.077-19.793 18.817-.06.1-.133.207-.178.298 0 0-.106.213-.241.117a1.675 1.675 0 0 0-.605-.117c-.93 0-1.683.752-1.683 1.681v6.787a1.675 1.675 0 1 0 2.672 1.353c1.484 6.782 5.455 12.388 10.701 15.454-1.428.574-3.828 1.845-3.828 1.845 1.056 1.551 4.056 8.765 12.95 8.765 8.894 0 11.902-7.214 12.959-8.765 0 0-2.065-1.134-3.727-1.903 5.197-3.079 9.126-8.657 10.6-15.397.281.203.62.329.992.329a1.68 1.68 0 0 0 1.681-1.681v-6.787a1.68 1.68 0 0 0-1.68-1.681" fill="#E7E5E2"/><path d="M43.429 42.422c-1.375.103-1.76-1.923-1.346-3.247.079-.25.534-1.391 1.34-1.391.804 0 1.16.623 1.209.73.591 1.29.3 3.794-1.203 3.908M58.77 42.422c1.375.103 1.76-1.923 1.346-3.247-.078-.25-.533-1.391-1.339-1.391-.804 0-1.16.623-1.209.73-.592 1.29-.302 3.794 1.203 3.908" fill="#635E59"/><path d="M57.386 51.868s-1.737 3.977-6.569 3.83c-4.831-.149-6.643-3.83-6.643-3.83" stroke="#D19E9C" stroke-width="1.013" stroke-linecap="round"/><path d="M32.553 43v-1.806c-.133-5.026 1.661-7.36 3.138-9.132 0 0-1.51 4.202-.884 3.4 3.534-4.535 20.395-.11 23.791-5.962.427 3.221-1.903 2.562-1.903 2.562 3.417.629 4.543-.737 5.346-2.324.265 1.294.6 1.035-.588 1.921 4.2-.773 3.807-1.921 3.807-1.921.597 3.726 4.217 1.752 4.217 7.855V43c0 .277.227.5.507.5h.502c.28 0 .508-.223.508-.5v-4.017c.26-14.07-7.902-23.483-19.136-23.483-10.724 0-20.858 9.384-20.853 21.807L31 43c0 .277.226.5.506.5h.54a.498.498 0 0 0 .38-.18c.096-.148.127-.229.127-.32z" fill="#7F756C"/><path d="M51.442 44.567c.832-.132 1.642-.1 2.023.379.928 1.168.662 2.517-.9 3.515-.781.497-1.887.701-2.565.394" stroke="#D1BFA3" stroke-width=".8" stroke-linecap="round"/></g><path d="M72.197 88.438h-14.72a1.179 1.179 0 0 1-1.19-1.169v-7.781c0-.646.532-1.17 1.19-1.17h14.72c.657 0 1.19.524 1.19 1.17v7.781a1.18 1.18 0 0 1-1.19 1.17" fill="#D2242A"/><path d="M68.714 83.552c0 2.036-1.678 3.689-3.75 3.689-2.075 0-3.754-1.653-3.754-3.69 0-2.036 1.68-3.689 3.754-3.689 2.072 0 3.75 1.653 3.75 3.69M60.103 85.178h-.731l.782-1.885h.733zM69.326 85.178h-.453l.782-1.885h.453zM70.578 85.178h-.192l.78-1.885h.192z" fill="#FFF"/><path d="M62.114 85.169h.576c.03 0 .053-.023.053-.051v-1.764a.051.051 0 0 0-.053-.051h-.582a.065.065 0 0 0-.067.066l-.23.555c-.013.029.01.064.04.064h.165c.025 0 .046.018.046.045v1.085c0 .028.023.05.052.05" fill="#C52D35"/><path d="M63.365 85.169h.578c.03 0 .055-.023.055-.051v-1.764c0-.029-.025-.051-.055-.051h-.898a.067.067 0 0 0-.068.066l-.23.555-.08.064h.46c.103 0 .186.08.186.181v.949c0 .028.023.05.052.05M65.949 83.303h-.578a.052.052 0 0 0-.053.051v1.764c0 .028.024.05.053.05h.584c.039 0 .067-.029.067-.066l.229-.555c.014-.03-.008-.063-.043-.063h-.16a.044.044 0 0 1-.045-.044v-1.086c0-.029-.026-.051-.054-.051" fill="#C52D35"/><path d="M63.573 85.169h.38c.036 0 .066-.03.066-.066l.229-.557a.045.045 0 0 0-.042-.063h-.16l-.473.686zM67.495 83.303h.686c.034 0 .058.031.044.061l-.728 1.776c-.005.018-.022.029-.042.029h-.622l.617-1.836a.049.049 0 0 1 .045-.03" fill="#C52D35"/><path d="M66.633 83.303h-.971c-.069 0 .28.066.304.127l.687 1.68c.014.037.049.059.088.059h.589l-.606-1.803a.093.093 0 0 0-.09-.063M65.365 83.901c0 .376-.048.399-.048.399s-.055-.36-.338-.36c-.277 0-.34.159-.34.277 0 .138.141.267.22.267h.506l-.299.65a.061.061 0 0 1-.055.035h-.23c-.24 0-.868-.31-.868-.91 0-.601.467-.956.856-.956.321 0 .596.217.596.598z" fill="#C52D35"/><path d="M65.805 79.373h-1.593a.211.211 0 0 1-.214-.21V78.9c0-.115.096-.21.214-.21h1.593c.118 0 .213.095.213.21v.264c0 .116-.095.21-.213.21" fill="#5A1F57"/><path fill="#C2B5CF" d="M64.547 79.097h.923v-2.715h-.923z"/><path d="M31.23 46.42c.66 1.554 1.66 4.105 1.846 4.655.267.793.794 2.073 1.581 3.84l.96 1.48-3.125.73c.27-1.104.437-1.945.503-2.523.03-.272-.265-.867-.503-2.04-.166-.819-.587-3.38-1.567-6.018-.037-.1.024-.097.105-.124.085-.027.114-.2.2 0zM70.893 46.414c-.1.319-.422 1.13-.969 2.433a599.437 599.437 0 0 1-2.465 5.758l-1.731 2.468 3.376-.328a4.06 4.06 0 0 1-.36-1.715c0-.515.588-2.577 1.572-6.183.083-.306.45-1.888.577-2.433.053-.226.053-.226 0 0zM49.281 58.5h3.376l-.371 4h-2.592z" fill="#7F756C"/></g></svg>