<svg width="119" height="119" viewBox="0 0 119 119" xmlns="http://www.w3.org/2000/svg"><g fill="none" fill-rule="evenodd"><path d="M117.398 59.607c0 31.606-25.917 57.228-57.887 57.228S1.624 91.213 1.624 59.607 27.54 2.38 59.51 2.38s57.887 25.622 57.887 57.228z" fill="#FFF"/><path d="M117.398 59.607c0 31.606-25.917 57.228-57.887 57.228S1.624 91.213 1.624 59.607 27.54 2.38 59.51 2.38s57.887 25.622 57.887 57.228h0z" stroke="#BCCFCF" stroke-width="3.134"/><path d="M90.015 46.91h-.06c0-18.309-13.353-33.153-29.824-33.153-16.472 0-29.826 14.844-29.826 33.154l.001.016c-.006 15.637-8.158 24.578-8.158 24.578s8.05 9.768 37.984 9.768h.058c29.932 0 37.983-9.768 37.983-9.768s-8.158-8.947-8.158-24.594" fill="#E57D61"/><path d="M62.333 67.18c16.108 0 28.806 11.835 28.806 25.996V105.3c0 .54-13.275 9.503-30.75 9.503-16.28 0-25.327-5.15-31.007-8.572-.844-3.469-1.5-8.905-1.5-13.056 0-14.161 18.345-25.996 34.451-25.996l3.972 11.431" fill="#5F224E"/><path d="M84.512 41.433c-.25 0-.489.051-.709.135-7.37-9.802-21.58-.752-32.426-10.119-1.39-1.465-2.114-2.486-2.304-2.486 0 0-10.52 9.016-12.271 12.47 0 0-.123.247-.283.135a1.957 1.957 0 0 0-2.642 1.479c-.04.155-.068.315-.068.482v7.86c0 1.074.881 1.946 1.969 1.946.436 0 .835-.144 1.161-.382 1.606 7.263 5.703 13.36 11.167 17.045-1.403.522-3.846 1.722-3.846 1.722 1.236 1.793 5.492 11.214 15.895 11.214 10.402 0 15.91-9.62 16.945-12.086 0 0-1.533-1.04-3.782-1.639 4.91-3.735 8.567-9.49 10.063-16.256.327.238.726.382 1.162.382 1.087 0 1.969-.872 1.969-1.946v-7.86c0-.167-.028-.327-.068-.482a1.956 1.956 0 0 0-1.932-1.614z" fill="#F2EFEE"/><path d="M75.187 94.667h-1.712a.424.424 0 0 1-.426-.421v-.03c0-.233.191-.421.426-.421h1.712c.236 0 .426.188.426.421v.03c0 .232-.19.42-.426.42" fill="#5F224E"/><path d="M51.031 49.411c-1.763.134-2.256-2.477-1.726-4.182.1-.324.684-1.795 1.718-1.795 1.032 0 1.488.804 1.551.942.76 1.663.388 4.889-1.543 5.035M70.713 49.411c1.764.134 2.257-2.477 1.726-4.182-.1-.324-.683-1.795-1.717-1.795-1.032 0-1.488.804-1.551.942-.76 1.663-.388 4.889 1.542 5.035" fill="#78ACCD"/><path d="M61.339 51.372c1.053-.163 2.082-.123 2.564.472 1.176 1.451.838 3.127-1.141 4.365-.99.619-2.392.872-3.251.49" fill="#F2EFEE"/><path d="M61.339 51.372c1.053-.163 2.082-.123 2.564.472 1.176 1.451.838 3.127-1.141 4.365-.99.619-2.392.872-3.251.49" stroke="#D2C1A4" stroke-width=".506" stroke-linecap="round"/><path fill="#F2EFEE" d="M58.079 88.93h5.18l9.383-11.62H48.136z"/><path d="M85.781 103.496H66.93a.908.908 0 0 1-.913-.903v-10.5c0-.498.408-.902.913-.902H85.78c.505 0 .913.404.913.902v10.5a.908.908 0 0 1-.913.903" fill="#CD1719"/><path d="M81.044 97.554c0 2.476-2.03 4.486-4.535 4.486-2.509 0-4.54-2.01-4.54-4.486 0-2.477 2.031-4.487 4.54-4.487 2.505 0 4.535 2.01 4.535 4.487M70.631 99.531h-.885l.946-2.293h.887zM81.785 99.531h-.55l.947-2.293h.548zM83.298 99.531h-.232l.944-2.293h.232z" fill="#FFF"/><path d="M73.062 99.52h.697c.037 0 .064-.027.064-.062v-2.144a.062.062 0 0 0-.064-.063h-.704a.08.08 0 0 0-.08.08l-.278.677c-.017.034.011.076.049.076h.199c.03 0 .055.022.055.055v1.32a.06.06 0 0 0 .062.06" fill="#C42229"/><path d="M74.576 99.52h.698c.037 0 .067-.027.067-.062v-2.144c0-.035-.03-.063-.067-.063H74.19a.082.082 0 0 0-.083.08l-.277.677-.096.076h.555c.124 0 .225.097.225.221v1.153a.06.06 0 0 0 .063.062M77.002 97.251a.063.063 0 0 0-.065.062v2.145c0 .034.03.062.065.062h.705a.08.08 0 0 0 .082-.08l.276-.676c.017-.037-.01-.077-.052-.077h-.193a.053.053 0 0 1-.054-.053v-1.321c0-.035-.033-.062-.066-.062h-.698z" fill="#C42229"/><path d="M74.826 99.52h.46a.082.082 0 0 0 .08-.08l.277-.677c.016-.035-.01-.076-.051-.076h-.194l-.572.833zM79.57 97.251h.83c.04 0 .07.038.052.075l-.88 2.16c-.006.021-.027.034-.052.034h-.75l.746-2.232a.056.056 0 0 1 .053-.037" fill="#C42229"/><path d="M78.528 97.251h-1.175c-.082 0 .338.08.367.155l.831 2.043a.11.11 0 0 0 .106.07h.713l-.733-2.192a.111.111 0 0 0-.11-.076M76.273 97.251c.39 0 .72.264.72.728 0 .457-.058.484-.058.484s-.066-.438-.408-.438c-.335 0-.412.194-.412.338 0 .168.172.324.267.324h.611l-.36.79a.074.074 0 0 1-.067.043h-.278c-.291 0-1.05-.377-1.05-1.106 0-.732.564-1.163 1.035-1.163" fill="#C42229"/><path d="M77.62 92.472h-2.115a.162.162 0 0 1-.164-.161v-.507c0-.09.073-.162.164-.162h2.115c.09 0 .163.072.163.162v.507c0 .09-.073.161-.163.161" fill="#5B1F52"/><path fill="#86497E" d="M76.004 92.137h1.116v-3.302h-1.116z"/><path d="M54 61.507s2.553 3.038 6.978 3.038c4.426 0 7.095-3.038 7.095-3.038" stroke="#D19E9D" stroke-width=".6"/></g></svg>