<svg width="66" height="66" viewBox="0 0 66 66" xmlns="http://www.w3.org/2000/svg"><g fill="none" fill-rule="evenodd"><path d="M64.675 33.038c0 17.577-14.178 31.826-31.667 31.826S1.341 50.615 1.341 33.038C1.341 15.46 15.52 1.21 33.008 1.21s31.667 14.25 31.667 31.827z" fill="#FFF" fill-rule="nonzero"/><path d="M65 32.827c0 17.577-14.178 31.826-31.666 31.826-17.49 0-31.667-14.249-31.667-31.826C1.667 15.249 15.845 1 33.334 1 50.822 1 65 15.25 65 32.827h0z" stroke="#BCCFCF" stroke-width="2" fill="#FFF" fill-rule="nonzero"/><path d="M53.133 28.969h-.04c0-12.47-8.945-22.58-19.98-22.58-11.034 0-19.98 10.11-19.98 22.58l.001.01C13.13 39.63 7.67 45.72 7.67 45.72s5.393 6.652 25.445 6.652h.04c20.051 0 25.444-6.653 25.444-6.653s-5.465-6.093-5.465-16.75" fill="#E57D61" fill-rule="nonzero"/><path d="M53.286 56.496a30.025 30.025 0 0 1-19.494 7.158c-7.728 0-14.779-2.914-20.124-7.708 2.454-7.584 12.506-13.414 21.473-13.414 9.183 0 16.634 6.114 18.145 13.964z" fill="#5F224E" fill-rule="nonzero"/><path d="M51.564 25.896a1.317 1.317 0 0 0-1.294-1.099c-.168 0-.327.035-.474.092l-.056.005c-4.882-6.68-14.401-.517-21.667-6.897-.931-.997-1.416-1.693-1.544-1.693 0 0-7.046 6.14-8.22 8.493 0 0-.082.168-.19.092a1.3 1.3 0 0 0-.473-.092c-.652 0-1.19.476-1.296 1.1a1.31 1.31 0 0 0-.046.328v5.352c0 .732.59 1.326 1.32 1.326.291 0 .559-.099.777-.26 1.076 4.946 3.82 9.098 7.48 11.608-.94.355-2.576 1.172-2.576 1.172.828 1.222 3.68 7.638 10.648 7.638 6.969 0 10.66-6.552 11.352-8.231 0 0-1.027-.709-2.534-1.117 3.29-2.543 5.74-6.463 6.742-11.07.219.161.486.26.778.26.728 0 1.32-.594 1.32-1.326v-5.352a1.31 1.31 0 0 0-.047-.329" fill="#F2EFEE" fill-rule="nonzero"/><path d="M27.335 30.114c-1.181.091-1.512-1.687-1.156-2.848.067-.22.458-1.223 1.15-1.223s.998.548 1.04.642c.508 1.133.26 3.33-1.034 3.43M39.845 30.114c1.181.091 1.512-1.687 1.156-2.848-.067-.22-.458-1.223-1.15-1.223s-.997.548-1.04.642c-.508 1.133-.26 3.33 1.034 3.43" fill="#78ACCD" fill-rule="nonzero"/><path d="M33.067 31.992c.706-.111 1.395-.084 1.718.321.788.989.561 2.13-.765 2.973-.663.421-1.602.594-2.178.334" fill="#F2EFEE" fill-rule="nonzero"/><path d="M33.067 31.992c.706-.111 1.395-.084 1.718.321.788.989.561 2.13-.765 2.973-.663.421-1.602.594-2.178.334" stroke="#D2C1A4" stroke-width=".506" stroke-linecap="round"/><path d="M30 39s1.101 1.31 3.01 1.31c1.909 0 3.06-1.31 3.06-1.31" stroke="#D19E9D" stroke-width=".6" stroke-linecap="round" stroke-linejoin="bevel"/></g></svg>