<svg width="150" height="150" viewBox="0 0 150 150" xmlns="http://www.w3.org/2000/svg" xmlns:xlink="http://www.w3.org/1999/xlink"><defs><ellipse id="a" cx="74.882" cy="74.969" rx="74.882" ry="74.969"/></defs><g fill="none" fill-rule="evenodd"><mask id="b" fill="#fff"><use xlink:href="#a"/></mask><use fill="#C9E9F1" xlink:href="#a"/><g mask="url(#b)"><path d="M13.287 62.903c-.644.239-.972.955-.734 1.6l6.219 16.827c.238.645.953.973 1.597.734.642-.238.971-.954.734-1.6l-6.22-16.826a1.242 1.242 0 0 0-1.596-.735M15.308 60.506a1.246 1.246 0 0 0-.734 1.6l6.22 16.825a1.242 1.242 0 1 0 2.33-.864L16.905 61.24a1.24 1.24 0 0 0-1.597-.734M17.479 58.501c-.644.24-.974.956-.735 1.6l6.219 16.828a1.243 1.243 0 1 0 2.33-.866l-6.22-16.827a1.24 1.24 0 0 0-1.594-.735M20.546 58.93c-.642.24-.972.957-.734 1.601l4.493 12.156a1.244 1.244 0 0 0 2.331-.865l-4.493-12.155a1.242 1.242 0 0 0-1.597-.736" fill="#E7E5E2"/><path d="M21.28 84.054l-.537-1.451c-.146-.396-.958-.47-.958-.47l-2.87-12.18 6.775-2.515 2.58 3.392s.318-.017.44-.563c.123-.545.214-2.929.214-2.929s.24-2.86 1.455-2.814c1.215.049 1.326 1.832 1.326 1.832s.398 2.73.546 4.046c.189 1.666-.112 3.541-.412 4.954-.303 1.41-1.068 3.59-1.55 3.77l.645 2.087-7.655 2.84z" fill="#E7E5E2"/><path d="M70.169 110.497l-21.573 11.025-6.325 2.207c-4.407 1.536-9.223-.798-10.757-5.215l-1.636-4.707-10.293-29.636 10.689-3.727 12.177 27.302 21.628-14.782 6.09 17.533z" fill="#105573"/><path d="M64.944 109.336l7.599 6.69v.002h38.642v48.97h11.32V109.336c0-10.831-18.437-22.468-24.043-22.468H77.667c-3.688 0-8.028 2.245-13.588 6.095" fill="#105573"/><path d="M111.408 165V92.962c-4.932-3.666-10.163-6.095-12.723-6.095H77.89c-2.56 0-7.79 2.429-12.723 6.095V164.997l46.241.002z" fill="#105573"/><path d="M115.087 58.68c0 17.344-12 31.406-26.8 31.406S61.49 76.024 61.49 58.681c0-17.343 11.997-31.403 26.798-31.403 14.8 0 26.8 14.06 26.8 31.403" fill="#E7E5E2"/><path d="M89.357 26c-23.982 0-27.63 23.727-27.63 28.494l.54.982c.625-10.45 7.282-16.906 11.082-20.529 0 0 9.574 2.319 15.957 2.342v.003l.051-.002.051.002v-.003c6.383-.023 15.959-2.342 15.959-2.342 3.798 3.623 8.494 10.08 9.118 20.53l.602-.983c0-4.767-1.746-28.494-25.73-28.494" fill="#8B5F26"/><path d="M115.55 66.918a2.204 2.204 0 0 1-2.202-2.206v-8.904c0-1.22.988-2.208 2.202-2.208 1.217 0 2.202.987 2.202 2.208v8.904c0 1.22-.985 2.206-2.202 2.206M61.025 66.918a2.203 2.203 0 0 1-2.202-2.206v-8.904c0-1.22.986-2.208 2.202-2.208 1.217 0 2.202.987 2.202 2.208v8.904c0 1.22-.985 2.206-2.202 2.206" fill="#E7E5E2"/><g><path d="M79.01 58.995c-1.838.134-2.352-2.485-1.8-4.196.106-.324.714-1.799 1.79-1.799s1.551.806 1.617.944c.791 1.668.403 4.904-1.607 5.051M99.99 58.995c1.838.134 2.353-2.485 1.799-4.196-.104-.324-.712-1.799-1.79-1.799-1.075 0-1.55.806-1.616.944-.791 1.668-.404 4.904 1.608 5.051" fill="#635E59"/><path d="M89.803 62.089c1.04-.175 2.053-.133 2.528.506 1.16 1.557.827 3.356-1.126 4.686-.976.663-2.358.935-3.205.525" stroke="#D1BFA3" stroke-width=".506" stroke-linecap="round"/><path d="M98 73s-2.366 5.188-8.949 4.995C82.468 77.8 80 73 80 73" stroke="#593A32" stroke-width="1.013" stroke-linecap="round"/></g></g></g></svg>