<svg width="80" height="81" viewBox="0 0 80 81" xmlns="http://www.w3.org/2000/svg" xmlns:xlink="http://www.w3.org/1999/xlink"><defs><ellipse id="a" cx="39.994" cy="40.251" rx="39.994" ry="40.149"/></defs><g fill="none" fill-rule="evenodd"><mask id="b" fill="#fff"><use xlink:href="#a"/></mask><use fill="#E2AFA7" xlink:href="#a"/><g mask="url(#b)"><path d="M20.504 35.95V65.7s-.074-7.8 18.9-7.8c18.975 0-.546-21.949-.546-21.949H20.504z" fill="#303339"/><path d="M58.594 35.95V65.7s-.057-7.8-19.03-7.8c-18.975 0 .415-21.949.415-21.949h18.615z" fill="#303339"/><path d="M39.4 57.007c-10.442 0-18.905-9.532-18.905-21.29s8.463-21.29 18.905-21.29c10.44 0 18.905 9.532 18.905 21.29S49.84 57.006 39.4 57.006z" fill="#303339"/><path d="M45.649 50.362H33.256c-3.34 0-14.445 7.088-14.445 13.541v16.978h41.476V63.903c0-6.453-11.298-13.541-14.638-13.541" fill="#8E9738"/><path d="M45.282 49.868c-.716 0-5.83 2.19-5.83 2.19s-6.02-1.716-6.485-1.806c-.465-.092-3.816 1.686-3.816 1.686.84 1.236 3.227 6.985 10.302 6.985 7.074 0 9.467-5.75 10.308-6.985 0 0-3.762-2.07-4.479-2.07" fill="#E7E5E2"/><path d="M23.866 31.995s-.08.165-.187.09c-.147-.057-.155-.09-.32-.09-.726 0-1.161.588-1.161 1.313v5.305c0 .727.435 1.314 1.16 1.314.29 0 .48-.096.697-.257 1.764 8.082 7.985 14.058 15.435 14.058s13.69-5.976 15.454-14.058c.217.16.419.257.709.257.726 0 1.248-.587 1.248-1.314v-5.305c0-.725-.533-1.313-1.257-1.313-.168 0-.31.17-.446.09-15.798-9.281-31.332-.09-31.332-.09" fill="#E7E5E2"/><path fill="#FFF" d="M49.64 51.729L32.311 80.88h19.512V52.906"/><path fill="#FFF" d="M29.053 51.6L37.9 80.033h-3.006"/><g><path d="M42.446 46.588s-.507-.833-1.802-.75l-1.294.083" stroke="#D19E9C" stroke-width="1.013" stroke-linecap="round"/><path d="M34.324 39.023c-1.066.067-1.365-1.254-1.044-2.115.06-.164.414-.908 1.04-.908.624 0 .9.407.938.476.459.841.233 2.473-.934 2.547M45.15 39.023c1.066.067 1.365-1.254 1.043-2.115-.06-.164-.413-.908-1.038-.908s-.9.407-.939.476c-.46.841-.234 2.473.933 2.547" fill="#635E59"/><path d="M40.466 40.583c.644-.089 1.272-.067 1.566.255.718.785.512 1.693-.697 2.362-.605.335-1.46.472-1.985.265" stroke="#D1BFA3" stroke-width=".506" stroke-linecap="round"/></g></g></g></svg>