<svg width="152" height="152" viewBox="0 0 152 152" xmlns="http://www.w3.org/2000/svg" xmlns:xlink="http://www.w3.org/1999/xlink"><defs><ellipse id="a" cx="75.989" cy="75.838" rx="75.989" ry="75.838"/><path id="c" d="M77.808.246V57.15H0V.246h77.808z"/><path id="e" d="M0 .655h4.394v2.796H0V.655z"/><path id="g" d="M0 .655h4.395v2.796H0V.655z"/></defs><g fill="none" fill-rule="evenodd"><g transform="translate(0 .191)"><mask id="b" fill="#fff"><use xlink:href="#a"/></mask><use fill="#E2AFA7" xlink:href="#a"/><g mask="url(#b)"><g transform="translate(37.165 95.564)"><mask id="d" fill="#fff"><use xlink:href="#c"/></mask><path d="M50.347.246H27.098C20.83.246 0 13.462 0 25.493V57.15h77.808V25.493C77.808 13.462 56.613.246 50.347.246" fill="#8FA14D" mask="url(#d)"/></g><path d="M86.825 94.888c-1.344 0-10.939 4.086-10.939 4.086s-11.294-3.2-12.166-3.37c-.872-.17-7.157 3.145-7.157 3.145 1.574 2.304 6.052 13.022 19.323 13.022 13.272 0 17.762-10.718 19.34-13.022 0 0-7.058-3.86-8.401-3.86" fill="#E6E4E1"/><path d="M46.648 61.564s-.152.309-.351.17c-.276-.107-.29-.17-.603-.17-1.36 0-2.178 1.096-2.178 2.449v9.892c0 1.353.817 2.45 2.178 2.45.544 0 .901-.18 1.307-.48 3.312 15.07 14.982 26.21 28.958 26.21 13.975 0 25.679-11.14 28.99-26.21.407.3.785.48 1.33.48 1.361 0 2.341-1.097 2.341-2.45v-9.892c0-1.353-1-2.449-2.356-2.449-.316 0-.562.063-.839.17-31.515 3.64-58.777-.17-58.777-.17" fill="#E6E4E1"/><path fill="#FEFEFE" d="M94.998 98.358L62.49 152.713h36.603v-52.16"/><path fill="#FEFEFE" d="M56.378 98.118l16.596 53.015h-5.638"/><path d="M106.023 67.404c0 19.26-13.411 34.874-29.955 34.874-16.542 0-29.953-15.613-29.953-34.874 0-19.258 13.411-34.87 29.953-34.87 16.544 0 29.955 15.612 29.955 34.87" fill="#E6E4E1"/><path d="M52.946 43.61c-.871.561-7.291 3.646-7.577 19.606-.046 2.505.135 4.99 1.33 4.925l2.075.001c.659-9.26 2.38-16.013 4.12-18.48 4.754-6.73.954-6.494.052-6.052M99.388 43.61c.871.561 7.291 3.646 7.577 19.606.046 2.505-.135 4.99-1.33 4.925l-2.074.001c-.66-9.26-2.38-16.013-4.121-18.48-4.754-6.73-.953-6.494-.052-6.052" fill="#333332"/><path d="M108.48 54.188c-.519-16.84-11.272-30.762-25.512-34.218v-4.99H69.17v4.99c-14.24 3.456-24.993 17.377-25.512 34.218h-3.538v6.635h71.9v-6.635h-3.538z" fill="#FCBC68"/><path d="M75.78 88.677c-4.98 0-9.016-1.983-9.016-4.429S70.8 79.82 75.78 79.82c4.98 0 9.015 1.983 9.015 4.43 0 2.445-4.036 4.428-9.015 4.428m11.332-9.69c-4.491-2.992-7.057-2.561-11.236-2.561-4.178 0-7.391.382-12.501 2.903-12.806 6.32-16.754-5.446-17.039-11.841l-.52-.229c0 26.123 18.59 35.137 29.87 35.137 11.458 0 29.857-8.315 30.491-35.137l-.713.529c-1.095 6.77-4.9 20.165-18.352 11.2" fill="#B9B7B4"/></g></g><g transform="translate(82 65.345)"><mask id="f" fill="#fff"><use xlink:href="#e"/></mask><path d="M4.025 3.178c1.036-.72-.3-1.93-1.635-2.347C2.137.75.918.445.359.896c-.56.45-.312.956-.261 1.036.61.965 2.793 2.033 3.927 1.246" fill="#635E59" mask="url(#f)"/></g><g transform="translate(67 65.345)"><mask id="h" fill="#fff"><use xlink:href="#g"/></mask><path d="M.37 3.178c1.133.787 3.316-.281 3.926-1.246.051-.08.298-.585-.26-1.036C3.475.445 2.256.75 2.003.83.67 1.249-.666 2.459.37 3.178" fill="#635E59" mask="url(#h)"/></g><path d="M71.504 82.838s1.24-2.135 4.694-2.055c3.453.08 4.748 2.055 4.748 2.055" stroke="#D19E9C" stroke-width="1.013" stroke-linecap="round"/><path d="M76.496 71.795c.866-.133 1.71-.1 2.105.385.964 1.186.687 2.555-.937 3.566-.812.505-1.962.712-2.667.4" stroke="#D1BFA3" stroke-width=".506" stroke-linecap="round"/></g></svg>