<svg width="150" height="149" viewBox="0 0 150 149" xmlns="http://www.w3.org/2000/svg" xmlns:xlink="http://www.w3.org/1999/xlink"><defs><ellipse id="a" cx="74.99" cy="74.538" rx="74.99" ry="74.351"/></defs><g fill="none" fill-rule="evenodd"><mask id="b" fill="#fff"><use xlink:href="#a"/></mask><use fill="#E2AFA7" xlink:href="#a"/><g mask="url(#b)"><path d="M38.446 66.575v55.09s-.14-14.444 35.437-14.444c35.578 0-1.023-40.646-1.023-40.646H38.446z" fill="#303339"/><path d="M109.864 66.575v55.09s-.107-14.444-35.682-14.444c-35.578 0 .779-40.646.779-40.646h34.903z" fill="#303339"/><path d="M73.876 105.568c-19.579 0-35.447-17.651-35.447-39.427 0-21.772 15.868-39.425 35.447-39.425 19.575 0 35.446 17.653 35.446 39.425 0 21.776-15.871 39.427-35.446 39.427z" fill="#303339"/><path d="M85.591 93.263H62.355c-6.264 0-27.085 13.126-27.085 25.076v31.44h77.768v-31.44c0-11.95-21.184-25.076-27.447-25.076" fill="#8E9738"/><path d="M84.904 92.347c-1.343 0-10.93 4.058-10.93 4.058s-11.29-3.179-12.16-3.346c-.874-.17-7.155 3.123-7.155 3.123 1.573 2.288 6.05 12.934 19.315 12.934 13.264 0 17.752-10.646 19.328-12.934 0 0-7.054-3.835-8.398-3.835" fill="#E7E5E2"/><path d="M44.75 59.25s-.153.306-.352.168c-.276-.106-.29-.169-.602-.169-1.359 0-2.176 1.09-2.176 2.432v9.825c0 1.346.817 2.433 2.176 2.433.544 0 .9-.179 1.307-.477 3.308 14.969 14.972 26.034 28.94 26.034 13.97 0 25.668-11.065 28.977-26.034.408.298.785.477 1.329.477 1.36 0 2.34-1.087 2.34-2.433V61.68c0-1.343-1-2.432-2.356-2.432-.316 0-.583.317-.837.17-29.62-17.19-58.746-.17-58.746-.17" fill="#E7E5E2"/><path fill="#FFF" d="M93.074 95.794l-32.49 53.985H97.17V97.973"/><path fill="#FFF" d="M54.474 95.555l16.589 52.655h-5.637"/><g><path d="M79.586 86.275s-.95-1.544-3.378-1.39l-2.427.154" stroke="#D19E9C" stroke-width="1.013" stroke-linecap="round"/><path d="M64.358 72.264c-2 .125-2.56-2.32-1.957-3.917.113-.303.775-1.68 1.948-1.68 1.17 0 1.687.753 1.76.882.86 1.557.437 4.578-1.75 4.715M84.655 72.264c2 .125 2.56-2.32 1.957-3.917-.113-.303-.775-1.68-1.947-1.68-1.171 0-1.688.753-1.76.882-.861 1.557-.44 4.578 1.75 4.715" fill="#635E59"/><path d="M75.874 75.153c1.207-.163 2.385-.124 2.936.472 1.346 1.455.96 3.135-1.306 4.376-1.135.62-2.74.873-3.723.49" stroke="#D1BFA3" stroke-width=".506" stroke-linecap="round"/></g></g></g></svg>