<svg width="72" height="72" viewBox="0 0 72 72" xmlns="http://www.w3.org/2000/svg" xmlns:xlink="http://www.w3.org/1999/xlink"><defs><ellipse id="a" cx="35.944" cy="35.985" rx="35.944" ry="35.985"/><path id="c" d="M0 56.442h59.816V.004H0z"/><path id="e" d="M.03 4.314l.943.881 2.3-1.036 2.15-.09-.989-1.563-1.227-.712V1.31L1.855.257H.031z"/><path id="g" d="M.212 3.48L1.45 4.637 3.75 3.6l2.15-.09-.989-1.563-1.227-.712V.751l-.411-.32H.213V3.48z"/><path id="i" d="M.449 2.087L1.982 3.52l2.3-1.036 2.15-.09L5.442.83 4.217.12V.047H.449v2.04z"/><path id="k" d="M6.805 1.907L1.787.161.299.057l2.912 3.237h3.594V1.907z"/><path id="m" d="M3.696 4.027l.087-.096L.3.057 1.787.16 6.51 1.804v2.223H3.696z"/><path id="o" d="M4.08 4.76l-.714-.372.417-.457L.3.057 1.787.16 6.214 1.7v3.06H4.08z"/></defs><g fill="none" fill-rule="evenodd"><mask id="b" fill="#fff"><use xlink:href="#a"/></mask><use fill="#C2EAF7" xlink:href="#a"/><g mask="url(#b)"><g transform="translate(5.245 10.055)"><path d="M43.123 3.878c1.09 0 1.974.928 1.974 2.073v35.007c0 1.145-.884 2.073-1.974 2.073H16.69a1.917 1.917 0 0 1-1.396-.607 2.087 2.087 0 0 1-.489-.85 2.154 2.154 0 0 1-.088-.616V5.951c0-1.145.883-2.073 1.973-2.073h26.432z" fill="#585B5C"/><path d="M17.164 11.53v26.935c0 .96.741 1.74 1.656 1.74h22.175c.914 0 1.656-.78 1.656-1.74V7.54c0-.96-.742-1.739-1.656-1.739H22.927l-5.763 5.73z" fill="#FFF"/><path d="M22.927 5.8v3.991c0 .96-.741 1.739-1.656 1.739h-4.108l5.764-5.73z" fill="#CCCAC8"/><mask id="d" fill="#fff"><use xlink:href="#c"/></mask><path fill="#CCCAC8" mask="url(#d)" d="M25.618 20.538h12.307v-1.443H25.618zM25.618 23.804h12.307V22.36H25.618zM25.618 27.07h12.307v-1.444H25.618zM25.618 30.335h12.307V28.89H25.618zM22.254 20.538h1.452v-1.443h-1.452zM22.254 23.804h1.452V22.36h-1.452zM22.254 27.07h1.452v-1.444h-1.452zM22.254 30.335h1.452V28.89h-1.452z"/><path stroke="#8DC63F" stroke-width=".423" mask="url(#d)" d="M22.07 18.72l.932 1.121 1.316-1.782"/><path d="M29.907 4.852c-.352 0-.638-.3-.638-.67 0-.37.286-.67.638-.67.353 0 .638.3.638.67 0 .37-.285.67-.638.67m3.946-2.742h-2.377v-.46c0-.91-.703-1.646-1.569-1.646S28.34.74 28.34 1.65v.46H25.96c-1.172 0-2.122.997-2.122 2.228v2.68h12.137V4.34c0-1.23-.95-2.229-2.123-2.229" fill="#37363A" mask="url(#d)"/><path fill="#8D9638" mask="url(#d)" d="M3.906 45.392l9.525 3.532-2.529 7.518H0z"/><path fill="#8FA14D" mask="url(#d)" d="M3.906 45.392l9.525 3.532-1.016 3.02-9.525-3.533z"/><path d="M4.385 47.292a.633.633 0 0 1 .818-.41.682.682 0 0 1 .39.858.633.633 0 0 1-.817.41.682.682 0 0 1-.39-.858" fill="#37363A" mask="url(#d)"/><path fill="#8D9638" mask="url(#d)" d="M55.91 45.392l-9.525 3.532 2.529 7.518h10.902z"/><path fill="#8FA14D" mask="url(#d)" d="M55.91 45.392l-9.525 3.532 1.016 3.02 9.525-3.533z"/><path d="M55.431 47.292a.633.633 0 0 0-.818-.41.682.682 0 0 0-.39.858c.117.35.483.535.817.41a.682.682 0 0 0 .391-.858" fill="#37363A" mask="url(#d)"/><path d="M11.376 42.575l.15.114c.713.541 1.71.373 2.225-.376l5.292-7.683c.516-.749.355-1.795-.357-2.336l-.151-.114c-.713-.542-1.71-.374-2.225.375l-5.291 7.684c-.516.749-.356 1.794.357 2.336" fill="#E7E6E2" mask="url(#d)"/><path d="M14.414 35.308v-5.866h-.482a.38.38 0 0 0-.282.126c-.8.877-5.518 6.052-6.364 7.032a.947.947 0 0 0-.195.367L4.68 45.68l7.322 2.716s.117-.577.235-1.235c.117-.657 1.768-2.713 2.176-3.74.408-1.028.554-2.873 1.186-3.791.632-.918-1.186-4.321-1.186-4.321" fill="#E7E6E2" mask="url(#d)"/></g><path d="M54.05 46.234l.628-1.554a.327.327 0 0 1 .436-.186l.81.36c.17.075.248.28.177.458l-.627 1.555a.327.327 0 0 1-.437.185l-.809-.36a.356.356 0 0 1-.177-.458" fill="#C5232A"/><path fill="#E9D8BD" d="M40.928 38.188l-2.914.001 2.028 2.198.75-1.014z"/><g transform="translate(40.813 38.026)"><mask id="f" fill="#fff"><use xlink:href="#e"/></mask><path fill="#EEC85D" mask="url(#f)" d="M14.008 7.202l.296-.733L.327.257.03.989z"/></g><g transform="translate(40.336 38.584)"><mask id="h" fill="#fff"><use xlink:href="#g"/></mask><path fill="#E2B954" mask="url(#h)" d="M.212 1.164L14.19 7.377l.295-.733L.508.43z"/></g><g transform="translate(39.804 39.7)"><mask id="j" fill="#fff"><use xlink:href="#i"/></mask><path fill="#EEC85D" mask="url(#j)" d="M14.721 6.26L.744.047.449.78l13.977 6.213z"/></g><path d="M40.683 38.362c-.056.138.073.305-.001.489a.229.229 0 0 1-.045.072l.207.092.295-.733-.193-.086s-.208.027-.263.166" fill="#EEC85D"/><path d="M40.637 38.923c-.093.1-.249.092-.327.287-.08.195.036.306.031.446l.207.092.295-.733-.206-.092z" fill="#E2B954"/><path d="M40.341 39.656a.252.252 0 0 1-.017.084c-.075.185-.28.203-.335.341-.056.138.07.314.07.314l.194.086.295-.733-.207-.092z" fill="#EEC85D"/><path fill="#5C5B5A" d="M38.014 38.19l.717.777.314-.778zM54.23 46.693l.886-2.199.285.127-.887 2.2z"/><g fill="#E7E6E2"><path d="M45.533 47.934l.01.168c.043.792.69 1.399 1.445 1.353l4.897-.295c.755-.045 1.332-.725 1.289-1.518l-.01-.167c-.043-.794-.69-1.4-1.445-1.354l-4.897.295c-.755.045-1.332.725-1.289 1.518"/><path d="M44.515 45.725l.01.167c.043.793.69 1.4 1.445 1.353l4.897-.294c.755-.046 1.332-.726 1.289-1.519l-.01-.167c-.043-.793-.69-1.399-1.445-1.353l-4.897.294c-.755.046-1.332.726-1.289 1.519"/><path d="M43.262 43.56l.01.167c.043.793.69 1.399 1.446 1.353l4.896-.295c.755-.045 1.332-.725 1.289-1.517l-.01-.168c-.043-.793-.69-1.399-1.445-1.354l-4.897.296c-.755.045-1.332.725-1.289 1.518"/><path d="M44.047 39.636l-.03.165c-.139.78.351 1.532 1.094 1.678l4.821.949c.743.146 1.46-.368 1.599-1.149l.029-.165c.14-.78-.35-1.532-1.094-1.678l-4.82-.949c-.744-.146-1.46.368-1.6 1.149"/><path d="M47.088 43.441l-1.841-2.91-1.228-.71 6.825-.224c.105.024 7.637 5.772 8.27 6.915.07.123.109.26.12.402l.633 9.048-7.197 2.607s-.1-.604-.234-1.258c-.172-.838-1.447-4.587-1.643-5.682-.195-1.094-.831-2.567-1.596-3.366-1-1.046-2.109-4.822-2.109-4.822"/><path d="M53.283 50.173l.131-.138a1.733 1.733 0 0 0-.005-2.366l-6.4-6.69a1.54 1.54 0 0 0-2.253.005l-.131.138a1.732 1.732 0 0 0 .005 2.366l6.4 6.69a1.54 1.54 0 0 0 2.253-.005"/></g><g><path d="M54.05 46.234l.628-1.554a.327.327 0 0 1 .436-.186l.81.36c.17.075.248.28.177.458l-.627 1.555a.327.327 0 0 1-.437.185l-.809-.36a.356.356 0 0 1-.177-.458" fill="#C5232A"/><path d="M40.928 38.188l-2.914.001 2.028 2.198.75-1.014z" fill="#E9D8BD"/><g transform="translate(48.31 41.933)"><mask id="l" fill="#fff"><use xlink:href="#k"/></mask><path fill="#EEC85D" mask="url(#l)" d="M6.51 3.294l.295-.733L-7.172-3.65l-.295.732z"/></g><g transform="translate(48.31 41.933)"><mask id="n" fill="#fff"><use xlink:href="#m"/></mask><path fill="#E2B954" mask="url(#n)" d="M-7.763-2.185L6.215 4.027l.295-.733-13.977-6.212z"/></g><g transform="translate(48.31 41.933)"><mask id="p" fill="#fff"><use xlink:href="#o"/></mask><path fill="#EEC85D" mask="url(#p)" d="M6.214 4.027L-7.763-2.186l-.295.733L5.919 4.76z"/></g><path d="M40.683 38.362c-.056.138.073.305-.001.489a.229.229 0 0 1-.045.072l.207.092.295-.733-.193-.086s-.208.027-.263.166" fill="#EEC85D"/><path d="M40.637 38.923c-.093.1-.249.092-.327.287-.08.195.036.306.031.446l.207.092.295-.733-.206-.092z" fill="#E2B954"/><path d="M40.341 39.656a.252.252 0 0 1-.017.084c-.075.185-.28.203-.335.341-.056.138.07.314.07.314l.194.086.295-.733-.207-.092z" fill="#EEC85D"/><path d="M38.014 38.19l.717.777.314-.778zM54.23 46.693l.886-2.199.285.127-.887 2.2z" fill="#5C5B5A"/></g></g></g></svg>