<svg width="151" height="144" viewBox="0 0 151 144" xmlns="http://www.w3.org/2000/svg" xmlns:xlink="http://www.w3.org/1999/xlink"><defs><ellipse id="a" cx="75.382" cy="71.971" rx="75.382" ry="71.971"/><path id="c" d="M81.241 52.463V.412H0v104.101h81.241z"/><path id="e" d="M0 104.588h81.241V.486H0z"/></defs><g fill="none" fill-rule="evenodd"><g><mask id="b" fill="#fff"><use xlink:href="#a"/></mask><use fill="#9BCEAF" xlink:href="#a"/><g mask="url(#b)"><g transform="translate(32 41.074)"><mask id="d" fill="#fff"><use xlink:href="#c"/></mask><path d="M0 17.747v81.507c0 2.905 2.363 5.26 5.28 5.26h70.685c2.915 0 5.276-2.355 5.276-5.26V5.672c0-2.905-2.361-5.26-5.276-5.26H18.372L0 17.746z" fill="#E4E4DB" mask="url(#d)"/></g><path d="M50.373 41.486V53.56c0 2.907-2.363 5.263-5.28 5.263H32l18.373-17.336z" fill="#BBBCBC"/></g></g><path d="M68.12 109.777l-8.272-9.653a3.535 3.535 0 0 1 .372-4.969 3.49 3.49 0 0 1 4.944.37l5.377 6.275 15.391-21.345a3.493 3.493 0 0 1 4.895-.784 3.535 3.535 0 0 1 .783 4.922l-17.995 24.95A3.503 3.503 0 0 1 70.783 111a3.499 3.499 0 0 1-2.664-1.223z" fill="#31AC65"/></g></svg>