<svg width="152" height="152" viewBox="0 0 152 152" xmlns="http://www.w3.org/2000/svg" xmlns:xlink="http://www.w3.org/1999/xlink"><defs><ellipse id="a" cx="75.989" cy="76.029" rx="75.989" ry="75.838"/><path id="b" d="M63.595 81H0V.845h63.595z"/><path id="d" d="M0 81h77V1H0z"/></defs><g fill="none" fill-rule="evenodd"><g><use fill="#C2EAF7" xlink:href="#a"/></g><g transform="translate(36 36)"><mask id="c" fill="#fff"><use xlink:href="#b"/></mask><path d="M0 14.193v62.756C0 79.187 1.85 81 4.132 81h55.331c2.282 0 4.132-1.813 4.132-4.05V4.895c0-2.237-1.85-4.051-4.132-4.051H14.381L0 14.193z" fill="#FFF" mask="url(#c)"/><path d="M14 1v9.054C14 12.234 12.199 14 9.978 14H0L14 1z" fill="#C6C6C5"/><mask id="e" fill="#fff"><use xlink:href="#d"/></mask><path fill="#9B9C9C" mask="url(#e)" d="M10 36h43v-4H10zM10 43h43v-4H10zM10 51h43v-4H10zM10 59h43v-4H10z"/><path d="M69.228 26.206l-6.434-6.434a2.712 2.712 0 0 1 0-3.835l3.143-3.143a2.712 2.712 0 0 1 3.835 0l6.434 6.434a2.712 2.712 0 0 1 0 3.835l-3.143 3.143a2.712 2.712 0 0 1-3.835 0" fill="#C5232A" mask="url(#e)"/><path fill="#E9D8BD" mask="url(#e)" d="M41.287 37L34 55l18-7.287-4.088-7.052z"/><path fill="#EEC85D" mask="url(#e)" d="M66 20.506L62.494 17 43 36.495 46.506 40z"/><path fill="#E2B954" mask="url(#e)" d="M49.506 43L69 23.506 65.495 20 46 39.494z"/><path fill="#EEC85D" mask="url(#e)" d="M68.494 24L49 43.494 52.505 47 72 27.506zM41.352 38.6c.58.582 1.699.233 2.471 1.01.125.125.207.255.267.39l.91-.915L41.931 36l-.849.854s-.309 1.164.27 1.746"/><path d="M45 40.915c.312.7-.07 1.513.75 2.335.822.82 1.636.438 2.335.75l.915-.915L45.915 40l-.915.915z" fill="#E2B954" mask="url(#e)"/><path d="M48 44.91c.135.06.266.142.39.267.777.772.428 1.892 1.01 2.47.582.58 1.747.27 1.747.27L52 47.07 48.915 44l-.915.91z" fill="#EEC85D" mask="url(#e)"/><path fill="#5C5B5A" mask="url(#e)" d="M34 55l6-2.429L36.429 49zM72.564 28L62 17.435 63.436 16 74 26.564z"/></g></g></svg>