<svg width="151" height="144" viewBox="0 0 151 144" xmlns="http://www.w3.org/2000/svg" xmlns:xlink="http://www.w3.org/1999/xlink"><defs><ellipse id="a" cx="75.382" cy="71.971" rx="75.382" ry="71.971"/><path id="b" d="M0 84.463h77.949V0H0z"/></defs><g fill="none" fill-rule="evenodd"><use fill="#C2EAF7" xlink:href="#a"/><g transform="translate(37 30)"><path d="M6.22 42.883c-.98-.984-5.625-4.354-4.643-5.334L.002 32.57 37.196.735a2.52 2.52 0 0 1 3.559 0l37.192 31.836-8.426 18.214c.981.98-30.801 17.232-31.783 18.214L6.221 42.883z" fill="#0C576F"/><path d="M70.339 66.508H7.61a.781.781 0 0 1-.78-.78V23.473c0-.43.35-.78.78-.78H70.34c.43 0 .778.35.778.78V65.73a.78.78 0 0 1-.778.779" fill="#DCDCD2"/><mask id="c" fill="#fff"><use xlink:href="#b"/></mask><path fill="#8F9395" mask="url(#c)" d="M19.323 42.122h39.305v-3.09H19.323zM19.323 49.112h39.305v-3.09H19.323zM19.323 56.104h39.305v-3.09H19.323zM19.323 63.094h39.305v-3.088H19.323z"/><path d="M2.944 84.463h63.454C68.023 84.463 0 32.571 0 32.571v48.953a2.943 2.943 0 0 0 2.944 2.94" fill="#FFF" mask="url(#c)"/><path d="M75.007 84.463H11.553c-1.625 0 66.397-51.892 66.397-51.892v48.953a2.942 2.942 0 0 1-2.943 2.94" fill="#E7E9E9" mask="url(#c)"/></g></g></svg>