<svg width="150" height="150" viewBox="0 0 150 150" xmlns="http://www.w3.org/2000/svg" xmlns:xlink="http://www.w3.org/1999/xlink"><defs><ellipse id="a" cx="74.882" cy="74.969" rx="74.882" ry="74.969"/><path id="c" d="M80.703 54.649V.429H0v108.44h80.703z"/><path id="e" d="M0 108.946h80.703V.506H0z"/></defs><g fill="none" fill-rule="evenodd"><g><mask id="b" fill="#fff"><use xlink:href="#a"/></mask><use fill="#FDBC6D" xlink:href="#a"/><g mask="url(#b)"><g transform="translate(31.788 42.786)"><mask id="d" fill="#fff"><use xlink:href="#c"/></mask><path d="M0 18.486v84.904c0 3.026 2.347 5.478 5.244 5.478h70.218c2.895 0 5.241-2.452 5.241-5.478V5.909c0-3.027-2.346-5.48-5.241-5.48H18.25L0 18.485z" fill="#E4E4DB" mask="url(#d)"/></g><path d="M50.04 43.215V55.79c0 3.028-2.348 5.481-5.245 5.481H31.788L50.04 43.215z" fill="#BBBCBC"/></g></g><g fill="#FF9100"><path d="M67 97.8l15.391-21.345a3.493 3.493 0 0 1 4.896-.784 3.535 3.535 0 0 1 .782 4.922l-17.994 24.95C69.589 106 67 97.8 67 97.8z"/><path d="M80.736 90.762l-15.391 21.345a3.493 3.493 0 0 1-4.895.784 3.535 3.535 0 0 1-.783-4.922l17.994-24.95c.486-.457 3.075 7.743 3.075 7.743z"/><g><path d="M75.235 102.151L58.6 81.761a3.493 3.493 0 0 1 .51-4.932 3.535 3.535 0 0 1 4.956.518l19.444 23.839c.314.587-8.276.965-8.276.965z"/><path d="M71.992 87.062l16.634 20.391a3.493 3.493 0 0 1-.51 4.932 3.535 3.535 0 0 1-4.956-.519L63.716 88.028c-.315-.588 8.276-.966 8.276-.966z"/></g></g></g></svg>