<?xml version="1.0" encoding="utf-8"?>
<!-- Generator: Adobe Illustrator 16.0.0, SVG Export Plug-In . SVG Version: 6.00 Build 0)  -->
<!DOCTYPE svg PUBLIC "-//W3C//DTD SVG 1.1//EN" "http://www.w3.org/Graphics/SVG/1.1/DTD/svg11.dtd">
<svg version="1.1" id="Filled_Version" xmlns="http://www.w3.org/2000/svg" xmlns:xlink="http://www.w3.org/1999/xlink" x="0px"
	 y="0px" width="24px" height="24px" viewBox="0 0 24 24" enable-background="new 0 0 24 24" xml:space="preserve">
<path fill="#A13A28" d="M22.906,23.196L11.947,1.276c-0.17-0.339-0.726-0.339-0.895,0l-11,22c-0.078,0.155-0.069,0.339,0.021,0.486S0.326,24,0.5,24
	h22c0.003,0,0.006,0,0.01,0c0.275,0,0.5-0.224,0.5-0.5C23.01,23.386,22.971,23.28,22.906,23.196z M11,9.152
	c0-0.276,0.224-0.5,0.5-0.5c0.275,0,0.5,0.224,0.5,0.5v7.653c0,0.275-0.225,0.5-0.5,0.5c-0.276,0-0.5-0.225-0.5-0.5V9.152z
	 M11.5,21.108c-0.529,0-0.957-0.428-0.957-0.956c0-0.527,0.428-0.957,0.957-0.957c0.527,0,0.956,0.43,0.956,0.957
	C12.456,20.681,12.027,21.108,11.5,21.108z"/>
</svg>
