<svg width="143" height="143" viewBox="0 0 143 143" xmlns="http://www.w3.org/2000/svg" xmlns:xlink="http://www.w3.org/1999/xlink"><defs><circle id="a" cx="71.5" cy="71.5" r="71.5"/><path id="c" d="M42.834.136v31.357H0V.136h42.834z"/><path id="e" d="M2.489.092H15.26V13.48H0V.092h2.489H0v3.286h2.489V.092z"/><path id="g" d="M.13.092h2.488v3.286H.13V.092z"/><path id="i" d="M.13.092h2.488v3.286H.13V.092z"/><path id="k" d="M0 43.355V.415h47.578v42.94H0z"/><path id="m" d="M37.776 28.123H.006V.095h37.77v28.028z"/><path id="o" d="M0 64.971h47.579V.703H0z"/><path id="q" d="M36.612.08v39.466H.226V.08z"/><path id="s" d="M40.267.187V29.71H0V.187h40.267z"/></defs><g fill="none" fill-rule="evenodd"><mask id="b" fill="#fff"><use xlink:href="#a"/></mask><use fill="#C2EAF7" xlink:href="#a"/><g mask="url(#b)"><g transform="translate(46 118.626)"><mask id="d" fill="#fff"><use xlink:href="#c"/></mask><path d="M27.716.136H14.917C11.467.136 0 7.419 0 14.049v17.445h42.834V14.049c0-6.63-11.668-13.913-15.118-13.913" fill="#8FA24D" mask="url(#d)"/></g><path d="M73.338 118.253c-.74 0-6.022 2.252-6.022 2.252s-6.217-1.764-6.697-1.857c-.48-.094-3.94 1.733-3.94 1.733.866 1.27 3.332 7.176 10.637 7.176 7.307 0 9.778-5.906 10.647-7.176 0 0-3.885-2.128-4.625-2.128" fill="#E6E4E1"/><path d="M51.22 99.89s-.083.17-.193.093c-.152-.06-.16-.094-.332-.094-.749 0-1.199.604-1.199 1.35v5.451c0 .746.45 1.35 1.2 1.35.299 0 .495-.1.719-.265 1.823 8.305 8.247 14.445 15.941 14.445 7.694 0 14.137-6.14 15.96-14.445.224.166.432.265.732.265.75 0 1.289-.604 1.289-1.35v-5.451c0-.746-.55-1.35-1.298-1.35-.173 0-.309.035-.461.094-17.35 2.005-32.357-.094-32.357-.094" fill="#E6E4E1"/><path fill="#FEFEFE" d="M77.837 120.166l-17.895 29.953h20.15v-28.744"/><path fill="#FEFEFE" d="M56.577 120.033l9.136 29.215H62.61"/><path d="M83.907 103.107c0 10.615-7.383 19.219-16.49 19.219s-16.49-8.604-16.49-19.219c0-10.612 7.383-19.216 16.49-19.216s16.49 8.604 16.49 19.216" fill="#E6E4E1"/><path d="M54.688 89.995c-.48.31-4.014 2.01-4.172 10.805-.025 1.38.075 2.75.733 2.714h1.142c.362-5.102 1.31-8.824 2.268-10.184 2.617-3.709.525-3.578.029-3.335M80.254 89.995c.48.31 4.014 2.01 4.172 10.805.025 1.38-.075 2.75-.733 2.714h-1.142c-.362-5.102-1.31-8.824-2.268-10.184-2.617-3.709-.525-3.578-.029-3.335" fill="#333332"/><path d="M85.26 95.824c-.286-9.28-6.206-16.952-14.045-18.856v-2.75H63.62v2.75c-7.84 1.904-13.76 9.576-14.045 18.856h-1.948v3.657h39.582v-3.657H85.26z" fill="#FCBC68"/><path d="M67.258 114.83c-2.742 0-4.963-1.092-4.963-2.44 0-1.348 2.221-2.44 4.963-2.44 2.74 0 4.962 1.092 4.962 2.44 0 1.348-2.221 2.44-4.962 2.44m6.238-5.339c-2.473-1.65-3.885-1.412-6.186-1.412-2.3 0-4.069.21-6.882 1.6-7.05 3.483-9.223-3.001-9.38-6.525l-.286-.126c0 14.395 10.234 19.363 16.443 19.363 6.308 0 16.437-4.583 16.786-19.363l-.392.291c-.603 3.731-2.698 11.112-10.103 6.172" fill="#B9B7B4"/><g><g transform="translate(59.433 101.682)"><mask id="f" fill="#fff"><use xlink:href="#e"/></mask><path d="M1.25 3.375C.107 3.448-.213 2.014.131 1.078.196.9.575.092 1.245.092c.669 0 .964.442 1.006.517.492.914.25 2.686-1 2.766" fill="#625D58" mask="url(#f)"/></g><g transform="translate(72.075 101.679)"><mask id="h" fill="#fff"><use xlink:href="#g"/></mask><path d="M1.368 3.375c1.144.073 1.464-1.361 1.12-2.297C2.421.9 2.043.092 1.373.092.704.092.409.534.368.609c-.492.914-.251 2.686 1 2.766" fill="#625D58" mask="url(#h)"/></g><g transform="translate(61.013 101.679)"><mask id="j" fill="#fff"><use xlink:href="#i"/></mask><path d="M1.368 3.375c1.144.073 1.464-1.361 1.12-2.297C2.421.9 2.043.092 1.373.092.704.092.409.534.368.609c-.492.914-.251 2.686 1 2.766" fill="#625D58" mask="url(#j)"/></g><path d="M67.365 106.88c.684-.105 1.35-.08 1.663.303.762.933.543 2.011-.74 2.807-.642.398-1.55.56-2.108.315" stroke="#D0BEA3" stroke-width=".506" stroke-linecap="round"/></g><path d="M71.91 111.284s-1.102 2.52-4.169 2.426c-3.067-.094-4.217-2.426-4.217-2.426" stroke="#625D58" stroke-width="1.013" stroke-linecap="round"/></g><g mask="url(#b)"><g transform="rotate(-60 103.909 -29.406)"><g transform="translate(0 .29)"><mask id="l" fill="#fff"><use xlink:href="#k"/></mask><path d="M42.473 21.5h-.037C42.436 9.856 34.079.415 23.77.415 13.46.414 5.105 9.855 5.105 21.501v.01C5.102 31.457 0 37.142 0 37.142s5.038 6.213 23.77 6.213H23.808c18.733 0 23.771-6.213 23.771-6.213s-5.105-5.69-5.105-15.641" fill="#E57F68" mask="url(#l)"/></g><g transform="translate(4.898 36.849)"><mask id="n" fill="#fff"><use xlink:href="#m"/></mask><path d="M24.593.095H13.189C10.115.095.006 6.493.006 12.45v15.673h37.77V12.45c0-5.957-10.11-12.355-13.183-12.355" fill="#624B7F" mask="url(#n)"/></g><path d="M40.238 19.332a1.23 1.23 0 0 0-1.21-1.026c-.156 0-.305.032-.442.086l-.053.005c-4.56-6.24-13.453-.483-20.24-6.441-.87-.932-1.324-1.581-1.443-1.581 0 0-6.583 5.734-7.679 7.931 0 0-.078.157-.177.086a1.22 1.22 0 0 0-.443-.086 1.23 1.23 0 0 0-1.21 1.026c-.026.099-.043.2-.043.307v4.999c0 .683.551 1.238 1.232 1.238.273 0 .522-.092.726-.243 1.077 4.946 3.94 9.043 7.729 11.316-1.055.441-2.678 1.305-2.678 1.305.773 1.14 2.969 6.447 9.479 6.447s8.712-5.306 9.486-6.447c0 0-1.418-.781-2.612-1.344 3.755-2.28 6.591-6.36 7.662-11.277.204.15.454.243.726.243.681 0 1.233-.555 1.233-1.238v-4.999c0-.106-.018-.208-.043-.307" fill="#E7E5E2"/><path d="M38.37 59.524H26.673a.948.948 0 0 1-.945-.949v-6.318c0-.525.423-.95.945-.95H38.37c.522 0 .945.425.945.95v6.318c0 .524-.423.95-.945.95" fill="#D2242A"/><path d="M35.603 55.557a2.988 2.988 0 0 1-2.98 2.995 2.99 2.99 0 0 1-2.983-2.995 2.99 2.99 0 0 1 2.983-2.996 2.988 2.988 0 0 1 2.98 2.996M28.76 56.877h-.581l.621-1.531h.583z" fill="#FFF"/><path d="M30.358 56.87h.458a.041.041 0 0 0 .042-.042v-1.432c0-.023-.018-.04-.042-.04h-.463a.052.052 0 0 0-.053.053l-.182.45c-.011.023.008.052.032.052h.13c.02 0 .037.014.037.036v.881c0 .023.018.042.041.042" fill="#C52D35"/><path d="M31.352 56.87h.46c.024 0 .044-.019.044-.042v-1.432c0-.023-.02-.04-.045-.04h-.713a.054.054 0 0 0-.054.053l-.182.45-.063.052h.364c.082 0 .148.064.148.147v.77c0 .023.018.042.041.042M33.405 55.355h-.459a.042.042 0 0 0-.042.041v1.432c0 .023.02.041.042.041h.464c.03 0 .054-.023.054-.053l.182-.451c.01-.025-.007-.051-.035-.051h-.127a.035.035 0 0 1-.035-.036v-.882c0-.023-.022-.041-.044-.041" fill="#C52D35"/><path d="M31.517 56.87h.302c.03 0 .053-.025.053-.054l.182-.452a.036.036 0 0 0-.034-.05h-.127l-.376.556zM34.634 55.355h.546c.027 0 .045.025.034.05l-.578 1.441c-.005.015-.018.023-.034.023h-.494l.49-1.49a.037.037 0 0 1 .036-.024" fill="#C52D35"/><path d="M33.95 55.355h-.773c-.054 0 .222.053.242.103l.546 1.365c.01.03.039.046.069.046h.469l-.482-1.463a.073.073 0 0 0-.072-.051M32.468 55.355c.255 0 .474.176.474.485 0 .306-.04.324-.04.324s-.043-.293-.267-.293c-.22 0-.271.13-.271.226 0 .112.112.217.175.217h.403l-.238.528a.048.048 0 0 1-.044.027h-.182c-.191 0-.69-.251-.69-.738 0-.488.37-.776.68-.776" fill="#C52D35"/><path d="M33.29 52.163h-1.265a.17.17 0 0 1-.17-.17v-.214a.17.17 0 0 1 .17-.17h1.266a.17.17 0 0 1 .17.17v.214a.17.17 0 0 1-.17.17" fill="#5A1F57"/><mask id="p" fill="#fff"><use xlink:href="#o"/></mask><path fill="#835184" mask="url(#p)" d="M32.29 51.94h.734v-2.205h-.733z"/></g><path d="M105.784 70.99c-.44.914-1.88.41-2.576-.344-.132-.142-.695-.855-.399-1.369a.996.996 0 0 1 .914-.501c1.045.1 2.543 1.211 2.061 2.213M111.435 61.202c.572-.838-.585-1.834-1.585-2.06-.19-.042-1.089-.174-1.385.34a.996.996 0 0 0 .023 1.042c.608.855 2.32 1.596 2.947.678" fill="#635E59"/><path d="M109.936 66.552c.222-.57.536-1.071.97-1.14 1.06-.167 1.797.482 1.844 1.821.023.67-.253 1.44-.69 1.758" stroke="#D1BFA3" stroke-width=".506" stroke-linecap="round"/><path d="M116.979 65.581s1.91 2.58.035 5.607c-1.874 3.028-4.901 2.821-4.901 2.821" stroke="#593A32" stroke-width="1.013" stroke-linecap="round"/></g><g mask="url(#b)"><g transform="rotate(45 -27.46 60.254)"><mask id="r" fill="#fff"><use xlink:href="#q"/></mask><path d="M36.118 16.911c1.266 5.127.065 15.78-3.217 22.635-5.066-3.485-22.896-2.71-28.353-.196 0 0-4.772-7.835-4.287-19.635 0 0 1.716-19.827 18.056-19.634 16.339.194 17.801 16.83 17.801 16.83" fill="#38383A" mask="url(#r)"/></g><g transform="rotate(45 -72.639 39.424)"><mask id="t" fill="#fff"><use xlink:href="#s"/></mask><path d="M26.212.187H14.055C10.776.187 0 6.926 0 13.2v16.51h40.268V13.2C40.268 6.926 29.489.187 26.212.187" fill="#105573" mask="url(#t)"/></g><path d="M17.194 59.203l-.952-.952a.612.612 0 0 1-.004-.864l4.594-4.594a.612.612 0 0 1 .864.005l.952.951c.24.24.24.627.003.864l-4.593 4.593a.61.61 0 0 1-.864-.003M25.195 80.413c-.453-.453-4.923-2.465-4.923-2.465s-2.85-4.777-3.095-5.122c-.242-.346-3.363-1.471-3.363-1.471-.16 1.224-3.373 15.463-3.373 15.463l.961.96s14.163-3.122 15.387-3.284c0 0-1.14-3.627-1.594-4.08" fill="#E7E5E2"/><path d="M16.871 72.66c-1.603-.837-4.44-1.598-4.44-1.598-3.45 3.266-3.382 10.113-3.382 10.113l2.85-1.446-1.865 7.147 1.367 1.447 6.503-1.642-1.296 3.277c8.557-1.885 10.243-4.593 10.243-4.593-.302-2.361-1.439-4.585-1.439-4.585L11.89 86.336l4.981-13.677z" fill="#9ABDCD"/><path d="M42.44 77.702c-7.103 7.103-17.822 7.901-23.94 1.783-6.119-6.12-5.32-16.836 1.784-23.94 7.103-7.103 17.821-7.903 23.94-1.784 6.118 6.118 5.32 16.837-1.784 23.94" fill="#E7E5E2"/><path d="M42.402 76.303c.67 1.146 1.048.203 2.026-.775 7.102-7.102 7.9-17.82 1.782-23.939-6.118-6.118-16.836-5.319-23.938 1.783a21.027 21.027 0 0 0-2.478 2.977s5.849.322 7.719-.055c2.495-.504 6.593-2.68 6.593-2.68.344.344 12.408 6.732 8.296 22.689" fill="#38383A"/><path d="M36.25 50.905c-1.844 2.257-6.496 7.732 2.737 16.279 8.23 7.616-3.974 15.636-3.974 15.636l8.614-4.43 3.948-6.884-6.588-20.516" fill="#38383A"/><g><path d="M25.7 63.385c-.867-.745.091-2.154 1.107-2.684.192-.1 1.125-.5 1.597-.028s.316 1.044.282 1.135c-.406 1.1-2.038 2.392-2.986 1.577M34.692 72.378c.745.866 2.154-.092 2.684-1.107.1-.193.5-1.125.028-1.598a1.121 1.121 0 0 0-1.135-.282c-1.1.406-2.392 2.038-1.577 2.987" fill="#625D58"/><path d="M29.323 69.18c.555.409 1.007.896.958 1.386-.12 1.195-1.035 1.8-2.5 1.457-.732-.173-1.488-.698-1.707-1.264" stroke="#D0BEA3" stroke-width=".506" stroke-linecap="round"/><path d="M28.365 77.081s-3.34 1.305-6.086-1.614c-2.746-2.918-1.658-6.13-1.658-6.13" stroke="#583931" stroke-width="1.013" stroke-linecap="round"/></g></g></g></svg>