<svg width="110" height="110" viewBox="0 0 110 110" xmlns="http://www.w3.org/2000/svg" xmlns:xlink="http://www.w3.org/1999/xlink"><defs><circle id="a" cx="55" cy="55" r="55"/></defs><g fill="none" fill-rule="evenodd"><mask id="b" fill="#fff"><use xlink:href="#a"/></mask><use fill="#AFE3F7" xlink:href="#a"/><g mask="url(#b)"><g transform="translate(17.6 28.6)"><circle fill="#FFF" cx="37.95" cy="22.77" r="22.77"/><circle fill="#FFF" cx="37.95" cy="79.772" r="37.95"/><path d="M30.318 19.142c-1.648.124-2.109-2.304-1.614-3.89.095-.3.64-1.668 1.606-1.668.964 0 1.39.747 1.449.875.71 1.547.36 4.546-1.441 4.683" fill="#635E59"/><path d="M45.615 28.137c.356-.016 1.323.027 2.571 0 .502-.011 1.443.133 1.801 0 .877-.326 1.906.317 2.019-.397.09-.575-.57-.716-.882-.942-.626-.454-1.262-.596-1.485-.704-.864-.416-1.331-.895-2.49-1.142-.433-.092-1.09-.53-1.534-.633-.799-.185-2.015-1.143-2.81-1.264-.658-.099-1.386-.557-1.898-.9-.735-.492-1.634-.521-2.29-.403-.43.077-1.073 1.456-1.371 1.792-.42.474-.295 1.273-.435 1.775-.147.529.318 1.241.524 1.48.332.382.719.265 1.593.383.32.043.811.292 1.238.36.9.145 1.885.333 2.897.461.844.107 1.706.172 2.552.134z" fill="#FF9100"/><path d="M46.504 19.142c1.647.124 2.108-2.304 1.612-3.89-.094-.3-.639-1.668-1.604-1.668a1.62 1.62 0 0 0-1.45.875c-.709 1.547-.362 4.546 1.442 4.683" fill="#635E59"/></g></g><path d="M32.395 33.332l39.215-5.51.668 4.752-39.215 5.512-.668-4.754zm3.25-11.362l29.708-4.176 1.504 10.695-29.708 4.175-1.504-10.694z" fill="#625D58"/><path d="M52.554 62.858c.83.024 3.007 2.601 5.493 2.362 1.554-.149 3.367-1.785 4.756-2.763" stroke="#987474" stroke-linecap="round"/><path d="M32.007 92.394l5.63 2.38 3.784 1.519C55.53 82.599 72.985 73.253 71.798 74.1a9.1 9.1 0 0 0-1.436-.659c-1.086-.397-1.628-.636-2.534-.95-1.92-.665-4.226-.991-5.043-.991h-5.896L32.007 92.394z" fill="#A23B28"/><path d="M72.94 88.845L55.347 71.5H46.52c-1.687 0-5.025 1.104-8.292 3.136 0 .034 17.356 2.708 21.8 19.94l12.911-5.73z" fill="#A23B28"/><circle fill="#3E3832" cx="55" cy="93.5" r="1.1"/><circle fill="#3E3832" cx="55" cy="100.65" r="1.65"/><path d="M34.6 91.3c-.94.762-2.86 1.805-3.8 2.567l3.8-2.567zM35.143 92.402l-1.95 2.567M36.03 93.953l-1.382 1.843M37.92 93.5l-1.41 2.567M39.091 95.29c-.17.558-.342 1.116-.513 1.673M40.847 95.932l-.163 1.534M60.506 93.986l-.005 1.99M61.142 92.892l1.4 2.567M62.308 91.744l3.296 3.188M64.742 92.177l1.802 1.33M67.071 90.363l1.316 1.765M69.369 90.36l1.366 2.247M70.34 89.036l1.95 2.567M70.901 87.989l2.572 1.527" stroke="#A23B28"/></g></svg>