<svg width="32" height="32" viewBox="0 0 32 32" xmlns="http://www.w3.org/2000/svg"><g fill="#0067C5" fill-rule="evenodd"><path d="M22.561 20.736l-4.595 4.593 4.21 4.21 4.933-4.932 1.362-1.362-4.21-4.21zM15.34.656l6.565 6.565H15.34V.656zm.993 24.45l6.228-6.228V7.221a.661.661 0 0 0-.192-.465L15.805.192A.663.663 0 0 0 15.34 0H.9a.657.657 0 0 0-.657.656v27.57c0 .362.294.656.656.656h14.27l.997-3.492a.649.649 0 0 1 .167-.284zM31.562 19.228l-3.283-3.282a.657.657 0 0 0-.928 0l-2.16 2.161 4.21 4.209 2.16-2.16a.654.654 0 0 0 0-.928M16.533 28.882h.002l-.514 1.792a.653.653 0 0 0 .168.642.647.647 0 0 0 .642.168l4.226-1.208-3.828-3.828-.696 2.434z"/></g></svg>