<svg version="1.1" id="Layer_1" xmlns="http://www.w3.org/2000/svg" x="0" y="0" viewBox="0 0 24 24" xml:space="preserve"><style>.st0{fill:none;stroke:#3e3832;stroke-linecap:round;stroke-linejoin:round;stroke-miterlimit:10}</style><circle class="st0" cx="19.5" cy="10.5" r="2"/><path class="st0" d="M3.5 2c-1.1 0-2 .9-2 2v5c0 2.8 2.2 5 5 5s5-2.2 5-5V4c0-1.1-.9-2-2-2m-3 12v7.5c0 1.1.9 2 2 2s2-.9 2-2v-5c0-1.4 1.1-2.5 2.5-2.5s2.5 1.1 2.5 2.5v3c0 1.1.9 2 2 2s2-.9 2-2v-7"/><path class="st0" d="M5 2c0 1.5-1.5 1.5-1.5 1.5v-3S5 .5 5 2zm3 0C8 .5 9.5.5 9.5.5v3S8 3.5 8 2z"/></svg>