<svg xmlns="http://www.w3.org/2000/svg" viewBox="0 0 24 24"><path d="M19.5 8C18.1 8 17 9.1 17 10.5c0 1.2.9 2.2 2 2.4v6.6c0 .8-.7 1.5-1.5 1.5s-1.5-.7-1.5-1.5v-3c0-1.7-1.3-3-3-3s-3 1.3-3 3v5c0 .8-.7 1.5-1.5 1.5S7 22.3 7 21.5v-7c2.8-.3 5-2.6 5-5.5V4c0-1.2-.9-2.2-2-2.5v-1c0-.3-.2-.5-.5-.5-.8 0-2 .5-2 2s1.2 2 2 2c.3 0 .5-.2.5-.5v-.9c.6.2 1 .8 1 1.4v5c0 2.5-2 4.5-4.5 4.5S2 11.5 2 9V4c0-.7.4-1.2 1-1.4v.9c0 .3.2.5.5.5.8 0 2-.5 2-2s-1.2-2-2-2c-.3 0-.5.2-.5.5v1C1.9 1.8 1 2.8 1 4v5c0 2.9 2.2 5.2 5 5.5v7C6 22.9 7.1 24 8.5 24s2.5-1.1 2.5-2.5v-5c0-1.1.9-2 2-2s2 .9 2 2v3c0 1.4 1.1 2.5 2.5 2.5s2.5-1.1 2.5-2.5v-6.6c1.1-.2 2-1.2 2-2.4C22 9.1 20.9 8 19.5 8z" fill="#0067c5"/></svg>