<svg width="100" height="99" viewBox="0 0 100 99" xmlns="http://www.w3.org/2000/svg" xmlns:xlink="http://www.w3.org/1999/xlink"><defs><path id="a" d="M0 99.942h99.97V.84H0z"/><path d="M.404 10.987a50.455 50.455 0 0 0 14.554 2.13c11.885 0 22.802-4.107 31.381-10.965V.4H.404v10.587z" id="c"/></defs><g fill="none" fill-rule="evenodd"><g transform="translate(0 -.82)"><path d="M99.907 50.384c0 27.292-22.35 49.417-49.923 49.417-27.57 0-49.92-22.125-49.92-49.417S22.414.967 49.984.967c27.572 0 49.923 22.125 49.923 49.417z" fill="#EAE8E2"/><path d="M99.907 50.384c0 27.292-22.35 49.417-49.923 49.417-27.57 0-49.92-22.125-49.92-49.417S22.414.967 49.984.967c27.572 0 49.923 22.125 49.923 49.417" fill="#EAE8E2"/><path d="M79.824 40.229v4.956a1.898 1.898 0 0 1-1.91 1.889h-55.57a1.898 1.898 0 0 1-1.907-1.889v-4.956h59.387z" fill="#424552"/><path d="M20.437 40.229V9.4c0-1.043.853-1.889 1.908-1.889h55.57a1.9 1.9 0 0 1 1.91 1.889v30.828H20.436z" fill="#2D2F3C"/><path d="M22.35 38.353v-28.05c0-.533.436-.966.975-.966h53.61c.539 0 .976.433.976.965v28.051H22.35z" fill="#FFF"/><mask id="b" fill="#fff"><use xlink:href="#a"/></mask><path fill="#424552" mask="url(#b)" d="M43.168 52.198h13.925v-6.275H43.168z"/><path fill="#424552" mask="url(#b)" d="M37.799 53.136H62.46v-1.66H37.8z"/><path d="M50.58 44.097a.448.448 0 0 1-.45.444.447.447 0 0 1-.45-.444c0-.246.2-.446.45-.446.248 0 .45.2.45.446" fill="#2D2F3C" mask="url(#b)"/><path d="M80.96 73.263c0 6.194-5.073 11.217-11.33 11.217-6.26 0-11.334-5.023-11.334-11.217 0-6.195 5.074-11.217 11.333-11.217 6.258 0 11.331 5.022 11.331 11.217M21.787 60.605h30.128c1.614 0 2.923 1.272 2.923 2.837v14.59c0 1.567-1.309 2.837-2.923 2.837H21.787c-1.614 0-2.923-1.27-2.923-2.837v-14.59c0-1.565 1.309-2.837 2.923-2.837" fill="#585B5C" mask="url(#b)"/><path d="M21.652 64.662h1.266c.262 0 .475.21.475.472v.7a.474.474 0 0 1-.475.472h-1.266a.474.474 0 0 1-.477-.472v-.7c0-.262.214-.472.477-.472M24.277 64.662h1.266c.263 0 .476.21.476.472v.7a.474.474 0 0 1-.476.472h-1.266a.475.475 0 0 1-.476-.472v-.7c0-.262.215-.472.476-.472M26.903 64.662h1.266c.262 0 .476.21.476.472v.7a.475.475 0 0 1-.476.472h-1.266a.475.475 0 0 1-.477-.472v-.7c0-.262.214-.472.477-.472M29.529 64.662h1.266c.263 0 .475.21.475.472v.7a.473.473 0 0 1-.475.472H29.53a.475.475 0 0 1-.478-.472v-.7c0-.262.214-.472.478-.472M32.155 64.662h1.266c.262 0 .475.21.475.472v.7a.474.474 0 0 1-.475.472h-1.266a.474.474 0 0 1-.477-.472v-.7c0-.262.212-.472.477-.472M34.78 64.662h1.265c.262 0 .476.21.476.472v.7a.474.474 0 0 1-.476.472H34.78a.475.475 0 0 1-.477-.472v-.7c0-.262.214-.472.477-.472M37.404 64.662h1.267c.262 0 .476.21.476.472v.7a.474.474 0 0 1-.476.472h-1.267a.474.474 0 0 1-.475-.472v-.7c0-.262.213-.472.475-.472M40.03 64.662h1.266c.263 0 .475.21.475.472v.7a.473.473 0 0 1-.475.472H40.03a.475.475 0 0 1-.478-.472v-.7c0-.262.215-.472.478-.472M42.655 64.662h1.266c.263 0 .476.21.476.472v.7a.474.474 0 0 1-.476.472h-1.266a.474.474 0 0 1-.476-.472v-.7c0-.262.214-.472.476-.472M45.28 64.662h1.266c.263 0 .475.21.475.472v.7a.473.473 0 0 1-.475.472H45.28a.474.474 0 0 1-.476-.472v-.7c0-.262.213-.472.476-.472M47.906 64.662h3.891c.263 0 .476.21.476.472v.7a.474.474 0 0 1-.476.472h-3.891a.474.474 0 0 1-.476-.472v-.7c0-.262.213-.472.476-.472M21.652 67.236h1.266c.262 0 .475.21.475.472v.7a.473.473 0 0 1-.475.473h-1.266a.474.474 0 0 1-.477-.472v-.701c0-.261.214-.472.477-.472M24.277 67.236h1.266c.263 0 .476.21.476.472v.7a.473.473 0 0 1-.476.473h-1.266a.474.474 0 0 1-.476-.472v-.701c0-.261.215-.472.476-.472M26.903 67.236h1.266c.262 0 .476.21.476.472v.7a.474.474 0 0 1-.476.473h-1.266a.474.474 0 0 1-.477-.472v-.701c0-.261.214-.472.477-.472M29.529 67.236h1.266c.263 0 .475.21.475.472v.7a.472.472 0 0 1-.475.473H29.53a.474.474 0 0 1-.478-.472v-.701c0-.261.214-.472.478-.472M32.155 67.236h1.266c.262 0 .475.21.475.472v.7a.473.473 0 0 1-.475.473h-1.266a.473.473 0 0 1-.477-.472v-.701c0-.261.212-.472.477-.472M34.78 67.236h1.265c.262 0 .476.21.476.472v.7a.473.473 0 0 1-.476.473H34.78a.474.474 0 0 1-.477-.472v-.701c0-.261.214-.472.477-.472M37.404 67.236h1.267c.262 0 .476.21.476.472v.7a.473.473 0 0 1-.476.473h-1.267a.473.473 0 0 1-.475-.472v-.701c0-.261.213-.472.475-.472M40.03 67.236h1.266c.263 0 .475.21.475.472v.7a.472.472 0 0 1-.475.473H40.03a.474.474 0 0 1-.478-.472v-.701c0-.261.215-.472.478-.472M42.655 67.236h1.266c.263 0 .476.21.476.472v.7a.473.473 0 0 1-.476.473h-1.266a.473.473 0 0 1-.476-.472v-.701c0-.261.214-.472.476-.472M45.28 67.236h1.266c.263 0 .475.21.475.472v.7a.472.472 0 0 1-.475.473H45.28a.473.473 0 0 1-.476-.472v-.701c0-.261.213-.472.476-.472M47.906 67.236h1.266c.263 0 .476.21.476.472v.7a.473.473 0 0 1-.476.473h-1.266a.473.473 0 0 1-.476-.472v-.701c0-.261.213-.472.476-.472M50.53 67.236h1.267c.263 0 .477.21.477.472v.7a.474.474 0 0 1-.477.473H50.53a.473.473 0 0 1-.476-.472v-.701c0-.261.213-.472.476-.472M21.652 69.811h1.266c.262 0 .475.21.475.471v.701a.474.474 0 0 1-.475.472h-1.266a.474.474 0 0 1-.477-.472v-.7c0-.262.214-.472.477-.472M24.277 69.811h1.266c.263 0 .476.21.476.471v.701a.474.474 0 0 1-.476.472h-1.266a.475.475 0 0 1-.476-.472v-.7c0-.262.215-.472.476-.472M26.903 69.811h1.266c.262 0 .476.21.476.471v.701a.475.475 0 0 1-.476.472h-1.266a.475.475 0 0 1-.477-.472v-.7c0-.262.214-.472.477-.472M29.529 69.811h1.266c.263 0 .475.21.475.471v.701a.473.473 0 0 1-.475.472H29.53a.475.475 0 0 1-.478-.472v-.7c0-.262.214-.472.478-.472M32.155 69.811h1.266c.262 0 .475.21.475.471v.701a.474.474 0 0 1-.475.472h-1.266a.474.474 0 0 1-.477-.472v-.7c0-.262.212-.472.477-.472M34.78 69.811h1.265c.262 0 .476.21.476.471v.701a.474.474 0 0 1-.476.472H34.78a.475.475 0 0 1-.477-.472v-.7c0-.262.214-.472.477-.472M37.404 69.811h1.267c.262 0 .476.21.476.471v.701a.474.474 0 0 1-.476.472h-1.267a.474.474 0 0 1-.475-.472v-.7c0-.262.213-.472.475-.472M40.03 69.811h1.266c.263 0 .475.21.475.471v.701a.473.473 0 0 1-.475.472H40.03a.475.475 0 0 1-.478-.472v-.7c0-.262.215-.472.478-.472M42.655 69.811h1.266c.263 0 .476.21.476.471v.701a.474.474 0 0 1-.476.472h-1.266a.474.474 0 0 1-.476-.472v-.7c0-.262.214-.472.476-.472M45.28 69.811h1.266c.263 0 .475.21.475.471v.701a.473.473 0 0 1-.475.472H45.28a.474.474 0 0 1-.476-.472v-.7c0-.262.213-.472.476-.472M47.906 69.811h1.266c.263 0 .476.21.476.471v.701a.474.474 0 0 1-.476.472h-1.266a.474.474 0 0 1-.476-.472v-.7c0-.262.213-.472.476-.472M50.53 69.811h1.267c.263 0 .477.21.477.471v.701a.475.475 0 0 1-.477.472H50.53a.474.474 0 0 1-.476-.472v-.7c0-.262.213-.472.476-.472M21.652 72.386h1.266c.262 0 .475.21.475.47v.702a.474.474 0 0 1-.475.472h-1.266a.475.475 0 0 1-.477-.472v-.701c0-.261.214-.471.477-.471M24.277 72.386h1.266c.263 0 .476.21.476.47v.702a.474.474 0 0 1-.476.472h-1.266a.475.475 0 0 1-.476-.472v-.701c0-.261.215-.471.476-.471M26.903 72.386h1.266c.262 0 .476.21.476.47v.702a.475.475 0 0 1-.476.472h-1.266a.475.475 0 0 1-.477-.472v-.701c0-.261.214-.471.477-.471M29.529 72.386h1.266c.263 0 .475.21.475.47v.702a.474.474 0 0 1-.475.472H29.53a.476.476 0 0 1-.478-.472v-.701c0-.261.214-.471.478-.471M32.155 72.386h1.266c.262 0 .475.21.475.47v.702a.474.474 0 0 1-.475.472h-1.266a.474.474 0 0 1-.477-.472v-.701c0-.261.212-.471.477-.471M34.78 72.386h1.265c.262 0 .476.21.476.47v.702a.474.474 0 0 1-.476.472H34.78a.475.475 0 0 1-.477-.472v-.701c0-.261.214-.471.477-.471M37.404 72.386h1.267c.262 0 .476.21.476.47v.702a.474.474 0 0 1-.476.472h-1.267a.474.474 0 0 1-.475-.472v-.701c0-.261.213-.471.475-.471M40.03 72.386h1.266c.263 0 .475.21.475.47v.702a.474.474 0 0 1-.475.472H40.03a.476.476 0 0 1-.478-.472v-.701c0-.261.215-.471.478-.471M42.655 72.386h1.266c.263 0 .476.21.476.47v.702a.474.474 0 0 1-.476.472h-1.266a.474.474 0 0 1-.476-.472v-.701c0-.261.214-.471.476-.471M45.28 72.386h1.266c.263 0 .475.21.475.47v.702a.474.474 0 0 1-.475.472H45.28a.474.474 0 0 1-.476-.472v-.701c0-.261.213-.471.476-.471M47.906 72.386h1.266c.263 0 .476.21.476.47v.702a.474.474 0 0 1-.476.472h-1.266a.474.474 0 0 1-.476-.472v-.701c0-.261.213-.471.476-.471M50.53 72.386h1.267c.263 0 .477.21.477.47v.702a.475.475 0 0 1-.477.472H50.53a.474.474 0 0 1-.476-.472v-.701c0-.261.213-.471.476-.471M21.652 74.96h1.266c.262 0 .475.21.475.471v.7c0 .261-.213.473-.475.473h-1.266a.475.475 0 0 1-.477-.472v-.7c0-.263.214-.473.477-.473M24.277 74.96h1.266c.263 0 .476.21.476.471v.7c0 .261-.213.473-.476.473h-1.266a.475.475 0 0 1-.476-.472v-.7c0-.263.215-.473.476-.473M26.903 74.96h1.266c.262 0 .476.21.476.471v.7c0 .261-.214.473-.476.473h-1.266a.476.476 0 0 1-.477-.472v-.7c0-.263.214-.473.477-.473M29.529 74.96h1.266c.263 0 .475.21.475.471v.7c0 .261-.212.473-.475.473H29.53a.476.476 0 0 1-.478-.472v-.7c0-.263.214-.473.478-.473M42.655 74.96h1.266c.263 0 .476.21.476.471v.7c0 .261-.213.473-.476.473h-1.266a.475.475 0 0 1-.476-.472v-.7c0-.263.214-.473.476-.473M45.28 74.96h1.266c.263 0 .475.21.475.471v.7c0 .261-.212.473-.475.473H45.28a.475.475 0 0 1-.476-.472v-.7c0-.263.213-.473.476-.473M47.906 74.96h1.266c.263 0 .476.21.476.471v.7c0 .261-.213.473-.476.473h-1.266a.475.475 0 0 1-.476-.472v-.7c0-.263.213-.473.476-.473M50.53 74.96h1.267c.263 0 .477.21.477.471v.7c0 .261-.214.473-.477.473H50.53a.475.475 0 0 1-.476-.472v-.7c0-.263.213-.473.476-.473M32.155 74.96h9.144c.264 0 .478.21.478.471v.7c0 .261-.214.473-.478.473h-9.144a.474.474 0 0 1-.477-.472v-.7c0-.263.212-.473.477-.473" fill="#37363A" mask="url(#b)"/><path d="M36.54 69.56c-.58 0-1.048.464-1.048 1.036V85.54c0 .572.468 1.037 1.047 1.037.578 0 1.048-.465 1.048-1.037V70.596c0-.572-.47-1.036-1.048-1.036M38.837 68.274c-.577 0-1.047.463-1.047 1.037v14.942c0 .572.47 1.036 1.047 1.036.58 0 1.048-.464 1.048-1.036V69.311c0-.574-.469-1.037-1.048-1.037M41.139 67.337c-.579 0-1.049.464-1.049 1.036v14.944c0 .572.47 1.037 1.049 1.037.577 0 1.047-.465 1.047-1.037V68.373c0-.572-.47-1.036-1.047-1.036M43.438 68.561c-.578 0-1.049.465-1.049 1.039v10.794c0 .572.47 1.035 1.049 1.035s1.048-.463 1.048-1.035V69.6c0-.574-.47-1.039-1.048-1.039" fill="#FFF" mask="url(#b)"/><path d="M36.678 88.394v-1.288c0-.352-.62-.646-.62-.646l1.289-10.344h6.091l1.048 3.397s.256.078.513-.313c.256-.39 1.024-2.225 1.024-2.225s1.025-2.164 1.972-1.775c.946.39.513 1.815.513 1.815s-.482 2.247-.75 3.317c-.337 1.356-1.123 2.732-1.774 3.75-.651 1.014-1.893 2.495-2.326 2.495l-.1 1.817h-6.88z" fill="#FFF" mask="url(#b)"/><path d="M78.285 72.093c0 4.365-2.38 7.903-5.317 7.903-2.936 0-5.317-3.538-5.317-7.903 0-4.366 2.381-7.905 5.317-7.905 2.936 0 5.317 3.539 5.317 7.905" fill="#37363A" mask="url(#b)"/><path fill="#585B5C" mask="url(#b)" d="M72.864 69.186h.207v-4.89h-.207zM68.026 69.478h9.882v-.206h-9.882z"/><path d="M80.26 72.169c.58 0 1.047.464 1.047 1.037V84.23c0 .573-.468 1.037-1.048 1.037a1.043 1.043 0 0 1-1.047-1.037V73.206c0-.573.47-1.037 1.047-1.037M77.961 69.439c.578 0 1.048.463 1.048 1.037v12.466c0 .574-.47 1.038-1.048 1.038a1.043 1.043 0 0 1-1.048-1.038V70.476c0-.574.47-1.037 1.048-1.037M75.66 66.028c.58 0 1.05.465 1.05 1.037v14.942c0 .573-.47 1.037-1.05 1.037a1.042 1.042 0 0 1-1.046-1.037V67.065c0-.572.469-1.037 1.046-1.037M73.36 68.076c.58 0 1.048.465 1.048 1.039v9.97c0 .572-.468 1.036-1.047 1.036a1.042 1.042 0 0 1-1.047-1.036v-9.97c0-.574.469-1.039 1.047-1.039" fill="#FFF" mask="url(#b)"/><path d="M80.122 87.084v-1.288c0-.352.618-.645.618-.645l-1.288-10.343H73.36l-1.047 3.397s-.257.076-.514-.313c-.256-.39-1.025-2.226-1.025-2.226s-1.024-2.165-1.972-1.775c-.945.39-.512 1.814-.512 1.814s.481 2.247.75 3.319c.336 1.354 1.123 2.732 1.773 3.748.65 1.014 1.894 2.495 2.328 2.495l.097 1.817h6.883z" fill="#FFF" mask="url(#b)"/></g><g transform="translate(35.027 85.863)"><mask id="d" fill="#fff"><use xlink:href="#c"/></mask><path fill="#52818D" mask="url(#d)" d="M.404 13.258h9.318V1.71H.404zM37.02 7.93h9.32V.4h-9.32z"/><path fill="#0D546F" mask="url(#d)" d="M37.02 3.184h9.32V.4h-9.32z"/></g><path fill="#0D546F" d="M35.431 90.358h9.319v-2.784H35.43z"/><path d="M36.403 88.985c0-.322.266-.584.592-.584.326 0 .591.262.591.584a.59.59 0 0 1-.591.587.59.59 0 0 1-.592-.587M80.395 87.677a.588.588 0 0 0-.59-.586.59.59 0 0 0-.593.586.59.59 0 0 0 .593.585c.325 0 .59-.263.59-.585" fill="#37363A"/><g><path d="M49.696 10.996l-.205.002a11.716 11.716 0 0 0-8.162 3.506c-2.199 2.223-3.38 5.133-3.327 8.195.11 6.337 5.075 11.302 11.303 11.302l.203-.002c6.446-.111 11.602-5.362 11.49-11.7-.11-6.338-5.075-11.303-11.302-11.303z" fill="#C30000" fill-rule="nonzero"/><path d="M49 16.996a.5.5 0 0 1 1 0v7a.5.5 0 0 1-1 0v-7zM49.518 28.496H49.5a1 1 0 0 1-.018-1.999l.018-.001a1 1 0 0 1 .018 2z" fill="#FFF"/></g></g></svg>