<svg width="31" height="31" viewBox="0 0 31 31" xmlns="http://www.w3.org/2000/svg"><g fill="#3E3832" fill-rule="evenodd"><path d="M13.3 2.445a7.68 7.68 0 1 0-11.24 10.47l.385.384 4.057 4.058L17.357 6.502l-4.058-4.057zM4.697 7.41a.64.64 0 1 1 .901.909.64.64 0 0 1-.901-.909zm1.344 4.07a.627.627 0 0 1-.448.244.666.666 0 1 1 .448-.243zm1.356-6.783a.64.64 0 0 1 .91 0 .64.64 0 0 1 0 .908.64.64 0 0 1-.91 0 .64.64 0 0 1 0-.908zm.474 3.187a.643.643 0 0 1 .909.909.627.627 0 0 1-.448.192.64.64 0 0 1-.461-1.101zm1.344 4.045a.64.64 0 1 1-.921-.889.64.64 0 0 1 .921.889zm1.357-6.784a.64.64 0 1 1 .901.908.64.64 0 0 1-.901-.908zm1.357 4.019a.64.64 0 0 1-.91 0 .64.64 0 1 1 .91 0zM28.66 17.805l-4.058-4.058-10.855 10.855 4.058 4.057a7.68 7.68 0 0 0 5.427 2.266 7.68 7.68 0 0 0 5.427-13.12zm-9.486 4.16a.64.64 0 1 1 .922.888.64.64 0 0 1-.922-.888zm1.357 4.07a.64.64 0 0 1-.909 0 .64.64 0 1 1 .91-.064v.064zm1.357-6.784a.64.64 0 1 1 .901.909.64.64 0 0 1-.901-.909zm.448 3.098a.64.64 0 1 1 .901.909.64.64 0 0 1-.901-.91zm1.357 4.07a.64.64 0 1 1 0-.909.627.627 0 0 1 0 .884v.025zm1.357-6.784a.653.653 0 1 1 1.044.783.653.653 0 0 1-1.044-.783zm1.356 4.07a.627.627 0 1 1 .192-.46.64.64 0 0 1-.192.448v.013zM7.266 18.415l10.861-10.86 5.43 5.43-10.86 10.86z"/></g></svg>