<svg width="32" height="32" viewBox="0 0 32 32" xmlns="http://www.w3.org/2000/svg"><g fill="#0067C5" fill-rule="evenodd"><path d="M13.728 2.524a7.928 7.928 0 0 0-11.6 10.808l.396.396 4.188 4.189L17.917 6.712l-4.189-4.188zM4.85 7.65a.66.66 0 1 1 .93.938.66.66 0 0 1-.93-.938zm1.387 4.202a.647.647 0 0 1-.462.251.687.687 0 1 1 .462-.251zm1.401-7.003a.66.66 0 0 1 .938 0 .66.66 0 0 1 0 .938.66.66 0 0 1-.938 0 .66.66 0 0 1 0-.938zm.489 3.29a.663.663 0 1 1 .938.938.647.647 0 0 1-.462.198.66.66 0 0 1-.476-1.136zm1.387 4.175a.66.66 0 1 1-.95-.917.66.66 0 0 1 .95.917zm1.4-7.002a.66.66 0 1 1 .931.938.66.66 0 0 1-.93-.938zm1.401 4.148a.66.66 0 0 1-.938 0 .66.66 0 1 1 .938 0zM29.584 18.38l-4.189-4.19-11.204 11.205 4.188 4.189a7.928 7.928 0 0 0 5.602 2.338 7.928 7.928 0 0 0 5.603-13.543zm-9.791 4.293a.66.66 0 1 1 .951.917.66.66 0 0 1-.951-.917zm1.4 4.202a.66.66 0 0 1-.938 0 .66.66 0 1 1 .938-.066v.066zm1.401-7.003a.66.66 0 1 1 .93.938.66.66 0 0 1-.93-.938zm.463 3.198a.66.66 0 1 1 .93.938.66.66 0 0 1-.93-.938zm1.4 4.201a.66.66 0 1 1 0-.938c.25.253.25.66 0 .912v.026zm1.4-7.002a.674.674 0 1 1 1.08.808.674.674 0 0 1-1.08-.808zm1.401 4.201a.647.647 0 1 1 .198-.475.66.66 0 0 1-.198.462v.013zM7.5 19.01L18.71 7.797l5.606 5.606-11.211 11.211z"/></g></svg>