<svg width="72" height="72" viewBox="0 0 72 72" xmlns="http://www.w3.org/2000/svg"><g fill="none" fill-rule="evenodd"><circle fill="#DCF3FA" cx="36" cy="36" r="36"/><path d="M20.88 22.467v31.158c0 1.113.9 2.011 2.011 2.011h26.937a2.01 2.01 0 0 0 2.012-2.011V17.851c0-1.111-.9-2.011-2.012-2.011H27.882l-7.002 6.627z" fill="#EAEAE4"/><path d="M27.882 15.84v4.614c0 1.111-.9 2.013-2.011 2.013H20.88l7.002-6.627z" fill="#C0C0BE"/><path d="M30.243 34.069a1.954 1.954 0 0 0 1.986-1.91 1.953 1.953 0 0 0-1.91-1.985 1.954 1.954 0 0 0-1.985 1.909 1.955 1.955 0 0 0 1.909 1.986" fill="#CBC9C7"/><path d="M30.591 33.46a1.554 1.554 0 0 0 1.579-1.526 1.56 1.56 0 0 0-1.52-1.587 1.558 1.558 0 0 0-1.59 1.54 1.552 1.552 0 0 0 1.531 1.573m-.702 1.209c-.1-.034-.177-.056-.251-.085a2.857 2.857 0 0 1-1.737-3.565 2.855 2.855 0 0 1 3.479-1.863c1.23.338 2.075 1.45 2.09 2.752.013 1.24-.833 2.37-2.054 2.73-.145.043-.24.075-.241.274-.025 1.83-.07 3.658-.1 5.487-.035 2.18 1.543 3.952 3.71 4.183 2.342.25 4.83-1.65 4.485-4.76-.552-.194-1.1-.346-1.615-.577-.997-.448-1.858-1.089-2.502-1.988-.313-.437-.543-.912-.533-1.461.04-2.333.067-4.666.145-6.997.043-1.239.677-2.156 1.771-2.739a.744.744 0 0 0 .34-.338 1.31 1.31 0 0 1 1.522-.66c.607.17 1.017.722.994 1.337a1.35 1.35 0 0 1-1.1 1.275c-.49.092-.892-.08-1.247-.414-.645.392-.98.955-.996 1.7-.046 2.198-.08 4.394-.136 6.59-.01.41.111.75.357 1.061.423.536.955.937 1.542 1.272 1.994 1.14 4.58.616 5.982-1.213a1.43 1.43 0 0 0 .32-.904c0-.767.025-1.534.04-2.301.029-1.47.064-2.94.084-4.41.01-.727-.326-1.273-.923-1.673-.34.305-.711.454-1.142.388-.662-.1-1.134-.627-1.156-1.27a1.332 1.332 0 0 1 1.064-1.374c.626-.138 1.236.193 1.516.815.035.078.103.16.177.202 1.195.675 1.787 1.692 1.76 3.066-.042 2.157-.1 4.314-.117 6.47a2.863 2.863 0 0 1-.76 1.958c-.965 1.088-2.182 1.747-3.59 2.07-.154.036-.31.063-.45.09-.04.548-.044 1.077-.12 1.596-.41 2.854-3.283 4.93-6.135 4.45-2.737-.462-4.632-2.737-4.584-5.51.032-1.82.071-3.641.107-5.463l.004-.201" fill="#515658"/><path d="M30.591 33.46a1.554 1.554 0 0 0 1.579-1.526 1.56 1.56 0 0 0-1.52-1.587 1.558 1.558 0 0 0-1.59 1.54 1.552 1.552 0 0 0 1.531 1.573m-.702 1.209c-.1-.034-.177-.056-.251-.085a2.857 2.857 0 0 1-1.737-3.565 2.855 2.855 0 0 1 3.479-1.863c1.23.338 2.075 1.45 2.09 2.752.013 1.24-.833 2.37-2.054 2.73-.145.043-.24.075-.241.274-.025 1.83-.07 3.658-.1 5.487-.035 2.18 1.543 3.952 3.71 4.183 2.342.25 4.83-1.65 4.485-4.76-.552-.194-1.1-.346-1.615-.577-.997-.448-1.858-1.089-2.502-1.988-.313-.437-.543-.912-.533-1.461.04-2.333.067-4.666.145-6.997.043-1.239.677-2.156 1.771-2.739a.744.744 0 0 0 .34-.338 1.31 1.31 0 0 1 1.522-.66c.607.17 1.017.722.994 1.337a1.35 1.35 0 0 1-1.1 1.275c-.49.092-.892-.08-1.247-.414-.645.392-.98.955-.996 1.7-.046 2.198-.08 4.394-.136 6.59-.01.41.111.75.357 1.061.423.536.955.937 1.542 1.272 1.994 1.14 4.58.616 5.982-1.213a1.43 1.43 0 0 0 .32-.904c0-.767.025-1.534.04-2.301.029-1.47.064-2.94.084-4.41.01-.727-.326-1.273-.923-1.673-.34.305-.711.454-1.142.388-.662-.1-1.134-.627-1.156-1.27a1.332 1.332 0 0 1 1.064-1.374c.626-.138 1.236.193 1.516.815.035.078.103.16.177.202 1.195.675 1.787 1.692 1.76 3.066-.042 2.157-.1 4.314-.117 6.47a2.863 2.863 0 0 1-.76 1.958c-.965 1.088-2.182 1.747-3.59 2.07-.154.036-.31.063-.45.09-.04.548-.044 1.077-.12 1.596-.41 2.854-3.283 4.93-6.135 4.45-2.737-.462-4.632-2.737-4.584-5.51.032-1.82.071-3.641.107-5.463l.004-.201" fill="#515658"/><path d="M28.907 32.44a1.694 1.694 0 1 0 3.387.002 1.694 1.694 0 0 0-3.387-.001" fill="#A59D96"/><path d="M20.88 22.467v31.158c0 1.113.9 2.011 2.011 2.011h26.937a2.01 2.01 0 0 0 2.012-2.011V17.851c0-1.111-.9-2.011-2.012-2.011H27.882l-7.002 6.627z" stroke="#C0C0BE" fill="#EAEAE4"/><path d="M27.882 15.84v4.614c0 1.111-.9 2.013-2.011 2.013H20.88l7.002-6.627z" fill="#C0C0BE"/><path d="M30.243 34.069a1.954 1.954 0 0 0 1.986-1.91 1.953 1.953 0 0 0-1.91-1.985 1.954 1.954 0 0 0-1.985 1.909 1.955 1.955 0 0 0 1.909 1.986" fill="#CBC9C7"/><path d="M30.591 33.46a1.554 1.554 0 0 0 1.579-1.526 1.56 1.56 0 0 0-1.52-1.587 1.558 1.558 0 0 0-1.59 1.54 1.552 1.552 0 0 0 1.531 1.573m-.702 1.209c-.1-.034-.177-.056-.251-.085a2.857 2.857 0 0 1-1.737-3.565 2.855 2.855 0 0 1 3.479-1.863c1.23.338 2.075 1.45 2.09 2.752.013 1.24-.833 2.37-2.054 2.73-.145.043-.24.075-.241.274-.025 1.83-.07 3.658-.1 5.487-.035 2.18 1.543 3.952 3.71 4.183 2.342.25 4.83-1.65 4.485-4.76-.552-.194-1.1-.346-1.615-.577-.997-.448-1.858-1.089-2.502-1.988-.313-.437-.543-.912-.533-1.461.04-2.333.067-4.666.145-6.997.043-1.239.677-2.156 1.771-2.739a.744.744 0 0 0 .34-.338 1.31 1.31 0 0 1 1.522-.66c.607.17 1.017.722.994 1.337a1.35 1.35 0 0 1-1.1 1.275c-.49.092-.892-.08-1.247-.414-.645.392-.98.955-.996 1.7-.046 2.198-.08 4.394-.136 6.59-.01.41.111.75.357 1.061.423.536.955.937 1.542 1.272 1.994 1.14 4.58.616 5.982-1.213a1.43 1.43 0 0 0 .32-.904c0-.767.025-1.534.04-2.301.029-1.47.064-2.94.084-4.41.01-.727-.326-1.273-.923-1.673-.34.305-.711.454-1.142.388-.662-.1-1.134-.627-1.156-1.27a1.332 1.332 0 0 1 1.064-1.374c.626-.138 1.236.193 1.516.815.035.078.103.16.177.202 1.195.675 1.787 1.692 1.76 3.066-.042 2.157-.1 4.314-.117 6.47a2.863 2.863 0 0 1-.76 1.958c-.965 1.088-2.182 1.747-3.59 2.07-.154.036-.31.063-.45.09-.04.548-.044 1.077-.12 1.596-.41 2.854-3.283 4.93-6.135 4.45-2.737-.462-4.632-2.737-4.584-5.51.032-1.82.071-3.641.107-5.463l.004-.201" fill="#515658"/><path d="M30.591 33.46a1.554 1.554 0 0 0 1.579-1.526 1.56 1.56 0 0 0-1.52-1.587 1.558 1.558 0 0 0-1.59 1.54 1.552 1.552 0 0 0 1.531 1.573m-.702 1.209c-.1-.034-.177-.056-.251-.085a2.857 2.857 0 0 1-1.737-3.565 2.855 2.855 0 0 1 3.479-1.863c1.23.338 2.075 1.45 2.09 2.752.013 1.24-.833 2.37-2.054 2.73-.145.043-.24.075-.241.274-.025 1.83-.07 3.658-.1 5.487-.035 2.18 1.543 3.952 3.71 4.183 2.342.25 4.83-1.65 4.485-4.76-.552-.194-1.1-.346-1.615-.577-.997-.448-1.858-1.089-2.502-1.988-.313-.437-.543-.912-.533-1.461.04-2.333.067-4.666.145-6.997.043-1.239.677-2.156 1.771-2.739a.744.744 0 0 0 .34-.338 1.31 1.31 0 0 1 1.522-.66c.607.17 1.017.722.994 1.337a1.35 1.35 0 0 1-1.1 1.275c-.49.092-.892-.08-1.247-.414-.645.392-.98.955-.996 1.7-.046 2.198-.08 4.394-.136 6.59-.01.41.111.75.357 1.061.423.536.955.937 1.542 1.272 1.994 1.14 4.58.616 5.982-1.213a1.43 1.43 0 0 0 .32-.904c0-.767.025-1.534.04-2.301.029-1.47.064-2.94.084-4.41.01-.727-.326-1.273-.923-1.673-.34.305-.711.454-1.142.388-.662-.1-1.134-.627-1.156-1.27a1.332 1.332 0 0 1 1.064-1.374c.626-.138 1.236.193 1.516.815.035.078.103.16.177.202 1.195.675 1.787 1.692 1.76 3.066-.042 2.157-.1 4.314-.117 6.47a2.863 2.863 0 0 1-.76 1.958c-.965 1.088-2.182 1.747-3.59 2.07-.154.036-.31.063-.45.09-.04.548-.044 1.077-.12 1.596-.41 2.854-3.283 4.93-6.135 4.45-2.737-.462-4.632-2.737-4.584-5.51.032-1.82.071-3.641.107-5.463l.004-.201" fill="#515658"/><path d="M28.907 31.868a1.694 1.694 0 1 0 3.387 0 1.694 1.694 0 0 0-3.387 0" fill="#A59D96"/></g></svg>