<svg width="32" height="32" viewBox="0 0 32 32" xmlns="http://www.w3.org/2000/svg"><g fill="none" fill-rule="evenodd"><path d="M13.187 2.815a7.334 7.334 0 0 0-10.37 10.372l15.999 16a7.334 7.334 0 0 0 10.37-10.37l-16-16.002h0zM7.515 17.888L17.884 7.516l6.601 6.6-10.369 10.372-6.601-6.6z" stroke="#3E3832"/><path d="M5.63 10.621a.667.667 0 1 0 0 1.332.667.667 0 0 0 0-1.332zM8.46 7.792a.667.667 0 1 0 0 1.335.667.667 0 0 0 0-1.335zm-3.3-.472a.664.664 0 0 0-.472.195.67.67 0 0 0 0 .945.67.67 0 0 0 .944 0 .668.668 0 0 0-.472-1.14zm2.828-2.827a.666.666 0 1 0 0 1.333.666.666 0 1 0 0-1.333zm.942 6.596a.667.667 0 1 0 0 1.337.667.667 0 0 0 0-1.337zm2.828-2.825a.667.667 0 1 0 .002 1.33.667.667 0 0 0-.002-1.33zm-.47-3.301a.67.67 0 0 0-.472.194.67.67 0 0 0 0 .946.67.67 0 0 0 .944 0 .67.67 0 0 0 0-.946.67.67 0 0 0-.472-.194zm9.428 20.744a.669.669 0 0 0-.472 1.139c.13.13.301.193.472.193.17 0 .341-.063.472-.194a.669.669 0 0 0-.472-1.138zm2.828-2.831a.666.666 0 1 0 .472 1.139.669.669 0 0 0-.472-1.139zm.472 3.3a.667.667 0 1 0 0 1.332.667.667 0 0 0 0-1.332zm2.829-2.827a.669.669 0 0 0 0 1.333.669.669 0 0 0 0-1.333zm-6.6-.944a.669.669 0 0 0 0 1.333.669.669 0 0 0 0-1.333zm2.828-2.828a.667.667 0 1 0 0 1.332.667.667 0 0 0 0-1.332zm3.3.471a.667.667 0 1 0 0 1.332.667.667 0 0 0 0-1.332z" fill="#3E3832"/></g></svg>