<svg width="32" height="32" viewBox="0 0 32 32" xmlns="http://www.w3.org/2000/svg"><g fill="#3E3832" fill-rule="evenodd"><path d="M3.476.727C1.639.727.143 2.357.143 4.364.143 6.368 1.639 8 3.476 8c1.839 0 3.333-1.632 3.333-3.636C6.81 2.358 5.315.727 3.476.727zM11.57 5.818h18.954c.736 0 1.333-.65 1.333-1.454 0-.803-.597-1.455-1.333-1.455H11.569c-.736 0-1.333.652-1.333 1.455 0 .804.597 1.454 1.333 1.454zM3.476 12.364C1.639 12.364.143 13.994.143 16c0 2.004 1.496 3.636 3.333 3.636 1.839 0 3.333-1.632 3.333-3.636 0-2.006-1.494-3.636-3.333-3.636zM30.524 14.545H11.569c-.736 0-1.333.652-1.333 1.455 0 .804.597 1.455 1.333 1.455h18.955c.736 0 1.333-.65 1.333-1.455 0-.803-.598-1.455-1.333-1.455zM3.476 24C1.639 24 .143 25.63.143 27.636c0 2.005 1.496 3.637 3.333 3.637 1.839 0 3.333-1.632 3.333-3.637S5.315 24 3.476 24zM30.524 26.182H11.569c-.736 0-1.333.651-1.333 1.454 0 .805.597 1.455 1.333 1.455h18.955c.736 0 1.333-.65 1.333-1.455 0-.803-.598-1.454-1.333-1.454z"/></g></svg>