<svg width="151" height="144" viewBox="0 0 151 144" xmlns="http://www.w3.org/2000/svg" xmlns:xlink="http://www.w3.org/1999/xlink"><defs><ellipse id="a" cx="75.382" cy="71.971" rx="75.382" ry="71.971"/><path id="c" d="M0 .485V4.3h9.22V.485H0z"/><path id="e" d="M0 55.3h54.673V.5H0z"/></defs><g fill="none" fill-rule="evenodd"><mask id="b" fill="#fff"><use xlink:href="#a"/></mask><use fill="#C2EAF7" xlink:href="#a"/><g mask="url(#b)"><path d="M64.766 29.352H58.25c-.016 0-.031.004-1.046.005l1.133 3.81h6.429c.916 0 1.658-.742 1.658-1.657v-.5c0-.916-.742-1.658-1.658-1.658" fill="#403A33"/><g transform="translate(-6 28.867)"><mask id="d" fill="#fff"><use xlink:href="#c"/></mask><path d="M9.22.49C8.206.49 8.19.485 8.176.485H1.659c-.917 0-1.66.743-1.66 1.658v.5C0 3.559.743 4.3 1.66 4.3h6.428L9.22.49z" fill="#403A33" mask="url(#d)"/></g><path d="M47.283 65.867h1.902a3.393 3.393 0 0 0 3.393-3.393V57.18H43.89v5.294a3.393 3.393 0 0 0 3.393 3.393M11.236 65.867h1.902a3.393 3.393 0 0 0 3.394-3.393V57.18H7.844v5.294a3.393 3.393 0 0 0 3.392 3.393" fill="#403A33"/><path d="M58.462 34.167h.172L53.48 16.843A3.977 3.977 0 0 0 49.668 14H10.752a3.976 3.976 0 0 0-3.812 2.843L1.785 34.167h.172a5.173 5.173 0 0 0-5.172 5.172v5.783c0 6.081 4.976 11.057 11.057 11.057h44.735c6.081 0 11.057-4.976 11.057-11.057V39.34a5.173 5.173 0 0 0-5.172-5.172" fill="#254D6F"/><path d="M53.381 49.158a4.064 4.064 0 1 1 0-8.127 4.064 4.064 0 0 1 0 8.127M7.038 49.158a4.064 4.064 0 1 1 0-8.127 4.064 4.064 0 0 1 0 8.127" fill="#FFE5C2"/><path d="M10.98 20.651a2.067 2.067 0 0 1 1.982-1.477h34.496c.915 0 1.72.601 1.98 1.477l4.021 13.516H6.96l4.021-13.516z" fill="#F1EFEF"/></g><g mask="url(#b)"><path fill="#595B5C" d="M143.976 35.793h5.384V32.7h-5.384z"/><g transform="translate(101 32.2)"><path d="M7.038 21.18v1.88h23.446l.99-3.267H8.418c-.76 0-1.38.624-1.38 1.387zm.478 18.387h31.668v-4.613H7.516v4.613zM40.828 2.046h2.148V3.3h-2.148v37.76H6.084v-20c0-1.115.906-2.027 2.015-2.027h23.605L36.85 2.046h3.978z" fill="#010101"/><path d="M43.692 41.06c0 1.59-1.282 2.88-2.864 2.88a2.872 2.872 0 0 1-2.865-2.88c0-1.59 1.283-2.88 2.865-2.88a2.872 2.872 0 0 1 2.864 2.88" fill="#000"/><path d="M40.828 53.593c-6.709 0-12.148-5.468-12.148-12.213 0-6.746 5.44-12.214 12.148-12.214 6.708 0 12.147 5.468 12.147 12.214 0 6.745-5.439 12.213-12.147 12.213m0-26.134c-7.647 0-13.845 6.233-13.845 13.92 0 7.689 6.198 13.92 13.845 13.92 7.646 0 13.845-6.231 13.845-13.92 0-7.687-6.199-13.92-13.845-13.92" fill="#8C8C8C"/><path d="M40.828 50.523c-5.023 0-9.094-4.093-9.094-9.143 0-5.05 4.071-9.144 9.094-9.144 5.022 0 9.094 4.094 9.094 9.144s-4.072 9.143-9.094 9.143m0-19.543c-5.713 0-10.344 4.656-10.344 10.4 0 5.744 4.631 10.4 10.344 10.4 5.712 0 10.343-4.656 10.343-10.4 0-5.744-4.63-10.4-10.343-10.4" fill="#8C8C8C"/><path d="M4.147 51.5V31.26c0-1.201.968-2.173 2.162-2.173h20.926c.133 0 .262.016.388.039a2.595 2.595 0 0 0-2.417-1.666H5.156c-1.436 0-2.6 1.17-2.6 2.613v19.36a2.61 2.61 0 0 0 1.627 2.42 2.188 2.188 0 0 1-.036-.353" fill="#010101"/><path d="M0 52.01a3.28 3.28 0 0 1 3.272-3.29 3.28 3.28 0 0 1 3.272 3.29 3.28 3.28 0 0 1-3.272 3.29A3.28 3.28 0 0 1 0 52.01" fill="#8C8C8C"/><mask id="f" fill="#fff"><use xlink:href="#e"/></mask><path fill="#595B5C" mask="url(#f)" d="M12.397 20.713h16.284V17.62H12.397z"/></g></g><g mask="url(#b)"><path d="M77.901 87.426a4.47 4.47 0 1 0-5.135 7.32 4.47 4.47 0 0 0 5.135-7.32" fill="#FDBD68"/><path stroke="#635E59" stroke-width="3" stroke-linecap="round" stroke-linejoin="round" d="M49.338 151.514L32.247 110.85 56.67 78.367"/><path d="M67.598 77.088l-5.44-3.815a7.018 7.018 0 1 0-8.06 11.491l5.44 3.815c-.923 5.85 1.43 11.983 6.603 15.612l18.384-26.21c-5.174-3.63-11.742-3.753-16.927-.893" fill="#EFEFEF"/><path d="M37.493 110.85a4.247 4.247 0 1 0-8.494 0 4.247 4.247 0 0 0 8.494 0" fill="#635E59"/></g></g></svg>