<svg width="100" height="98" viewBox="0 0 100 98" xmlns="http://www.w3.org/2000/svg"><g fill="none" fill-rule="evenodd"><path d="M97.506 49.055c0 25.817-21.266 46.746-47.497 46.746-26.232 0-47.497-20.929-47.497-46.746 0-25.817 21.265-46.745 47.497-46.745 26.231 0 47.497 20.928 47.497 46.745z" fill="#FFF"/><path d="M97.506 49.055c0 25.817-21.266 46.746-47.497 46.746-26.232 0-47.497-20.929-47.497-46.746 0-25.817 21.265-46.745 47.497-46.745 26.231 0 47.497 20.928 47.497 46.745h0z" stroke="#BCCFCF" stroke-width="3.134"/><path d="M75.038 38.684h-.049c0-14.955-10.956-27.08-24.471-27.08-13.516 0-24.473 12.125-24.473 27.08l.001.014c-.005 12.773-6.694 20.076-6.694 20.076s6.606 7.979 31.166 7.979h.048c24.56 0 31.166-7.98 31.166-7.98s-6.694-7.307-6.694-20.089" fill="#E57D61"/><path d="M52.325 55.24c13.216 0 23.636 9.668 23.636 21.235v9.904c0 .442-10.893 7.763-25.232 7.763-13.358 0-20.78-4.207-25.441-7.002-.693-2.833-1.23-7.274-1.23-10.665 0-11.567 15.051-21.234 28.267-21.234" fill="#5F224E"/><path d="M72.108 35.529a1.603 1.603 0 0 0-2.167-1.208l-.068.006c-5.98-8.013-17.639-.62-26.538-8.272-1.14-1.197-1.735-2.03-1.89-2.03 0 0-8.632 7.364-10.07 10.185 0 0-.1.202-.231.11a1.604 1.604 0 0 0-2.167 1.208 1.541 1.541 0 0 0-.057.394v6.42c0 .878.723 1.59 1.616 1.59.358 0 .685-.118.953-.312 1.317 5.932 4.679 10.913 9.162 13.923-1.151.426-3.156 1.406-3.156 1.406 1.014 1.465 4.507 9.16 13.042 9.16s13.055-7.858 13.904-9.872c0 0-1.257-.85-3.103-1.339 4.03-3.05 7.029-7.751 8.257-13.278.268.194.595.312.953.312.892 0 1.616-.712 1.616-1.59v-6.42c0-.136-.023-.267-.056-.393" fill="#F2EFEE"/><path d="M62.872 77.693h-1.405a.347.347 0 0 1-.35-.344v-.024c0-.19.157-.344.35-.344h1.405c.193 0 .35.154.35.344v.024c0 .19-.157.344-.35.344" fill="#5F224E"/><path d="M43.051 40.727c-1.447.11-1.851-2.024-1.416-3.417.082-.264.561-1.465 1.41-1.465.847 0 1.22.656 1.272.77.623 1.357.318 3.992-1.266 4.112M59.2 40.727c1.448.11 1.853-2.024 1.417-3.417-.082-.264-.561-1.465-1.409-1.465-.847 0-1.221.656-1.273.77-.623 1.357-.318 3.992 1.266 4.112" fill="#78ACCD"/><path d="M47.397 52.683s.91.974 4.55.294c3.638-.68 5.358-3.003 5.358-3.003" stroke="#D19E9D" stroke-width="1.013" stroke-linecap="round"/><path d="M51.509 42.329c.864-.133 1.708-.101 2.104.385.965 1.186.687 2.555-.937 3.566-.812.505-1.962.712-2.667.4" fill="#F2EFEE"/><path d="M51.509 42.329c.864-.133 1.708-.101 2.104.385.965 1.186.687 2.555-.937 3.566-.812.505-1.962.712-2.667.4" stroke="#D2C1A4" stroke-width=".506" stroke-linecap="round"/><path fill="#F2EFEE" d="M48.834 73.007h4.25l7.7-9.491H40.674z"/><path d="M71.564 84.905H56.095a.743.743 0 0 1-.749-.738v-8.576c0-.407.335-.737.75-.737h15.468c.414 0 .75.33.75.737v8.576a.743.743 0 0 1-.75.738" fill="#CD1719"/><path d="M67.677 80.051c0 2.023-1.665 3.665-3.72 3.665-2.06 0-3.726-1.642-3.726-3.665s1.667-3.664 3.725-3.664c2.056 0 3.721 1.641 3.721 3.664M59.133 81.666h-.726l.776-1.872h.728zM68.285 81.666h-.45l.776-1.872h.45zM69.527 81.666h-.19l.774-1.872h.19z" fill="#FFF"/><path d="M61.128 81.657h.572c.03 0 .052-.022.052-.05v-1.752a.05.05 0 0 0-.052-.05h-.578a.065.065 0 0 0-.066.065l-.228.552c-.014.028.01.062.04.062h.163c.025 0 .046.018.046.045v1.078c0 .028.022.05.051.05" fill="#C42229"/><path d="M62.37 81.657h.573c.03 0 .055-.022.055-.05v-1.752c0-.028-.025-.05-.055-.05h-.89a.067.067 0 0 0-.069.065l-.227.552-.079.062h.456c.101 0 .185.08.185.18v.943c0 .028.022.05.05.05M64.933 79.804h-.573a.051.051 0 0 0-.053.05v1.752c0 .029.024.051.053.051h.579c.038 0 .067-.03.067-.065l.227-.553c.014-.03-.008-.062-.043-.062h-.158a.044.044 0 0 1-.044-.044v-1.079c0-.028-.027-.05-.055-.05" fill="#C42229"/><path d="M62.575 81.657h.377c.036 0 .067-.03.067-.065l.226-.553c.014-.029-.008-.062-.041-.062h-.16l-.469.68zM66.467 79.804h.682c.033 0 .057.031.043.061l-.722 1.764c-.006.018-.022.028-.043.028h-.616l.612-1.823a.046.046 0 0 1 .044-.03" fill="#C42229"/><path d="M65.613 79.804h-.964c-.068 0 .277.066.301.127l.682 1.668a.09.09 0 0 0 .087.058h.584l-.601-1.79a.091.091 0 0 0-.09-.063M63.763 79.804c.319 0 .59.216.59.594 0 .374-.048.396-.048.396s-.053-.358-.334-.358c-.275 0-.338.159-.338.276 0 .137.14.265.219.265h.502l-.296.646a.061.061 0 0 1-.055.034h-.228c-.24 0-.862-.308-.862-.903 0-.598.463-.95.85-.95" fill="#C42229"/><path d="M64.867 75.9h-1.735a.133.133 0 0 1-.134-.132v-.414c0-.073.06-.132.134-.132h1.735c.075 0 .135.06.135.132v.414c0 .074-.06.133-.135.133" fill="#5B2052"/><path fill="#86497E" d="M63.542 75.627h.916v-2.698h-.916z"/><path d="M43.726 45.79c0 1.658-1.366 3.002-3.05 3.002-1.685 0-3.051-1.344-3.051-3.002 0-1.658 1.366-3.002 3.05-3.002 1.685 0 3.05 1.344 3.05 3.002M63.954 45.79c0 1.658-1.366 3.002-3.05 3.002-1.685 0-3.05-1.344-3.05-3.002 0-1.658 1.365-3.002 3.05-3.002 1.684 0 3.05 1.344 3.05 3.002" fill-opacity=".2" fill="#E57D61"/></g></svg>