<svg id="Layer_1" data-name="Layer 1" xmlns="http://www.w3.org/2000/svg" viewBox="0 0 22.08 22.08"><defs><style>.cls-1{fill:none;stroke:#fff;stroke-linecap:round;stroke-linejoin:round;}.cls-2{fill:#fff;}</style></defs><title>plaster-highcontrast</title><g id="Siste-tidslinje---aktivitetskrav"><g id="Aktivitetskrav-åpen"><g id="sykemelding"><g id="Group"><path id="Stroke-7122" class="cls-1" d="M10.09,3A5,5,0,0,0,3,10.11l11,11A5,5,0,0,0,21.09,14l-11-11h0Z" transform="translate(-0.98 -1)"/><polygon id="Stroke-7123" class="cls-1" points="16.88 9.74 9.75 16.88 5.21 12.34 12.34 5.21 16.88 9.74"/><path id="Fill-7124" class="cls-2" d="M4,7.92a0.5,0.5,0,1,0,.35.15A0.5,0.5,0,0,0,4,7.92" transform="translate(-0.98 -1)"/><path id="Fill-7125" class="cls-2" d="M6.15,5.8a0.5,0.5,0,1,0,.35.15A0.5,0.5,0,0,0,6.15,5.8" transform="translate(-0.98 -1)"/><path id="Fill-7126" class="cls-2" d="M3.68,5.45A0.5,0.5,0,1,0,4,5.59a0.5,0.5,0,0,0-.35-0.15" transform="translate(-0.98 -1)"/><path id="Fill-7127" class="cls-2" d="M5.79,3.34a0.5,0.5,0,0,0-.35.85,0.5,0.5,0,0,0,.71-0.7,0.5,0.5,0,0,0-.35-0.15" transform="translate(-0.98 -1)"/><path id="Fill-7128" class="cls-2" d="M6.5,8.27a0.5,0.5,0,0,0-.35.85,0.5,0.5,0,0,0,.7,0A0.5,0.5,0,0,0,6.5,8.27" transform="translate(-0.98 -1)"/><path id="Fill-7129" class="cls-2" d="M8.61,6.15A0.5,0.5,0,0,0,8.26,7,0.5,0.5,0,1,0,9,6.3a0.5,0.5,0,0,0-.35-0.15" transform="translate(-0.98 -1)"/><path id="Fill-7130" class="cls-2" d="M8.26,3.69a0.5,0.5,0,1,0,.35.15,0.5,0.5,0,0,0-.35-0.15" transform="translate(-0.98 -1)"/><path id="Fill-7131" class="cls-2" d="M15.31,19.19a0.5,0.5,0,1,0,.35.15,0.5,0.5,0,0,0-.35-0.15" transform="translate(-0.98 -1)"/><path id="Fill-7132" class="cls-2" d="M17.42,17.08a0.5,0.5,0,0,0-.35.85,0.5,0.5,0,0,0,.7,0,0.5,0.5,0,0,0-.35-0.85" transform="translate(-0.98 -1)"/><path id="Fill-7133" class="cls-2" d="M17.77,19.55a0.5,0.5,0,1,0,.35.15,0.5,0.5,0,0,0-.35-0.15" transform="translate(-0.98 -1)"/><path id="Fill-7134" class="cls-2" d="M19.89,17.43a0.5,0.5,0,1,0,.35.15,0.5,0.5,0,0,0-.35-0.15" transform="translate(-0.98 -1)"/><path id="Fill-7135" class="cls-2" d="M15,16.73a0.5,0.5,0,1,0,.35.15A0.5,0.5,0,0,0,15,16.73" transform="translate(-0.98 -1)"/><path id="Fill-7136" class="cls-2" d="M17.07,14.61a0.5,0.5,0,1,0,.35.15,0.5,0.5,0,0,0-.35-0.15" transform="translate(-0.98 -1)"/><path id="Fill-7137" class="cls-2" d="M19.54,15a0.5,0.5,0,1,0,0,1,0.5,0.5,0,0,0,0-1" transform="translate(-0.98 -1)"/></g></g></g></g></svg>