<svg width="98" height="98" viewBox="0 0 98 98" xmlns="http://www.w3.org/2000/svg" xmlns:xlink="http://www.w3.org/1999/xlink"><defs><circle id="a" cx="49" cy="49" r="49"/><path d="M36.313.321c2.81.753 6.982 2.831 10.45 6.245C50.234 9.98 53 15.114 53 19.098v23.945H0V19.098c0-3.976 2.708-9.101 6.115-12.511C9.632 3.066 13.894.959 16.685.26c.053 4.69 4.427 9.523 9.815 9.523 5.365 0 9.724-4.792 9.813-9.462z" id="c"/><path id="e" d="M35.842 12.009l.126 1.933 1.847 2.133.282 1.443.234 1.936 1.121 1.52-.127 1.652.115 1.942 1.411 1.878v1.64l1.628 1.825.462-1.796-.203-1.727-.278-1.655.481-1.763-.652-1.764L43 19.37l-.262-1.626-.285-1.72.285-1.914-.449-1.174-.868-1.956-.346-1.78-1.623-1.429-.222-1.538-1.415-1.67-2.633-.55-1.294-1.22-1.756-.787L30.35.876l-2.015.312-1.738-.424-1.69-.615-1.772-.061-1.767.32L19.595 0l-1.744.402-1.78.055-1.656.73-1.763.271-1.751.437-1.569.897-1.259 1.351-1.73.676-1.151 1.414-1.037 1.471L3.178 9.2 2.09 10.652l-.63 1.697-.119 1.846.026 1.815L0 17.557l.511 1.858-.4 1.75.596 1.77-.668 1.798.744 1.713v1.776l.366 1.917 1.168-1.506.763-1.574.477-1.673-.279-2.01.74-1.603 1.352-1.305-.227-1.584.805-1.555.727-1.593v-1.541l1.398-2.088 2.819.293 1.63 1.241 1.848-.808 1.746.103 1.718.755 1.757.42 1.77-.512 1.768.318 1.738-.654 1.78.307 1.688-.983 1.867 1.045 1.69-.81z"/></defs><g fill="none" fill-rule="evenodd"><mask id="b" fill="#fff"><use xlink:href="#a"/></mask><g mask="url(#b)"><path fill="#C2EAF7" d="M-7.84 98h123V0h-123z"/></g><g mask="url(#b)"><path d="M68.614 47.048c-1.69 5.707-5.133 10.45-9.576 13.327l.222 2.463-.001.1-2.346 20.3H42.036l-.062-.427-2.876-19.908.107-2.49c-4.444-2.855-7.895-7.574-9.603-13.26a1.921 1.921 0 0 1-1.067.324v-.497.497c-1.125 0-2.017-.97-2.017-2.143v-6.64c0-1.173.89-2.142 2.012-2.144 1.055-12.26 9.838-21.854 20.562-21.854 10.726 0 19.511 9.597 20.563 21.861.056-.005.113-.007.17-.007 1.127 0 2.017.969 2.017 2.143v6.641c0 1.174-.89 2.143-2.017 2.143v-.497.497c-.457 0-.876-.16-1.211-.43z" fill="#E7E5E2" fill-rule="nonzero"/><path d="M42.192 40.35c-1.361.115-1.743-2.124-1.332-3.587.077-.277.528-1.54 1.326-1.54.797 0 1.149.69 1.198.81.586 1.425.298 4.192-1.192 4.318M57.392 40.35c1.362.115 1.743-2.124 1.333-3.587-.078-.277-.528-1.54-1.327-1.54-.797 0-1.149.69-1.198.81-.586 1.425-.298 4.192 1.192 4.318" fill="#635E59"/><path d="M50.224 42.926c.8-.138 1.348-.051 1.544.217.74 1.014.503 2.086-.766 2.967-.667.462-1.585.625-2.07.385-.239-.117-.516.003-.622.268-.105.265.003.575.24.693.804.396 2.039.177 2.95-.455 1.723-1.196 2.118-2.985.998-4.521-.474-.65-1.313-.782-2.417-.592-.257.044-.433.312-.394.599.04.286.28.483.537.439zM55.588 50.58a4.97 4.97 0 0 1-.296.59 7.341 7.341 0 0 1-1.001 1.36c-1.204 1.291-2.77 2.037-4.764 1.969-1.944-.067-3.504-.801-4.727-1.986-.449-.435-.82-.9-1.116-1.364a4.899 4.899 0 0 1-.331-.59c-.115-.26-.397-.367-.63-.24-.233.129-.33.444-.215.704.07.156.204.412.41.735a8.605 8.605 0 0 0 1.265 1.548c1.38 1.337 3.145 2.168 5.315 2.242 2.26.078 4.067-.783 5.445-2.26a8.37 8.37 0 0 0 1.143-1.553c.184-.322.304-.578.365-.734.104-.266-.005-.575-.243-.691-.238-.116-.516.005-.62.27z" fill="#59514B" fill-rule="nonzero"/><g><g transform="translate(22.577 60.715)"><mask id="d" fill="#fff"><use xlink:href="#c"/></mask><use fill="#D8A25D" xlink:href="#c"/><g mask="url(#d)" fill="#5C4378"><path d="M-35.333 70.609h124v-98h-124z"/></g></g><g transform="translate(27.504 9.8)"><mask id="f" fill="#fff"><use xlink:href="#e"/></mask><use fill="#3E3832" xlink:href="#e"/><g mask="url(#f)" fill="#8B5F26"><path d="M-14.66-23.333h67v77h-67z"/></g></g></g></g></g></svg>