<svg width="100" height="100" viewBox="0 0 100 100" xmlns="http://www.w3.org/2000/svg" xmlns:xlink="http://www.w3.org/1999/xlink"><defs><circle id="a" cx="50" cy="50" r="50"/><path id="b" d="M.35.033h7.646v55.049H.35z"/></defs><g fill="none" fill-rule="evenodd"><use fill="#DADE99" xlink:href="#a"/><path fill="#FAFAFA" d="M53.425 32.23v9.931H77.46l3.744-4.965-3.744-4.965zM21.744 39.42L18 44.386l3.744 4.966h24.035v-9.93zM53.425 44.385v9.93H77.46l3.744-4.964-3.744-4.966z"/><g transform="translate(45.429 23.885)"><mask id="c" fill="#fff"><use xlink:href="#b"/></mask><path d="M2.272 55.082h3.803c1.06 0 1.921-.864 1.921-1.93V1.962c0-1.065-.86-1.929-1.92-1.929H2.271A1.926 1.926 0 0 0 .35 1.963v51.189c0 1.066.86 1.93 1.922 1.93" fill="#8E8785" mask="url(#c)"/></g></g></svg>