<svg width="30" height="30" viewBox="0 0 30 30" xmlns="http://www.w3.org/2000/svg"><path d="M15.256.253l-.268.003A15.345 15.345 0 0 0 4.342 4.79C1.474 7.664-.067 11.427.002 15.387.147 23.58 6.623 30 14.747 30l.264-.003c8.408-.143 15.132-6.932 14.987-15.129C29.854 6.674 23.377.253 15.256.253zm-.908 7.76A.65.65 0 0 1 15 7.365a.65.65 0 0 1 .652.646v9.052a.65.65 0 0 1-.652.646.65.65 0 0 1-.652-.646V8.012zm.675 14.87H15c-.71 0-1.293-.564-1.304-1.27a1.297 1.297 0 0 1 1.28-1.315l.024-.001a1.3 1.3 0 0 1 1.304 1.27 1.299 1.299 0 0 1-1.28 1.316z" fill-rule="nonzero" fill="#FF9100"/></svg>