<svg width="32" height="32" viewBox="0 0 32 32" xmlns="http://www.w3.org/2000/svg"><path d="M16.273.339l-.286.002A16.386 16.386 0 0 0 4.632 5.167c-3.06 3.06-4.703 7.065-4.63 11.279C.157 25.168 7.065 32 15.73 32l.282-.003c8.968-.153 16.14-7.378 15.986-16.103C31.844 7.172 24.937.339 16.273.339zm-.969 8.258c0-.38.312-.689.696-.689.383 0 .696.309.696.689v9.634c0 .38-.313.688-.696.688a.692.692 0 0 1-.696-.688V8.597zm.721 15.828H16c-.758 0-1.379-.6-1.391-1.352a1.382 1.382 0 0 1 1.366-1.4l.025-.001c.758 0 1.377.601 1.391 1.353.014.76-.6 1.386-1.366 1.4z" fill-rule="nonzero" fill="#FF9100"/></svg>