<svg width="32" height="32" viewBox="0 0 32 32" xmlns="http://www.w3.org/2000/svg"><path d="M16.272.339l-.285.002A16.385 16.385 0 0 0 4.63 5.167C1.572 8.227-.07 12.232.003 16.446.156 25.168 7.063 32 15.728 32l.283-.003c8.968-.153 16.14-7.378 15.985-16.103C31.843 7.172 24.936.339 16.272.339zm-.968 8.258c0-.38.311-.689.695-.689.383 0 .696.309.696.689v9.634c0 .38-.313.688-.696.688a.692.692 0 0 1-.695-.688V8.597zm.72 15.828H16c-.758 0-1.378-.6-1.39-1.352a1.382 1.382 0 0 1 1.365-1.4l.025-.001c.759 0 1.378.601 1.392 1.353.014.76-.6 1.386-1.367 1.4z" fill-rule="nonzero" fill="#C30000"/></svg>