<svg width="226" height="128" viewBox="0 0 226 128" xmlns="http://www.w3.org/2000/svg"><g fill="none" fill-rule="evenodd"><path d="M196.211 122.391l-.105-35.775a2.511 2.511 0 0 0-2.517-2.507l-27.383.081-8.713 8.31.088 30.004" fill="#DEDEDA"/><path d="M166.206 84.19l.017 5.768a2.512 2.512 0 0 1-2.503 2.524l-6.227.018 8.713-8.31z" fill="#BBBCBC"/><path fill="#8F9395" d="M190.158 105.426l-26.474.078-.007-2.086 26.475-.078zM190.172 110.15l-26.474.078-.007-2.088 26.475-.078zM190.185 114.87l-26.473.078-.007-2.086 26.475-.078zM189.997 119.495l-26.474.078-.007-2.085 26.475-.076z"/><path d="M147.679 47.67h-.061c-.057-19.579-14.198-35.411-31.582-35.36-17.384.05-31.431 15.966-31.374 35.544.047 16.48.018 36.122 30.183 36.63.228.008.469.008.702.012.237.001.46.012.7.012h.062c.24 0 .462-.014.699-.016.234-.006.475-.007.702-.016 30.163-.685 30.018-20.328 29.969-36.806" fill="#303339"/><path d="M87.834 44.378a2.115 2.115 0 0 1 2.077-1.768c.27-.002.527.053.764.145.03.003.058.004.089.008 7.822-10.735 23.167-.899 34.826-11.16 1.493-1.605 2.27-2.723 2.476-2.723 0 0 11.364 9.812 13.264 13.578 0 0 .133.27.304.146a2.13 2.13 0 0 1 .763-.15 2.117 2.117 0 0 1 2.09 1.758c.044.168.075.343.075.526l.025 8.58a2.124 2.124 0 0 1-2.116 2.133c-.47.002-.9-.155-1.252-.413-1.83 8.498-6.74 15.546-13.252 19.467 1.818.753 4.618 2.227 4.618 2.227-1.326 1.964-5.08 11.085-16.291 11.117-11.211.033-15.03-9.065-16.368-11.02 0 0 2.437-1.348 4.49-2.323-6.478-3.896-11.382-10.883-13.25-19.32-.352.26-.781.419-1.251.42a2.125 2.125 0 0 1-2.129-2.12l-.025-8.582c0-.183.03-.357.073-.526" fill="#E7E5E2"/><path d="M126.809 54.485c-3.636.011-6.603-2.942-6.613-6.584-.01-3.642 2.938-6.613 6.574-6.623 3.634-.011 6.6 2.942 6.61 6.585.01 3.64-2.937 6.61-6.571 6.622m-21.235.063c-3.636.01-6.603-2.944-6.614-6.584-.01-3.643 2.939-6.613 6.575-6.625 3.636-.01 6.6 2.944 6.612 6.586.011 3.642-2.937 6.612-6.573 6.623m21.19-15.38c-4.437.014-8.055 3.38-8.57 7.684l-4.05.012c-.54-4.301-4.179-7.646-8.615-7.633-4.795.014-8.688 3.934-8.674 8.74.014 4.804 3.929 8.7 8.724 8.687 4.436-.013 8.055-3.38 8.571-7.683l4.05-.013c.54 4.303 4.178 7.647 8.614 7.633 4.797-.014 8.687-3.934 8.673-8.739-.014-4.805-3.926-8.702-8.723-8.688" fill="#303339"/><path d="M128.08 74.438c-.832.403-2.594.946-3.473 1.258-1.562 2.618-7.682 13.521-7.682 13.521l-1.274.003s-5.949-10.564-7.66-13.442c-.915-.313-2.598-.792-3.46-1.205-5.13 1.324-20.77 11.664-20.742 21.266l.078 26.907 65.044-.191-.078-26.908c-.028-9.601-15.416-20.05-20.752-21.21" fill="#5EADC7"/><path d="M122.515 76.336c-.509.752-5.774 10.132-5.774 10.132l-.92.003s-5.018-8.91-5.763-10.085a24.598 24.598 0 0 1-2.068-.607c1.712 2.878 7.66 13.441 7.66 13.441l1.275-.004s6.12-10.903 7.681-13.52c-.686.243-1.383.454-2.094.638l.003.002z" fill="#6A98A5"/><path d="M116.742 86.469s5.265-9.381 5.774-10.133l-.004-.002c-2.004.519-4.092.826-6.256.833a25.203 25.203 0 0 1-6.198-.78c.746 1.175 5.762 10.084 5.762 10.084l.922-.002z" fill="#E7E5E2"/><path d="M101.933 90.195c-4.476-7.8-2.07-12.747-.542-13.945l1.953-.822c-2.85 3.156-3.402 8.456.04 14.043l-1.45.724z" fill="#FFF"/><path d="M99.115 90.286c2.327-1.395 3.558-1.857 5.505-2.094 2.453-.298 4.753.622 6.783 2.062 1.038.736 1.716 1.698 2.024 2.974.861 3.592 1.794 7.17 2.699 10.753.577 2.281-.016 4.208-1.747 5.799a.797.797 0 0 0-.216.406c-.227 1.147-1.114 1.936-2.211 1.947-1.149.012-2.08-.749-2.303-1.878-.213-1.084.368-2.147 1.433-2.57.693-.276 1.368-.173 2.055.206.838-.901 1.186-1.941.888-3.152-.602-2.445-1.23-4.885-1.846-7.326-.322-1.275-.66-2.544-.956-3.824-.135-.581-.44-1.017-.884-1.384-3.042-2.51-7.555-2.384-10.436.292-.848.787-1.581 1.663-2.077 2.721a2.705 2.705 0 0 0-.184 1.91c.942 3.644 1.85 7.295 2.775 10.944.317 1.239 1.093 2.049 2.319 2.452.462-.695 1.065-1.138 1.915-1.174a2.31 2.31 0 0 1 2.328 1.702c.276 1.017-.195 2.096-1.139 2.614-.927.511-2.1.31-2.79-.51a1.266 1.266 0 0 0-.696-.433c-2.05-.548-3.463-1.833-4.011-3.884-1.035-3.86-1.983-7.743-2.95-11.621-.229-.912-.03-1.794.322-2.643.725-1.753 1.913-3.155 3.4-4.289M132.706 93.128l-1.33.004-.051-17.558 1.333.694z" fill="#FFF"/><path d="M138.217 96.265a6.171 6.171 0 0 1-6.149 6.195c-3.404.01-6.174-2.747-6.184-6.158a6.174 6.174 0 0 1 6.148-6.196 6.172 6.172 0 0 1 6.185 6.16" fill="#FFF"/><path d="M136.72 96.27a4.673 4.673 0 0 1-4.657 4.691 4.671 4.671 0 0 1-4.682-4.663 4.672 4.672 0 0 1 4.655-4.692 4.673 4.673 0 0 1 4.684 4.664" fill="#DEDED9"/><path d="M207.322 111.03l4.494-.322a.686.686 0 0 1 .734.636l.186 2.621a.688.688 0 0 1-.633.735l-4.495.32a.684.684 0 0 1-.734-.637l-.187-2.617a.684.684 0 0 1 .635-.736" fill="#C52D35"/><path fill="#E2D2B7" d="M208.34 84.683l-2.995-4.865-1.404 5.54 2.381.26z"/><path fill="#E9C264" d="M210.937 111.53l1.468-.226-3.998-26.177-1.465.224z"/><path fill="#DAB25A" d="M205.476 85.577l3.995 26.175 1.467-.222-3.997-26.18z"/><path fill="#E9C264" d="M209.471 111.753l-3.995-26.176-1.47.224 4 26.177zM207.811 84.442c-.274.042-.408.425-.772.48a.45.45 0 0 1-.164-.008l.066.437 1.466-.224-.063-.407s-.255-.32-.533-.278"/><path d="M206.875 84.915c-.254-.056-.402-.323-.79-.267-.391.062-.45.362-.675.493l.065.436 1.467-.226-.067-.436z" fill="#DAB25A"/><path d="M205.41 85.141a.47.47 0 0 1-.156.053c-.368.055-.605-.265-.882-.223-.275.04-.422.424-.422.424l.057.407 1.47-.225-.068-.436z" fill="#E9C264"/><path fill="#555858" d="M205.347 79.818l-.496 1.96 1.554-.237zM206.7 111.943l5.863-.417.057.797-5.862.416z"/><path d="M216.867 100.336l4.397 1.007c.366.083.6.451.511.823l-.582 2.56a.688.688 0 0 1-.821.517l-4.395-1.007a.688.688 0 0 1-.515-.822l.585-2.561a.682.682 0 0 1 .82-.517" fill="#C52D35"/><path fill="#E2D2B7" d="M225.516 75.434l-1.448-5.529-2.955 4.884 2.202.946z"/><path fill="#52818C" d="M220.182 101.87l1.466.214 3.802-26.208-1.467-.214z"/><path fill="#115870" d="M222.514 75.448l-3.801 26.208 1.47.213 3.8-26.204z"/><path fill="#52818C" d="M218.713 101.656l3.803-26.207-1.47-.214-3.802 26.208zM225.081 75.05c-.276-.042-.514.283-.884.23a.41.41 0 0 1-.15-.055l-.064.437 1.468.214.06-.406s-.154-.38-.43-.42"/><path d="M224.045 75.226c-.226-.126-.286-.428-.677-.485-.392-.057-.537.214-.788.273l-.065.437 1.469.21.061-.435z" fill="#115870"/><path d="M222.578 75.014a.409.409 0 0 1-.16.004c-.37-.053-.503-.429-.78-.473-.278-.038-.532.283-.532.283l-.06.408 1.47.212.062-.434z" fill="#52818C"/><path fill="#555858" d="M224.067 69.906l-1.044 1.729 1.556.229zM216.007 101.027l5.73 1.312-.179.784-5.73-1.314z"/><path fill="#E2D2B7" d="M218.27 89.67l-2.008-5.35-2.437 5.166 2.286.712z"/><path fill="#97AB47" d="M216.25 103.503l1.484.059.517-13.445-1.482-.06z"/><path fill="#737D34" d="M215.288 89.996l-.517 13.444 1.48.063.52-13.446z"/><path fill="#97AB47" d="M214.77 103.44l.516-13.444-1.481-.063-.518 13.449zM217.798 89.332c-.278-.012-.48.337-.853.32a.501.501 0 0 1-.159-.035l-.018.44 1.484.06.02-.41s-.195-.365-.474-.375"/><path d="M216.787 89.617c-.24-.106-.33-.397-.725-.412-.394-.016-.511.268-.757.349l-.017.444 1.482.059.017-.44z" fill="#737D34"/><path d="M215.305 89.554a.42.42 0 0 1-.16.025c-.374-.014-.546-.381-.825-.39-.28-.01-.5.334-.5.334l-.015.41 1.484.065.016-.444z" fill="#97AB47"/><path fill="#555858" d="M216.262 84.32l-.865 1.829 1.577.065z"/><path fill="#C52D35" d="M223.056 102l-20.23.06 2.486 20.882 15.377-.045z"/><path d="M49.234 79.72l-11.359.034-11.359.034C20.392 79.806.284 90.617.32 102.448l.074 25.543 75.246-.22-.074-25.543c-.035-11.832-20.206-22.526-26.33-22.507" fill="#8E9738"/><path d="M68.106 35.107c-.314.002-.61.066-.882.173-.17.021-.33.031-.498.05C64.099 19.32 52.086 7.23 37.662 7.27c-14.224.042-26.03 11.875-28.782 27.574-.086.145-.191.304-.258.437 0 0-.152.313-.352.172a2.415 2.415 0 0 0-.884-.168 2.452 2.452 0 0 0-2.445 2.463l.028 9.915a2.454 2.454 0 0 0 2.462 2.447 2.429 2.429 0 0 0 1.442-.484c2.021 9.125 7.122 16.775 13.907 21.408.612 2.76.855 6.692-1.41 9.916 0 0 15.6 11.358 32.296-.095 0 0-3.09-3.275-1.81-9.21 7.289-4.58 12.776-12.578 14.845-22.188.41.296.905.478 1.448.476a2.455 2.455 0 0 0 2.444-2.463l-.03-9.914a2.454 2.454 0 0 0-2.457-2.45" fill="#E7E5E2"/><path d="M67.138 28.678C65.091 11.207 53.807-.044 38.918 0 23.543.045 9.023 13.251 8.065 30.995a34.805 34.805 0 0 0-.35 8.292c1.591 20.207 9.497 19.753 16.2 31.89 4.854-1.175 8.21-2.446 13.948-2.462 5.738-.017 7.659.657 12.517 2.385 5.58-11.635 15.661-8.122 17.404-31.99.263-3.616.014-7.11-.646-10.432" fill="#231F1F"/><path d="M8.581 89.133c.84 1.368 2.638 2.688 4.624 3.628 2.013.95 4.247 1.645 6.543 2.13 4.609.96 9.471 1.113 14.267.622 4.8-.5 9.577-1.645 14.087-3.533 4.525-1.853 8.76-4.48 12.502-7.739a45.813 45.813 0 0 1-11.908 9.001c-4.441 2.373-9.278 4.033-14.264 5.033-4.99.987-10.15 1.33-15.337.753-2.59-.298-5.191-.827-7.765-1.756-2.541-.973-5.188-2.266-7.309-4.925l4.56-3.214z" fill="#FFF"/><path d="M37.87 96.23c-13.282-6.23-1.947-14.966 0 0M37.87 96.23c13.247-6.308 1.86-14.977 0 0M37.875 95.978c-.272 2.902-2.032 7.492-3.149 9.085M38.38 96.228c.288 2.9 2.077 7.479 3.202 9.066" stroke="#FFF"/><g><path d="M105.166 47.465c.082-.264.561-1.465 1.41-1.465.846 0 1.22.656 1.272.77.623 1.357.318 3.992-1.266 4.112-1.447.11-1.852-2.024-1.416-3.417zM126.732 50.883c1.447.108 1.852-2.025 1.416-3.418-.082-.264-.561-1.465-1.41-1.465-.846 0-1.22.656-1.272.77-.623 1.357-.318 3.992 1.266 4.112" fill="#635E59"/><path d="M117.04 53.84c.864-.132 1.708-.1 2.103.386.966 1.186.689 2.555-.935 3.566-.813.505-1.963.712-2.668.4" stroke="#D1BFA3" stroke-width=".506" stroke-linecap="round"/><path d="M123.274 63.826s-1.828 4.187-6.914 4.03c-5.086-.155-6.993-4.03-6.993-4.03" stroke="#D19E9C" stroke-width="1.013" stroke-linecap="round"/></g></g></svg>