<svg width="100" height="100" viewBox="0 0 100 100" xmlns="http://www.w3.org/2000/svg" xmlns:xlink="http://www.w3.org/1999/xlink"><defs><path id="a" d="M47 .584v57.73H0V.585z"/><path id="c" d="M0 63h47V0H0z"/></defs><g fill="none" fill-rule="evenodd"><circle fill="#DADE99" cx="50" cy="50" r="50"/><g transform="translate(26 19)"><g transform="translate(0 5)"><mask id="b" fill="#fff"><use xlink:href="#a"/></mask><path d="M43.946.584H3.054A3.053 3.053 0 0 0 0 3.64v51.62c0 .314.047.62.136.906a3.062 3.062 0 0 0 2.917 2.15h40.892A3.056 3.056 0 0 0 47 55.258V3.64A3.055 3.055 0 0 0 43.946.584" fill="#515658" mask="url(#b)"/></g><path d="M4 16.493v39.929C4 57.848 5.135 59 6.534 59h33.931c1.4 0 2.535-1.152 2.535-2.578V10.577C43 9.153 41.865 8 40.465 8H12.821L4 16.493z" fill="#FFF"/><path d="M13 8v5.57c0 1.342-1.157 2.43-2.585 2.43H4l9-8z" fill="#C0C0BE"/><path d="M23.501 6.91c-.553 0-1-.426-1-.954 0-.529.447-.957 1-.957.55 0 1 .428 1 .957 0 .528-.45.954-1 .954m6.176-3.907h-3.721v-.657C25.956 1.05 24.856 0 23.5 0c-1.359 0-2.456 1.05-2.456 2.346v.657h-3.721C15.489 3.003 14 4.426 14 6.18V10h19V6.18c0-1.754-1.488-3.177-3.323-3.177" fill="#2F3237"/><mask id="d" fill="#fff"><use xlink:href="#c"/></mask><path fill="#A59D96" mask="url(#d)" d="M17 32h19v-2H17zM17 37h19v-2H17zM17 42h19v-2H17zM17 47h19v-2H17zM15 29h-4v4h4v-4zm-3.127 3.1h2.254v-2.2h-2.254v2.2zM15 34h-4v4h4v-4zm-3.127 3.1h2.254v-2.2h-2.254v2.2zM15 39h-4v4h4v-4zm-3.127 3.1h2.254v-2.2h-2.254v2.2zM15 44h-4v4h4v-4zm-3.127 3.1h2.254v-2.2h-2.254v2.2z"/><path stroke="#2F3237" stroke-width="2.24" mask="url(#d)" d="M11 29.483L13.077 32 16 28M11 34.483L13.077 37 16 33"/></g></g></svg>