<svg width="100" height="100" viewBox="0 0 100 100" xmlns="http://www.w3.org/2000/svg" xmlns:xlink="http://www.w3.org/1999/xlink"><defs><circle id="a" cx="50" cy="50" r="50"/></defs><g fill="none" fill-rule="evenodd"><g><mask id="b" fill="#fff"><use xlink:href="#a"/></mask><use fill="#C2EAF7" xlink:href="#a"/><g mask="url(#b)"><path d="M74.579 45.592h-.047c0-14.628-10.6-26.487-23.678-26.487-13.077 0-23.677 11.859-23.677 26.487v.014C27.172 58.099 20.7 65.24 20.7 65.24s6.39 7.804 30.154 7.804h.046c23.764 0 30.154-7.804 30.154-7.804s-6.476-7.148-6.476-19.649" fill="#E57F68"/><path d="M58.111 64.628H43.646c-3.9 0-16.724 8.036-16.724 15.52v19.687h47.912V80.147c0-7.483-12.823-15.52-16.723-15.52" fill="#624B7F"/><path d="M71.744 42.506a1.555 1.555 0 0 0-2.096-1.182 1.695 1.695 0 0 1-.067.006c-5.785-7.837-17.066-.606-25.676-8.09-1.103-1.171-1.678-1.987-1.83-1.987 0 0-8.35 7.203-9.74 9.963 0 0-.1.197-.225.108a1.557 1.557 0 0 0-2.098 1.182 1.533 1.533 0 0 0-.054.385v6.279a1.56 1.56 0 0 0 2.485 1.25c1.366 6.214 4.998 11.36 9.803 14.214-1.337.555-3.397 1.64-3.397 1.64.98 1.432 3.766 8.099 12.024 8.099 8.259 0 11.052-6.666 12.034-8.099 0 0-1.798-.981-3.314-1.689 4.764-2.865 8.362-7.988 9.72-14.165a1.56 1.56 0 0 0 2.485-1.25v-6.28c0-.133-.022-.26-.054-.384" fill="#E7E5E2"/><path d="M69.375 92.993H54.536a1.195 1.195 0 0 1-1.198-1.193v-7.937c0-.658.536-1.193 1.198-1.193h14.839c.662 0 1.199.535 1.199 1.193V91.8c0 .66-.537 1.193-1.2 1.193" fill="#D2242A"/><path d="M65.864 88.008a3.772 3.772 0 0 1-3.78 3.763c-2.091 0-3.784-1.686-3.784-3.763s1.693-3.763 3.784-3.763a3.772 3.772 0 0 1 3.78 3.763M57.184 89.667h-.737l.788-1.923h.74zM66.48 89.667h-.456l.788-1.923h.457zM67.743 89.667h-.194l.787-1.923h.193z" fill="#FFF"/><path d="M59.21 89.658h.581c.03 0 .054-.023.054-.052v-1.8a.052.052 0 0 0-.054-.051h-.586c-.04 0-.068.03-.068.068l-.23.566a.046.046 0 0 0 .04.064h.165c.025 0 .047.019.047.046v1.107c0 .029.023.052.052.052" fill="#C52D35"/><path d="M60.472 89.658h.583c.03 0 .055-.023.055-.052v-1.8c0-.028-.025-.051-.055-.051h-.906a.068.068 0 0 0-.068.068l-.232.566-.08.064h.464c.103 0 .187.081.187.186v.967c0 .029.023.052.052.052M63.076 87.755h-.582a.053.053 0 0 0-.053.052v1.799c0 .029.024.052.053.052h.588c.04 0 .068-.03.068-.068l.23-.566c.015-.031-.007-.065-.043-.065h-.16a.045.045 0 0 1-.046-.045v-1.107c0-.03-.026-.052-.055-.052" fill="#C52D35"/><path d="M60.681 89.658h.383c.037 0 .067-.031.067-.067l.23-.568a.046.046 0 0 0-.042-.065h-.161l-.477.7zM64.634 87.755h.693c.034 0 .058.032.043.062l-.733 1.812c-.005.018-.022.029-.042.029h-.627l.621-1.872a.05.05 0 0 1 .045-.031" fill="#C52D35"/><path d="M63.766 87.755h-.979c-.069 0 .282.067.306.13l.693 1.713c.014.038.05.06.089.06h.593l-.61-1.839a.094.094 0 0 0-.092-.064M61.887 87.755a.58.58 0 0 1 .6.61c0 .383-.048.406-.048.406s-.055-.367-.34-.367c-.28 0-.343.162-.343.283 0 .14.142.272.222.272h.51l-.301.664a.061.061 0 0 1-.056.035h-.232c-.242 0-.875-.316-.875-.928 0-.613.47-.975.863-.975" fill="#C52D35"/><path d="M62.931 83.746h-1.606a.214.214 0 0 1-.215-.214v-.27c0-.117.096-.213.215-.213h1.606c.12 0 .215.096.215.214v.27a.214.214 0 0 1-.215.213" fill="#5A1F57"/><path fill="#835184" d="M61.663 83.465h.93v-2.77h-.93z"/></g></g><path d="M43.294 45.476c-1.447.109-1.852-2.024-1.416-3.417.082-.264.561-1.466 1.41-1.466.846 0 1.22.657 1.272.77.623 1.358.317 3.993-1.266 4.113M59.443 45.476c1.447.109 1.852-2.024 1.416-3.417-.082-.264-.56-1.466-1.409-1.466-.847 0-1.22.657-1.273.77-.623 1.358-.317 3.993 1.266 4.113" fill="#635E59"/><path d="M51.752 47.434c.864-.133 1.708-.101 2.104.385.965 1.186.688 2.555-.937 3.566-.812.505-1.962.712-2.667.4" stroke="#D1BFA3" stroke-width=".506" stroke-linecap="round"/><path d="M57.985 55.419s-1.828 4.187-6.914 4.03c-5.086-.155-6.993-4.03-6.993-4.03" stroke="#D19E9C" stroke-width=".8" stroke-linecap="round"/></g></svg>